<?xml version="1.0" encoding="utf-8"?><svg width="280" height="260" viewBox="0 0 280 260" xmlns="http://www.w3.org/2000/svg" xmlns:xlink="http://www.w3.org/1999/xlink"><view id="add" viewBox="20 0 20 20"/><svg width="20" height="20" viewBox="0 0 52 52" x="20"><path fill="#fff" d="M30 29h16.5c.8 0 1.5-.7 1.5-1.5v-3c0-.8-.7-1.5-1.5-1.5H30c-.6 0-1-.4-1-1V5.5c0-.8-.7-1.5-1.5-1.5h-3c-.8 0-1.5.7-1.5 1.5V22c0 .6-.4 1-1 1H5.5c-.8 0-1.5.7-1.5 1.5v3c0 .8.7 1.5 1.5 1.5H22c.6 0 1 .4 1 1v16.5c0 .8.7 1.5 1.5 1.5h3c.8 0 1.5-.7 1.5-1.5V30c0-.6.4-1 1-1z"/></svg><view id="adduser" viewBox="180 160 20 20"/><svg width="20" height="20" viewBox="0 0 52 52" x="180" y="160"><path d="M21.9 37c0-2.7.9-5.8 2.3-8.2 1.7-3 3.6-4.2 5.1-6.4 2.5-3.7 3-9 1.4-13-1.6-4.1-5.4-6.5-9.8-6.4s-8 2.8-9.4 6.9c-1.6 4.5-.9 9.9 2.7 13.3 1.5 1.4 2.9 3.6 2.1 5.7-.7 2-3.1 2.9-4.8 3.7-3.9 1.7-8.6 4.1-9.4 8.7C1.3 45.1 3.9 49 8 49h17c.8 0 1.3-1 .8-1.6-2.5-2.9-3.9-6.6-3.9-10.4zm16-12c-6.6 0-12 5.4-12 12s5.4 12 12 12 12-5.4 12-12-5.4-12-12-12zM44 38c0 .6-.5 1-1.1 1H40v3c0 .6-.5 1-1.1 1h-2c-.6 0-.9-.4-.9-1v-3h-3.1c-.6 0-.9-.4-.9-1v-2c0-.6.3-1 .9-1H36v-3c0-.6.3-1 .9-1h2c.6 0 1.1.4 1.1 1v3h2.9c.6 0 1.1.4 1.1 1v2z" fill="#fff"/></svg><view id="announcement" viewBox="0 20 20 20"/><svg width="20" height="20" viewBox="0 0 52 52" y="20"><path d="M22.7 45.4l-1.3-1c-1.4-1-1.4-3-1.4-4v-2.9c0-.8-.7-1.5-1.5-1.5h-6c-.8 0-1.5.7-1.5 1.5v7.7c0 2.7 1.6 4.8 4.1 4.8H20c2.9 0 3.1-2 3.1-2s.5-1.8-.4-2.6zM45 18V4.3c0-2.4-3-3.1-4.6-1.5l-8.9 8.4c-1.4 1.2-3.2 1.7-5 1.7H11.3C6.1 13 2 17.5 2 22.7v.2c0 5.2 4.1 9.1 9.3 9.1h15.2c1.9 0 3.7.8 5.1 2l8.8 8.6c1.6 1.6 4.6 1 4.6-1.4V27.6c3 0 4.8-2.1 4.8-4.8 0-2.7-1.8-4.8-4.8-4.8z" fill="#fff"/></svg><view id="apps" viewBox="20 20 20 20"/><svg width="20" height="20" viewBox="0 0 52 52" x="20" y="20"><path fill="#fff" d="M13 4H7C5.3 4 4 5.3 4 7v6c0 1.7 1.3 3 3 3h6c1.7 0 3-1.3 3-3V7c0-1.7-1.3-3-3-3zm0 32H7c-1.7 0-3 1.3-3 3v6c0 1.7 1.3 3 3 3h6c1.7 0 3-1.3 3-3v-6c0-1.7-1.3-3-3-3zm0-16H7c-1.7 0-3 1.3-3 3v6c0 1.7 1.3 3 3 3h6c1.7 0 3-1.3 3-3v-6c0-1.7-1.3-3-3-3zM29 4h-6c-1.7 0-3 1.3-3 3v6c0 1.7 1.3 3 3 3h6c1.7 0 3-1.3 3-3V7c0-1.7-1.3-3-3-3zm0 32h-6c-1.7 0-3 1.3-3 3v6c0 1.7 1.3 3 3 3h6c1.7 0 3-1.3 3-3v-6c0-1.7-1.3-3-3-3zm0-16h-6c-1.7 0-3 1.3-3 3v6c0 1.7 1.3 3 3 3h6c1.7 0 3-1.3 3-3v-6c0-1.7-1.3-3-3-3zM45 4h-6c-1.7 0-3 1.3-3 3v6c0 1.7 1.3 3 3 3h6c1.7 0 3-1.3 3-3V7c0-1.7-1.3-3-3-3zm0 32h-6c-1.7 0-3 1.3-3 3v6c0 1.7 1.3 3 3 3h6c1.7 0 3-1.3 3-3v-6c0-1.7-1.3-3-3-3zm0-16h-6c-1.7 0-3 1.3-3 3v6c0 1.7 1.3 3 3 3h6c1.7 0 3-1.3 3-3v-6c0-1.7-1.3-3-3-3z"/></svg><view id="arrowdown" viewBox="40 0 20 20"/><svg width="20" height="20" viewBox="0 0 52 52" x="40"><path fill="#fff" d="M9.6 31c-.8.8-.8 1.9 0 2.7l15 14.7c.8.8 2 .8 2.8 0l15.1-14.7c.8-.8.8-1.9 0-2.7l-2.8-2.7c-.8-.8-2-.8-2.8 0l-4.7 4.6c-.8.8-2.2.3-2.2-.9V5c0-1-.9-2-2-2h-4c-1.1 0-2 1.1-2 2v27c0 1.2-1.4 1.7-2.2.9l-4.7-4.6c-.8-.8-2-.8-2.8 0L9.6 31z"/></svg><view id="arrowup" viewBox="40 20 20 20"/><svg width="20" height="20" viewBox="0 0 52 52" x="40" y="20"><path fill="#fff" d="M41.4 21c.8-.8.8-1.9 0-2.7l-15-14.7c-.8-.8-2-.8-2.8 0l-15 14.7c-.8.8-.8 1.9 0 2.7l2.8 2.7c.8.8 2 .8 2.8 0l4.7-4.6c.8-.8 2.2-.2 2.2.9v27c0 1 .9 2 2 2h4c1.1 0 2-1.1 2-2V20c0-1.2 1.4-1.7 2.2-.9l4.7 4.6c.8.8 2 .8 2.8 0l2.6-2.7z"/></svg><view id="attach" viewBox="0 40 20 20"/><svg width="20" height="20" viewBox="0 0 52 52" y="40"><path fill="#fff" d="M17.6 36.7c.6.6 1.5.5 2.1 0l10-10c.7-.7 1.9-.8 2.8 0 .9.8.8 2.2 0 3L20.2 41.8c-2.7 2.7-7.2 2.7-9.9 0l-.1-.1c-2.7-2.7-2.7-7.2 0-9.9l21.7-21.7c2.7-2.7 7.2-2.7 9.9 0l.1.1c2.7 2.7 2.7 7.2 0 9.9l-.1.1c-.5.5-.6 1.2-.2 1.8.6 1.1 1.1 2.3 1.4 3.5.2.8 1.1 1 1.7.5.8-.8 1.5-1.6 1.5-1.6 5.1-5.1 5.1-13.4 0-18.5H46C40.9.8 32.6.8 27.5 5.9L5.8 27.5C.7 32.6.7 40.9 5.8 46l.2.2c5.1 5.1 13.3 5.1 18.4 0l12.4-12.3c3.2-3.2 3.1-8.4-.2-11.6-3.2-3.1-8.4-2.9-11.5.3l-9.8 9.8c-.6.6-.6 1.6 0 2.2l2.3 2.1z"/></svg><view id="back" viewBox="20 40 20 20"/><svg width="20" height="20" viewBox="0 0 52 52" x="20" y="40"><path fill="#fff" d="M48.6 23H15.4c-.9 0-1.3-1.1-.7-1.7l9.6-9.6c.6-.6.6-1.5 0-2.1l-2.2-2.2c-.6-.6-1.5-.6-2.1 0L2.5 25c-.6.6-.6 1.5 0 2.1L20 44.6c.6.6 1.5.6 2.1 0l2.1-2.1c.6-.6.6-1.5 0-2.1l-9.6-9.6c-.6-.7-.2-1.8.7-1.8h33.2c.8 0 1.5-.6 1.5-1.4v-3c0-.8-.6-1.6-1.4-1.6z"/></svg><view id="ban" viewBox="40 40 20 20"/><svg width="20" height="20" viewBox="0 0 52 52" x="40" y="40"><path fill="#fff" d="M26 2C12.8 2 2 12.8 2 26s10.8 24 24 24 24-10.8 24-24S39.2 2 26 2zM8 26c0-9.9 8.1-18 18-18 3.9 0 7.5 1.2 10.4 3.3L11.3 36.4C9.2 33.5 8 29.9 8 26zm18 18c-3.9 0-7.5-1.2-10.4-3.3l25.1-25.1C42.8 18.5 44 22.1 44 26c0 9.9-8.1 18-18 18z"/></svg><view id="bold" viewBox="60 0 20 20"/><svg width="20" height="20" viewBox="0 0 52 52" x="60"><path fill="#fff" d="M41 19c0-6-4.8-11-10.5-11H14c-1.1 0-2 .9-2 2v33c0 1.1.9 2 2 2h16.5C36.2 45 41 40 41 34c0-2.9-1.1-5.5-2.9-7.5 1.8-2 2.9-4.6 2.9-7.5zM30.5 38H19v-8h11.5c1.9 0 3.6 1.9 3.6 4s-1.7 4-3.6 4zm0-15H19v-8h11.5c1.9 0 3.6 1.9 3.6 4s-1.7 4-3.6 4z"/></svg><view id="bookmark" viewBox="60 20 20 20"/><svg width="20" height="20" viewBox="0 0 52 52" x="60" y="20"><path fill="#fff" d="M37.3 49.6l-9.9-9.9c-.6-.6-1.5-.6-2.1 0l-10.6 10c-.7.6-1.7.2-1.7-.7V6c0-2.2 1.8-4 4-4h18c2.2 0 4 1.8 4 4v42.9c0 .9-1.1 1.4-1.7.7z"/></svg><view id="brush" viewBox="60 40 20 20"/><svg width="20" height="20" viewBox="0 0 52 52" x="60" y="40"><path d="M49.4 2.7C46-.8 27 10 15.4 28.6c-.5.9-.2 2 .7 2.4 2.6 1.2 4.7 3.4 5.8 6.1.4 1 1.5 1.3 2.4.7 18-11.9 28.5-31.6 25.1-35.1zM11.9 35.2C10.4 35.2 9 36 8 37h-.1c-.5 0-1 .8-1.4 1.5-1.6 2.7-1.9 5.9-4.3 9.4-.4.6-.3 1.5.4 1.7 3.4 1.1 9.5.1 12.5-2.1v.1c1-.2.7-.6 1-.6 1.1-2 2-3 2-4.9-.1-3.7-2.7-6.9-6.2-6.9z" fill="#fff"/></svg><view id="bucket" viewBox="0 60 20 20"/><svg width="20" height="20" viewBox="0 0 52 52" y="60"><path fill="#fff" d="M49 11c0-6.2-9.8-9-19-9s-19 2.8-19 9v.4C2.4 14 1 19.5 1 22.6c0 3 1.5 6.1 4.1 8.3 2.3 1.9 5.1 3 7.9 3.1h.8c6.5-.2 12.9-2.3 14.7-5.9-.9-.7-1.5-1.9-1.5-3.1 0-2.2 1.8-4 4-4s4 1.8 4 4c0 1.7-1 3.1-2.5 3.7-2 5.6-10 9.3-19.5 9.3v6c0 3.3 7.6 6 17 6s17-2.7 17-6V15.3c1.3-1.2 2-2.6 2-4.3zM30 8c6.6 0 10.8 1.5 12.4 2.6.3.2.3.6 0 .8C40.8 12.5 36.6 14 30 14s-10.8-1.5-12.4-2.6c-.3-.2-.3-.6 0-.8C19.2 9.5 23.4 8 30 8zM7.7 27.8C6 26.4 5 24.5 5 22.6c0-4.5 4.1-6.6 7.7-7.5l.3.3V30c-1.9-.1-3.8-.9-5.3-2.2z"/></svg><view id="builder" viewBox="20 60 20 20"/><svg width="20" height="20" viewBox="0 0 52 52" x="20" y="60"><path d="M11.5 17h-8c-.8 0-1.5.7-1.5 1.5V44c0 2.2 1.8 4 4 4h5.5c.8 0 1.5-.7 1.5-1.5v-28c0-.8-.7-1.5-1.5-1.5zm37 0h-30c-.8 0-1.5.7-1.5 1.5v28c0 .8.7 1.5 1.5 1.5H46c2.2 0 4-1.8 4-4V18.5c0-.8-.7-1.5-1.5-1.5zM46 4H6C3.8 4 2 5.8 2 8v3.5c0 .8.7 1.5 1.5 1.5h45c.8 0 1.5-.7 1.5-1.5V8c0-2.2-1.8-4-4-4z" fill="#fff"/></svg><view id="call" viewBox="40 60 20 20"/><svg width="20" height="20" viewBox="0 0 52 52" x="40" y="60"><path fill="#fff" d="M48.5 37.9L42.4 33c-1.4-1.1-3.4-1.2-4.8-.1l-5.2 3.8c-.6.5-1.5.4-2.1-.2l-7.8-7-7-7.8c-.6-.6-.6-1.4-.2-2.1l3.8-5.2c1.1-1.4 1-3.4-.1-4.8l-4.9-6.1c-1.5-1.8-4.2-2-5.9-.3L3 8.4c-.8.8-1.2 1.9-1.2 3 .5 10.2 5.1 19.9 11.9 26.7S30.2 49.5 40.4 50c1.1.1 2.2-.4 3-1.2l5.2-5.2c1.9-1.5 1.8-4.3-.1-5.7z"/></svg><view id="capslock" viewBox="60 60 20 20"/><svg width="20" height="20" viewBox="0 0 52 52" x="60" y="60"><path d="M43.6 21.1L27.2 2.5c-.6-.7-1.8-.7-2.4 0L8.4 21.1c-.6.7-.1 1.9.9 1.9H17v12.5c0 .8.7 1.5 1.5 1.5h15c.8 0 1.5-.7 1.5-1.5V23h7.7c1 0 1.5-1.2.9-1.9zM33.5 43h-15c-.8 0-1.5.7-1.5 1.5v4c0 .8.7 1.5 1.5 1.5h15c.8 0 1.5-.7 1.5-1.5v-4c0-.8-.7-1.5-1.5-1.5z" fill="#fff"/></svg><view id="cases" viewBox="80 0 20 20"/><svg width="20" height="20" viewBox="0 0 52 52" x="80"><path d="M9 3.5C9 2.7 8.3 2 7.5 2h-4C2.7 2 2 2.7 2 3.5v31c0 .8.7 1.5 1.5 1.5h4c.8 0 1.5-.7 1.5-1.5v-31zm41 0c0-.8-.7-1.5-1.5-1.5h-4c-.8 0-1.5.7-1.5 1.5v31c0 .8.7 1.5 1.5 1.5h4c.8 0 1.5-.7 1.5-1.5v-31zM37.5 2h-3c-.8 0-1.5.8-1.5 1.6V16c0 .4.2.7.6.9 1.7.9 3.2 2 4.5 3.3.3.3.9.1.9-.3V3.6c0-.8-.7-1.6-1.5-1.6zM24.1 15.2c.6-.1 1.3-.1 1.9-.1s1.3 0 1.9.1 1.1-.4 1.1-1V3.6c0-.8-.7-1.6-1.5-1.6h-3c-.8 0-1.5.8-1.5 1.6v10.6c0 .6.5 1.1 1.1 1zm-10.2 5c1.3-1.4 2.9-2.5 4.6-3.3.3-.2.5-.5.5-.9V3.6c0-.8-.7-1.6-1.5-1.6h-3c-.8 0-1.5.8-1.5 1.6v16.3c0 .4.5.6.9.3zM26 19.1c-7.2 0-13 5.8-13 13 0 2.2.6 4.4 1.6 6.2l-7.1 7.1c-.6.6-.6 1.5 0 2.1l2.1 2.1c.6.6 1.5.6 2.1 0l6.9-6.9c2.1 1.5 4.7 2.4 7.4 2.4 7.2 0 13-5.8 13-13s-5.8-13-13-13zm0 20c-3.9 0-7-3.1-7-7s3.1-7 7-7 7 3.1 7 7-3.1 7-7 7z" fill="#fff"/></svg><view id="center_align_text" viewBox="80 20 20 20"/><svg width="20" height="20" viewBox="0 0 52 52" x="80" y="20"><path fill="#fff" d="M48 6.5c0-.8-.7-1.5-1.5-1.5h-41C4.7 5 4 5.7 4 6.5v3c0 .8.7 1.5 1.5 1.5h41c.8 0 1.5-.7 1.5-1.5v-3zm-6 12c0-.8-.7-1.5-1.5-1.5h-29c-.8 0-1.5.7-1.5 1.5v3c0 .8.7 1.5 1.5 1.5h29c.8 0 1.5-.7 1.5-1.5v-3zm-2 24c0-.8-.7-1.5-1.5-1.5h-25c-.8 0-1.5.7-1.5 1.5v3c0 .8.7 1.5 1.5 1.5h25c.8 0 1.5-.7 1.5-1.5v-3zm8-12c0-.8-.7-1.5-1.5-1.5h-41c-.8 0-1.5.7-1.5 1.5v3c0 .8.7 1.5 1.5 1.5h41c.8 0 1.5-.7 1.5-1.5v-3z"/></svg><view id="chart" viewBox="80 40 20 20"/><svg width="20" height="20" viewBox="0 0 52 52" x="80" y="40"><path d="M45.5 23.4L25 34.7c-1.4.7-3-.3-3-1.8V8.4c0-1-1-1.8-1.9-1.5-10 2.8-17.2 12.5-16 23.6 1.1 10.1 9.2 18.3 19.4 19.4C36.8 51.3 48 41 48 28c0-1.2-.1-2.4-.3-3.6-.2-1-1.3-1.5-2.2-1zM27.7 28l19.7-10.5c1.2-.6 1.6-2.2.8-3.3C43.7 8 36.7 3.5 28.7 2.2 27.3 1.9 26 3 26 4.4V27c0 .9.9 1.4 1.7 1z" fill="#fff"/></svg><view id="chat" viewBox="80 60 20 20"/><svg width="20" height="20" viewBox="0 0 52 52" x="80" y="60"><path fill="#fff" d="M26 4C12.7 4 2.1 13.8 2.1 25.9c0 3.8 1.1 7.4 2.9 10.6.3.5.4 1.1.2 1.7l-3.1 8.5c-.3.8.5 1.5 1.3 1.3l8.6-3.3c.5-.2 1.1-.1 1.7.2 3.6 2 7.9 3.2 12.5 3.2C39.3 48 50 38.3 50 26.1 49.9 13.8 39.2 4 26 4zM14 30c-2.2 0-4-1.8-4-4s1.8-4 4-4 4 1.8 4 4-1.8 4-4 4zm12 0c-2.2 0-4-1.8-4-4s1.8-4 4-4 4 1.8 4 4-1.8 4-4 4zm12 0c-2.2 0-4-1.8-4-4s1.8-4 4-4 4 1.8 4 4-1.8 4-4 4z"/></svg><view id="check" viewBox="0 80 20 20"/><svg width="20" height="20" viewBox="0 0 52 52" y="80"><path fill="#fff" d="M19.1 42.5L2.6 25.9c-.6-.6-.6-1.6 0-2.2l2.2-2.2c.6-.6 1.6-.6 2.2 0L19.4 34c.4.4 1.1.4 1.5 0L45.2 9.5c.6-.6 1.6-.6 2.2 0l2.2 2.2c.6.6.6 1.6 0 2.2L21.3 42.5c-.6.7-1.6.7-2.2 0z"/></svg><view id="checkin" viewBox="20 80 20 20"/><svg width="20" height="20" viewBox="0 0 52 52" x="20" y="80"><path fill="#fff" d="M26 2C15.5 2 7 10.5 7 21.1c0 13.2 13.6 25.3 17.8 28.5.7.6 1.7.6 2.5 0C31.5 46.3 45 34.3 45 21.1 45 10.5 36.5 2 26 2zm0 27c-4.4 0-8-3.6-8-8s3.6-8 8-8 8 3.6 8 8-3.6 8-8 8z"/></svg><view id="chevrondown" viewBox="40 80 20 20"/><svg width="20" height="20" viewBox="0 0 52 52" x="40" y="80"><path fill="#fff" d="M47.6 17.8L27.1 38.5c-.6.6-1.6.6-2.2 0L4.4 17.8c-.6-.6-.6-1.6 0-2.2l2.2-2.2c.6-.6 1.6-.6 2.2 0l16.1 16.3c.6.6 1.6.6 2.2 0l16.1-16.2c.6-.6 1.6-.6 2.2 0l2.2 2.2c.5.6.5 1.5 0 2.1z"/></svg><view id="chevronleft" viewBox="60 80 20 20"/><svg width="20" height="20" viewBox="0 0 52 52" x="60" y="80"><path fill="#fff" d="M34.2 47.7L13.4 27.2c-.6-.6-.6-1.6 0-2.2L34.2 4.5c.6-.6 1.6-.6 2.2 0l2.2 2.2c.6.6.6 1.6 0 2.2L22.1 25c-.6.6-.6 1.6 0 2.2l16.3 16.1c.6.6.6 1.6 0 2.2l-2.2 2.2c-.5.5-1.4.5-2 0z"/></svg><view id="chevronright" viewBox="80 80 20 20"/><svg width="20" height="20" viewBox="0 0 52 52" x="80" y="80"><path fill="#fff" d="M17.9 4.4l20.7 20.5c.6.6.6 1.6 0 2.2L17.9 47.6c-.6.6-1.6.6-2.2 0l-2.2-2.2c-.6-.6-.6-1.6 0-2.2l16.3-16.1c.6-.6.6-1.6 0-2.2L13.6 8.8c-.6-.6-.6-1.6 0-2.2l2.2-2.2c.6-.5 1.5-.5 2.1 0z"/></svg><view id="chevronup" viewBox="100 0 20 20"/><svg width="20" height="20" viewBox="0 0 52 52" x="100"><path fill="#fff" d="M4.4 34.2l20.5-20.7c.6-.6 1.6-.6 2.2 0l20.5 20.7c.6.6.6 1.6 0 2.2l-2.2 2.2c-.6.6-1.6.6-2.2 0L27.1 22.2c-.6-.6-1.6-.6-2.2 0L8.8 38.5c-.6.6-1.6.6-2.2 0l-2.2-2.2c-.5-.6-.5-1.5 0-2.1z"/></svg><view id="clear" viewBox="100 20 20 20"/><svg width="20" height="20" viewBox="0 0 52 52" x="100" y="20"><path fill="#fff" d="M26 2C12.7 2 2 12.7 2 26s10.7 24 24 24 24-10.7 24-24S39.3 2 26 2zm4.9 24.8l7.8 7.8c.4.4.4 1 0 1.4l-2.8 2.8c-.4.4-1 .4-1.4 0L26.7 31c-.4-.4-1-.4-1.4 0l-7.8 7.8c-.4.4-1 .4-1.4 0L13.3 36c-.4-.4-.4-1 0-1.4l7.8-7.8c.4-.4.4-1 0-1.4l-7.9-7.9c-.4-.4-.4-1 0-1.4l2.8-2.8c.4-.4 1-.4 1.4 0l7.9 7.9c.4.4 1 .4 1.4 0l7.8-7.8c.4-.4 1-.4 1.4 0l2.8 2.8c.4.4.4 1 0 1.4l-7.8 7.8c-.3.4-.3 1 0 1.4z"/></svg><view id="clock" viewBox="100 40 20 20"/><svg width="20" height="20" viewBox="0 0 52 52" x="100" y="40"><path d="M26 2C12.8 2 2 12.8 2 26s10.8 24 24 24 24-10.8 24-24S39.2 2 26 2zm0 42c-9.9 0-18-8.1-18-18S16.1 8 26 8s18 8.1 18 18-8.1 18-18 18zm3.4-17.8c-.3-.3-.4-.7-.4-1.1v-9.6c0-.8-.7-1.5-1.5-1.5h-3c-.8 0-1.5.7-1.5 1.5v12.1c0 .4.2.8.4 1.1l7.4 7.4c.6.6 1.5.6 2.1 0L35 34c.6-.6.6-1.5 0-2.1l-5.6-5.7z" fill="#fff"/></svg><view id="close" viewBox="100 60 20 20"/><svg width="20" height="20" viewBox="0 0 52 52" x="100" y="60"><path fill="#fff" d="M31 25.4l13-13.1c.6-.6.6-1.5 0-2.1l-2-2.1c-.6-.6-1.5-.6-2.1 0L26.8 21.2c-.4.4-1 .4-1.4 0L12.3 8c-.6-.6-1.5-.6-2.1 0l-2.1 2.1c-.6.6-.6 1.5 0 2.1l13.1 13.1c.4.4.4 1 0 1.4L8 39.9c-.6.6-.6 1.5 0 2.1l2.1 2.1c.6.6 1.5.6 2.1 0L25.3 31c.4-.4 1-.4 1.4 0l13.1 13.1c.6.6 1.5.6 2.1 0L44 42c.6-.6.6-1.5 0-2.1L31 26.8c-.4-.4-.4-1 0-1.4z"/></svg><view id="comments" viewBox="100 80 20 20"/><svg width="20" height="20" viewBox="0 0 52 52" x="100" y="80"><path fill="#fff" d="M47.8 31c-.1-.4-.1-.8.1-1.2 1.3-2.3 2.1-4.9 2.1-7.7 0-8.8-7.6-16-17-16-4.4 0-8.4 1.6-11.4 4.2C31.9 11.5 40 19.9 40 30.1c0 2.5-.5 4.9-1.4 7.1 1.1-.4 2.2-.9 3.2-1.4.4-.2.8-.3 1.2-.1l6.1 2.4c.6.2 1.1-.3.9-.9L47.8 31zM19 14.1c-9.4 0-17 7.2-17 16 0 2.8.8 5.4 2.1 7.7.2.4.3.8.1 1.2L2 45.1c-.2.6.3 1.1.9.9L9 43.6c.4-.1.8-.1 1.2.1 2.6 1.5 5.6 2.3 8.8 2.3 9.4 0 17-7.2 17-16 0-8.7-7.6-15.9-17-15.9z"/></svg><view id="company" viewBox="0 100 20 20"/><svg width="20" height="20" viewBox="0 0 52 52" y="100"><path fill="#fff" d="M21 4H7C5.3 4 4 5.3 4 7v40c0 .5.5 1 1 1h4c.6 0 1-.4 1-1v-6c0-.6.4-1 1-1h6c.6 0 1 .4 1 1v6c0 .6.4 1 1 1h3c1.1 0 2-.9 2-2V7c0-1.7-1.3-3-3-3zm-9 31.5c0 .3-.2.5-.5.5h-3c-.3 0-.5-.2-.5-.5v-5c0-.3.2-.5.5-.5h3c.3 0 .5.2.5.5v5zm0-10c0 .3-.2.5-.5.5h-3c-.3 0-.5-.2-.5-.5v-5c0-.3.2-.5.5-.5h3c.3 0 .5.2.5.5v5zm0-10c0 .3-.2.5-.5.5h-3c-.3 0-.5-.2-.5-.5v-5c0-.3.2-.5.5-.5h3c.3 0 .5.2.5.5v5zm8 20c0 .3-.2.5-.5.5h-3c-.3 0-.5-.2-.5-.5v-5c0-.3.2-.5.5-.5h3c.3 0 .5.2.5.5v5zm0-10c0 .3-.2.5-.5.5h-3c-.3 0-.5-.2-.5-.5v-5c0-.3.2-.5.5-.5h3c.3 0 .5.2.5.5v5zm0-10c0 .3-.2.5-.5.5h-3c-.3 0-.5-.2-.5-.5v-5c0-.3.2-.5.5-.5h3c.3 0 .5.2.5.5v5zM45 14H31c-1.7 0-3 1.3-3 3v30c0 .5.5 1 1 1h4c.6 0 1-.4 1-1v-6c0-.6.4-1 1-1h6c.6 0 1 .4 1 1v6c0 .6.4 1 1 1h3c1.1 0 2-.9 2-2V17c0-1.7-1.3-3-3-3zm-9 21.5c0 .3-.2.5-.5.5h-3c-.3 0-.5-.2-.5-.5v-5c0-.3.2-.5.5-.5h3c.3 0 .5.2.5.5v5zm0-10c0 .3-.2.5-.5.5h-3c-.3 0-.5-.2-.5-.5v-5c0-.3.2-.5.5-.5h3c.3 0 .5.2.5.5v5zm8 10c0 .3-.2.5-.5.5h-3c-.3 0-.5-.2-.5-.5v-5c0-.3.2-.5.5-.5h3c.3 0 .5.2.5.5v5zm0-10c0 .3-.2.5-.5.5h-3c-.3 0-.5-.2-.5-.5v-5c0-.3.2-.5.5-.5h3c.3 0 .5.2.5.5v5z"/></svg><view id="connected_apps" viewBox="20 100 20 20"/><svg width="20" height="20" viewBox="0 0 52 52" x="20" y="100"><path fill="#fff" d="M23.8 31.2L20 48.8c-.2 1 1.1 1.7 1.7.9l21-26c.6-.7.1-1.7-.7-1.7H30.8c-.8 0-1.3-.9-.9-1.5l9.9-16.2c.6-1-.1-2.3-1.3-2.3H20.8c-1.1 0-2 .7-2.4 1.7L10.1 28c-.3 1 .4 2 1.4 2h11.4c.6 0 1.1.6.9 1.2z"/></svg><view id="contract" viewBox="40 100 20 20"/><svg width="20" height="20" viewBox="0 0 52 52" x="40" y="100"><path fill="#fff" d="M29.6 24H45c1 0 1.3-1.1.5-1.9l-4.9-5 9-9.1c.5-.5.5-1.4 0-1.9l-3.7-3.7c-.5-.4-1.3-.4-1.9.1l-9 9-5.1-4.9c-.8-.8-1.9-.5-1.9.5v15.4c0 .7.9 1.5 1.6 1.5zm-7.2 4H7c-1 0-1.3 1.1-.5 1.9l4.9 5-9 9.1c-.5.5-.5 1.4 0 1.9l3.7 3.7c.5.5 1.3.5 1.9 0l9.1-9.1 5.1 4.9c.7.9 1.8.6 1.8-.4V29.7c0-.7-.9-1.7-1.6-1.7zm5.6 1.6V45c0 1 1.1 1.3 1.9.5l5-4.9 9.1 9c.5.5 1.4.5 1.9 0l3.7-3.7c.4-.5.4-1.3-.1-1.9l-9-9 4.9-5.1c.8-.8.5-1.9-.5-1.9H29.5c-.7 0-1.5.9-1.5 1.6zm-4-7.2V7c0-1-1.1-1.3-1.9-.5l-5 4.9-9.1-9c-.5-.5-1.4-.5-1.9 0L2.4 6.1c-.5.5-.5 1.3 0 1.9l9.1 9.1-4.9 5.1c-.9.7-.6 1.8.4 1.8h15.3c.7 0 1.7-.9 1.7-1.6z"/></svg><view id="contract_alt" viewBox="60 100 20 20"/><svg width="20" height="20" viewBox="0 0 52 52" x="60" y="100"><path fill="#fff" d="M29.6 23.9H45c1 0 1.3-1.1.5-1.9l-4.9-5 9-9.1c.5-.5.5-1.4 0-1.9l-3.7-3.7c-.5-.4-1.3-.4-1.9.1l-9 9-5.1-4.9C29.1 5.7 28 6 28 7v15.4c0 .7.9 1.5 1.6 1.5zM22.4 28H7c-1 0-1.3 1.1-.5 1.9l4.9 5-9 9.1c-.5.5-.5 1.4 0 1.9l3.7 3.7c.5.5 1.3.5 1.9 0l9.1-9.1 5.1 4.9c.7.9 1.8.6 1.8-.4V29.7c0-.7-.9-1.7-1.6-1.7z"/></svg><view id="copy" viewBox="80 100 20 20"/><svg width="20" height="20" viewBox="0 0 52 52" x="80" y="100"><path fill="#fff" d="M44 2H18c-2.2 0-4 1.8-4 4v2h24c2.2 0 4 1.8 4 4v28h2c2.2 0 4-1.8 4-4V6c0-2.2-1.8-4-4-4zm-6 14c0-2.2-1.8-4-4-4H8c-2.2 0-4 1.8-4 4v30c0 2.2 1.8 4 4 4h26c2.2 0 4-1.8 4-4V16zm-18 7c0 .6-.4 1-1 1h-8c-.6 0-1-.4-1-1v-2c0-.6.4-1 1-1h8c.6 0 1 .4 1 1v2zm8 16c0 .6-.4 1-1 1H11c-.6 0-1-.4-1-1v-2c0-.6.4-1 1-1h16c.6 0 1 .4 1 1v2zm4-8c0 .6-.4 1-1 1H11c-.6 0-1-.4-1-1v-2c0-.6.4-1 1-1h20c.6 0 1 .4 1 1v2z"/></svg><view id="crossfilter" viewBox="100 100 20 20"/><svg width="20" height="20" viewBox="0 0 52 52" x="100" y="100"><path fill="#fff" d="M35 9c-1.7 0-3.3.2-4.8.7 1.8 1.5 3.4 3.3 4.7 5.3h.1c6.1 0 11 4.9 11 11s-4.9 11-11 11c-1.5 0-3-.3-4.3-.9.8-1.1 1.5-2.3 2-3.5.2-.5.4-.9.5-1.4.5-1.6.8-3.4.8-5.2 0-9.4-7.6-17-17-17S0 16.6 0 26s7.6 17 17 17c1.7 0 3.3-.2 4.8-.7-1.8-1.5-3.4-3.3-4.7-5.3H17c-6.1 0-11-4.9-11-11s4.9-11 11-11c1.5 0 3 .3 4.4.9C19.3 18.7 18 22.2 18 26c0 9.4 7.6 17 17 17s17-7.6 17-17S44.4 9 35 9z"/></svg><view id="custom_apps" viewBox="120 0 20 20"/><svg width="20" height="20" viewBox="0 0 52 52" x="120"><path fill="#fff" d="M49.4 12.2c-.2-.6-.9-.7-1.4-.3L39.9 20c-.6.6-1.6.6-2.2 0L32 14.3c-.6-.6-.6-1.6 0-2.2L40.2 4c.4-.4.2-1.1-.3-1.4-1.4-.4-2.9-.6-4.3-.6-8.5 0-15.3 7.3-14.3 16 .2 1.4.5 2.6 1 3.8L3.6 40.4c-2.2 2.2-2.2 5.8 0 7.9 1.1 1.1 2.6 1.7 4 1.7s2.9-.6 4-1.7l18.6-18.6c1.2.5 2.5.8 3.8 1 8.7 1 16-5.8 16-14.3 0-1.5-.2-2.9-.6-4.2z"/></svg><view id="cut" viewBox="120 20 20 20"/><svg width="20" height="20" viewBox="0 0 52 52" x="120" y="20"><path d="M40.7 31.4c-1.7-.4-3.3-.2-4.7.3L13.9 2.4c-.3-.4-1-.5-1.4-.2l-.8.6c-1.7 1.3-2 3.8-.7 5.6l10.6 14c.4.5.4 1.3 0 1.8l-5.7 7.5c-1.4-.5-3.1-.6-4.7-.3-3.7.8-6.6 3.8-7.1 7.5-.8 5.9 4.4 11 10.5 10 3.6-.6 6.5-3.4 7.3-6.9.5-2.5 0-4.8-1.2-6.5l4.2-5.6c.6-.8 1.8-.8 2.4 0l4.2 5.6c-1.2 1.9-1.7 4.2-1.2 6.5.7 3.6 3.7 6.3 7.3 6.9 6.1 1 11.3-4.1 10.5-10-.9-3.8-3.8-6.8-7.4-7.5zM12.9 43.1c-1.7 0-3-1.3-3-3s1.3-3 3-3 3 1.3 3 3-1.3 3-3 3zm26 0c-1.7 0-3-1.3-3-3s1.3-3 3-3 3 1.3 3 3c-.1 1.7-1.4 3-3 3zm-7.6-24.2c.4.5 1.2.5 1.6 0l8-10.5c1.1-1.5 1-3.5-.1-4.9l.1-.1-.1.1c-.2-.3-1.5-1.3-1.5-1.3-.4-.3-1.1-.2-1.4.2l-8.8 11.7c-.4.5-.4 1.3 0 1.8l2.2 3z" fill="#fff"/></svg><view id="dash" viewBox="120 40 20 20"/><svg width="20" height="20" viewBox="0 0 52 52" x="120" y="40"><path fill="#fff" d="M50 27.5c0 .8-.7 1.5-1.5 1.5h-45c-.8 0-1.5-.7-1.5-1.5v-3c0-.8.7-1.5 1.5-1.5h45c.8 0 1.5.7 1.5 1.5v3z"/></svg><view id="dayview" viewBox="120 60 20 20"/><svg width="20" height="20" viewBox="0 0 52 52" x="120" y="60"><path fill="#fff" d="M44 7h-5V5c0-1.6-1.3-3-3-3-1.6 0-3 1.3-3 3v2H19V5c0-1.6-1.3-3-3-3-1.6 0-3 1.3-3 3v2H8c-2.2 0-4 1.8-4 4v2.5c0 .8.7 1.5 1.5 1.5h41c.8 0 1.5-.7 1.5-1.5V11c0-2.2-1.8-4-4-4zm2.5 13h-41c-.8 0-1.5.7-1.5 1.5V46c0 2.2 1.8 4 4 4h36c2.2 0 4-1.8 4-4V21.5c0-.8-.7-1.5-1.5-1.5zM29 42v.2c0 .8-1 1.8-2 1.8s-2-1-2-2V32l-1.5 1.6c-.3.3-.6.4-1 .4-.8 0-1.5-.7-1.5-1.5 0-.4.2-.8.5-1.1l3.9-3.9c.4-.4.9-.6 1.5-.6 1.1 0 2.1.9 2.1 2V42z"/></svg><view id="delete" viewBox="120 80 20 20"/><svg width="20" height="20" viewBox="0 0 52 52" x="120" y="80"><path d="M45.5 10H33V6c0-2.2-1.8-4-4-4h-6c-2.2 0-4 1.8-4 4v4H6.5c-.8 0-1.5.7-1.5 1.5v3c0 .8.7 1.5 1.5 1.5h39c.8 0 1.5-.7 1.5-1.5v-3c0-.8-.7-1.5-1.5-1.5zM23 7c0-.6.4-1 1-1h4c.6 0 1 .4 1 1v3h-6V7zm18.5 13h-31c-.8 0-1.5.7-1.5 1.5V45c0 2.8 2.2 5 5 5h24c2.8 0 5-2.2 5-5V21.5c0-.8-.7-1.5-1.5-1.5zM23 42c0 .6-.4 1-1 1h-2c-.6 0-1-.4-1-1V28c0-.6.4-1 1-1h2c.6 0 1 .4 1 1v14zm10 0c0 .6-.4 1-1 1h-2c-.6 0-1-.4-1-1V28c0-.6.4-1 1-1h2c.6 0 1 .4 1 1v14z" fill="#fff"/></svg><view id="deprecate" viewBox="120 100 20 20"/><svg width="20" height="20" viewBox="0 0 52 52" x="120" y="100"><path fill="#fff" d="M48 7H4c-1.1 0-2 .9-2 2v26c0 1.1.9 2 2 2h16.2c1 5.7 5.9 10 11.8 10s10.9-4.3 11.8-10H48c1.1 0 2-.9 2-2V9c0-1.1-.9-2-2-2zm-8.6 32.6l-2.8 2.8-4.6-4.6-4.6 4.6-2.8-2.8 4.6-4.6-4.6-4.6 2.8-2.8 4.6 4.6 4.6-4.6 2.8 2.8-4.6 4.6 4.6 4.6zM46 33h-2.2c-1-5.7-5.9-10-11.8-10s-10.9 4.3-11.8 10H6V11h40v22z"/></svg><view id="desktop" viewBox="0 120 20 20"/><svg width="20" height="20" viewBox="0 0 52 52" y="120"><path d="M50 6c0-2.2-1.8-4-4-4H6C3.8 2 2 3.8 2 6v26c0 2.2 1.8 4 4 4h40c2.2 0 4-1.8 4-4V6zm-6 22.5c0 .8-.7 1.5-1.5 1.5h-33c-.8 0-1.5-.7-1.5-1.5v-19C8 8.7 8.7 8 9.5 8h33c.8 0 1.5.7 1.5 1.5v19zM33 44h-3c-.6 0-1-.4-1-1v-2c0-.6-.4-1-1-1h-4c-.6 0-1 .4-1 1v2c0 .6-.4 1-1 1h-3c-2.2 0-4 1.8-4 4v.5c0 .8.7 1.5 1.5 1.5h19c.8 0 1.5-.7 1.5-1.5V48c0-2.2-1.8-4-4-4z" fill="#fff"/></svg><view id="down" viewBox="20 120 20 20"/><svg width="20" height="20" viewBox="0 0 52 52" x="20" y="120"><path fill="#fff" d="M8.3 14h35.4c1 0 1.7 1.3.9 2.2L27.3 37.4c-.6.8-1.9.8-2.5 0L7.3 16.2c-.7-.9-.1-2.2 1-2.2z"/></svg><view id="download" viewBox="40 120 20 20"/><svg width="20" height="20" viewBox="0 0 52 52" x="40" y="120"><path d="M48.5 31h-3c-.8 0-1.5.7-1.5 1.5v10c0 .8-.7 1.5-1.5 1.5h-33c-.8 0-1.5-.7-1.5-1.5v-10c0-.8-.7-1.5-1.5-1.5h-3c-.8 0-1.5.7-1.5 1.5V46c0 2.2 1.8 4 4 4h40c2.2 0 4-1.8 4-4V32.5c0-.8-.7-1.5-1.5-1.5zM25 37.6c.6.6 1.5.6 2.1 0l13.5-13.5c.6-.6.6-1.5 0-2.1l-2.1-2.1c-.6-.6-1.5-.6-2.1 0l-5.6 5.6c-.6.6-1.7.2-1.7-.7V3.5C29 2.7 28.2 2 27.5 2h-3c-.8 0-1.5.7-1.5 1.5v21.2c0 .9-1.1 1.3-1.7.7l-5.6-5.6c-.6-.6-1.5-.6-2.1 0L11.5 22c-.6.6-.6 1.5 0 2.1L25 37.6z" fill="#fff"/></svg><view id="edit" viewBox="60 120 20 20"/><svg width="20" height="20" viewBox="0 0 52 52" x="60" y="120"><path d="M9.5 33.4l8.9 8.9c.4.4 1 .4 1.4 0L42 20c.4-.4.4-1 0-1.4l-8.8-8.8c-.4-.4-1-.4-1.4 0L9.5 32.1c-.4.4-.4 1 0 1.3zM36.1 5.7c-.4.4-.4 1 0 1.4l8.8 8.8c.4.4 1 .4 1.4 0l2.5-2.5c1.6-1.5 1.6-3.9 0-5.5l-4.7-4.7c-1.6-1.6-4.1-1.6-5.7 0l-2.3 2.5zm-34 42.5c-.2 1 .7 1.9 1.7 1.7l10.9-2.6c.4-.1.7-.3.9-.5l.2-.2c.2-.2.3-.9-.1-1.3l-9-9c-.4-.4-1.1-.3-1.3-.1l-.2.2c-.3.3-.4.6-.5.9L2.1 48.2z" fill="#fff"/></svg><view id="email" viewBox="80 120 20 20"/><svg width="20" height="20" viewBox="0 0 52 52" x="80" y="120"><path d="M24.9 30.1c.6.6 1.5.6 2.1 0l22.6-21c.4-.8.3-2.1-1.3-2.1l-44.7.1c-1.2 0-2.2 1.1-1.3 2.1l22.6 20.9zM50 17.3c0-1-1.2-1.6-2-.9L30.3 32.7c-1.2 1.1-2.7 1.7-4.3 1.7s-3.1-.6-4.3-1.6L4.1 16.4c-.8-.7-2-.2-2 .9C2 17 2 40 2 40c0 2.2 1.8 4 4 4h40c2.2 0 4-1.8 4-4V17.3z" fill="#fff"/></svg><view id="end_call" viewBox="100 120 20 20"/><svg width="20" height="20" viewBox="0 0 52 52" x="100" y="120"><path fill="#fff" d="M48.5 5.6l-2.1-2.1c-.6-.6-1.7-.5-2.4.3L20.5 27.3l-5-5.6c-.6-.6-.6-1.4-.2-2.1l3.8-5.2c1.1-1.4 1-3.4-.1-4.8l-4.9-6.1c-1.5-1.8-4.2-2-5.9-.3L3 8.4c-.8.8-1.2 1.9-1.2 3 .5 9.2 4.2 18 10 24.6l-8 8c-.7.7-.8 1.8-.3 2.4l2.1 2.1c.6.6 1.7.5 2.4-.3L48.2 8c.8-.7.9-1.8.3-2.4zm0 32.3L42.4 33c-1.4-1.1-3.4-1.2-4.8-.1l-5.2 3.8c-.6.5-1.5.4-2.1-.2l-2.4-2.2-8.5 8.5c6.1 4.1 13.4 6.8 21 7.2 1.1.1 2.2-.4 3-1.2l5.2-5.2c1.9-1.5 1.8-4.3-.1-5.7z"/></svg><view id="erect_window" viewBox="120 120 20 20"/><svg width="20" height="20" viewBox="0 0 52 52" x="120" y="120"><path fill="#fff" d="M50 6.5c0 .8-.7 1.5-1.5 1.5h-45C2.7 8 2 7.3 2 6.5v-3C2 2.7 2.7 2 3.5 2h45c.8 0 1.5.7 1.5 1.5v3z"/></svg><view id="error" viewBox="140 0 20 20"/><svg width="20" height="20" viewBox="0 0 52 52" x="140"><path d="M26 2C12.8 2 2 12.8 2 26s10.8 24 24 24 24-10.8 24-24S39.2 2 26 2zm0 42c-9.9 0-18-8.1-18-18S16.1 8 26 8s18 8.1 18 18-8.1 18-18 18zm10.4-21H15.6c-.8 0-1.4.6-1.5 1.3-.1 1.1-.1 2.2 0 3.4.1.8.7 1.3 1.5 1.3h20.8c.8 0 1.4-.6 1.5-1.3.1-1.1.1-2.2 0-3.4-.1-.7-.7-1.3-1.5-1.3z" fill="#fff"/></svg><view id="event" viewBox="140 20 20 20"/><svg width="20" height="20" viewBox="0 0 52 52" x="140" y="20"><path d="M46.5 20h-41c-.8 0-1.5.7-1.5 1.5V46c0 2.2 1.8 4 4 4h36c2.2 0 4-1.8 4-4V21.5c0-.8-.7-1.5-1.5-1.5zM19 42c0 .6-.4 1-1 1h-4c-.6 0-1-.4-1-1v-4c0-.6.4-1 1-1h4c.6 0 1 .4 1 1v4zm0-10c0 .6-.4 1-1 1h-4c-.6 0-1-.4-1-1v-4c0-.6.4-1 1-1h4c.6 0 1 .4 1 1v4zm10 10c0 .6-.4 1-1 1h-4c-.6 0-1-.4-1-1v-4c0-.6.4-1 1-1h4c.6 0 1 .4 1 1v4zm0-10c0 .6-.4 1-1 1h-4c-.6 0-1-.4-1-1v-4c0-.6.4-1 1-1h4c.6 0 1 .4 1 1v4zm10 10c0 .6-.4 1-1 1h-4c-.6 0-1-.4-1-1v-4c0-.6.4-1 1-1h4c.6 0 1 .4 1 1v4zm0-10c0 .6-.4 1-1 1h-4c-.6 0-1-.4-1-1v-4c0-.6.4-1 1-1h4c.6 0 1 .4 1 1v4zm5-25h-5V5c0-1.6-1.3-3-3-3-1.6 0-3 1.3-3 3v2H19V5c0-1.6-1.3-3-3-3-1.6 0-3 1.3-3 3v2H8c-2.2 0-4 1.8-4 4v2.5c0 .8.7 1.5 1.5 1.5h41c.8 0 1.5-.7 1.5-1.5V11c0-2.2-1.8-4-4-4z" fill="#fff"/></svg><view id="expand" viewBox="140 40 20 20"/><svg width="20" height="20" viewBox="0 0 52 52" x="140" y="40"><path fill="#fff" d="M48.8 2H33.3c-1 0-1.3.9-.5 1.7l4.9 4.9-9 9c-.5.5-.5 1.3 0 1.9l3.7 3.7c.5.5 1.3.5 1.9 0l9.1-9.1 4.9 4.9c.8.8 1.7.5 1.7-.5V3.1c0-.6-.6-1.1-1.2-1.1zM3.5 50h15.4c1 0 1.3-1.1.5-1.9l-4.9-5 9-9.1c.5-.5.5-1.4 0-1.9l-3.7-3.7c-.5-.5-1.3-.5-1.9 0l-9 9-5-4.9C3 31.7 2 32 2 33v15.4c0 .7.8 1.6 1.5 1.6zM50 48.8V33.3c0-1-.9-1.3-1.7-.5l-4.9 4.9-9-9c-.5-.5-1.3-.5-1.9 0l-3.7 3.7c-.5.5-.5 1.3 0 1.9l9.1 9.1-4.9 4.9c-.8.8-.5 1.7.5 1.7h15.4c.6 0 1.1-.6 1.1-1.2zM2 3.5v15.4c0 1 1.1 1.3 1.9.5l5-4.9 9.1 9c.5.5 1.4.5 1.9 0l3.7-3.7c.5-.5.5-1.3 0-1.9l-9-9 4.9-5C20.3 3 20 2 19 2H3.6C2.9 2 2 2.8 2 3.5z"/></svg><view id="expand_alt" viewBox="140 60 20 20"/><svg width="20" height="20" viewBox="0 0 52 52" x="140" y="60"><path fill="#fff" d="M48.8 2H33.3c-1 0-1.3.9-.5 1.7l4.9 4.9-9 9c-.5.5-.5 1.3 0 1.9l3.7 3.7c.5.5 1.3.5 1.9 0l9.1-9.1 4.9 4.9c.8.8 1.7.5 1.7-.5V3.1c0-.6-.6-1.1-1.2-1.1zM3.5 50h15.4c1 0 1.3-1.1.5-1.9l-4.9-5 9-9.1c.5-.5.5-1.4 0-1.9l-3.7-3.7c-.5-.5-1.3-.5-1.9 0l-9 9-5-4.9C3 31.7 2 32 2 33v15.4c0 .7.8 1.6 1.5 1.6z"/></svg><view id="favorite" viewBox="140 80 20 20"/><svg width="20" height="20" viewBox="0 0 52 52" x="140" y="80"><path fill="#fff" d="M27.4 4.1l4.6 14c.2.6.8.9 1.4.9h15c1.5 0 2.1 2 .9 2.9l-12.2 9c-.5.4-.7 1.1-.5 1.7L41.4 47c.4 1.4-1.1 2.6-2.3 1.7L27 39.9c-.5-.4-1.2-.4-1.8 0L13 48.7c-1.2.9-2.8-.3-2.3-1.7l4.6-14.4c.2-.6 0-1.3-.5-1.7l-12.2-9c-1.2-.9-.5-2.9.9-2.9h15c.7 0 1.2-.2 1.4-.9L24.6 4c.4-1.4 2.4-1.3 2.8.1z"/></svg><view id="filter" viewBox="140 100 20 20"/><svg width="20" height="20" viewBox="0 0 52 52" x="140" y="100"><path d="M24.4 31.8c-.6-.6-1.5-.6-2.1 0l-3.6 3.6c-.6.6-1.7.2-1.7-.7V21.5c0-.8-.7-1.5-1.5-1.5h-3c-.8 0-1.5.7-1.5 1.5v13.2c0 .9-1.1 1.3-1.7.7l-3.6-3.6c-.6-.6-1.5-.6-2.1 0L1.4 34c-.6.6-.6 1.5 0 2.1l11.5 11.5c.6.6 1.5.6 2.1 0L26.6 36c.6-.6.6-1.5 0-2.1l-2.2-2.1zM51 9.5c0-.8-.7-1.5-1.5-1.5h-37c-.8 0-1.5.7-1.5 1.5v3c0 .8.7 1.5 1.5 1.5h37c.8 0 1.5-.7 1.5-1.5v-3zm0 12c0-.8-.7-1.5-1.5-1.5h-27c-.8 0-1.5.7-1.5 1.5v3c0 .8.7 1.5 1.5 1.5h27c.8 0 1.5-.7 1.5-1.5v-3zm0 12c0-.8-.7-1.5-1.5-1.5h-17c-.8 0-1.5.7-1.5 1.5v3c0 .8.7 1.5 1.5 1.5h17c.8 0 1.5-.7 1.5-1.5v-3z" fill="#fff"/></svg><view id="filterList" viewBox="140 120 20 20"/><svg width="20" height="20" viewBox="0 0 52 52" x="140" y="120"><path fill="#fff" d="M48.3 4H3.9C2.4 4 1.7 5.7 2.6 6.8L22 29.5c.6.7.9 1.7.9 2.6v14.4c0 .8.8 1.5 1.6 1.5h3c.8 0 1.4-.7 1.4-1.5V32.1c0-1 .4-1.9 1.1-2.6L49.6 6.8c.9-1.1.2-2.8-1.3-2.8z"/></svg><view id="forward" viewBox="0 140 20 20"/><svg width="20" height="20" viewBox="0 0 52 52" y="140"><path fill="#fff" d="M3.4 29h33.2c.9 0 1.3 1.1.7 1.7l-9.6 9.6c-.6.6-.6 1.5 0 2.1l2.2 2.2c.6.6 1.5.6 2.1 0L49.5 27c.6-.6.6-1.5 0-2.1L32 7.4c-.6-.6-1.5-.6-2.1 0l-2.1 2.1c-.6.6-.6 1.5 0 2.1l9.6 9.6c.6.7.2 1.8-.7 1.8H3.5c-.8 0-1.5.6-1.5 1.4v3c0 .8.6 1.6 1.4 1.6z"/></svg><view id="frozen" viewBox="20 140 20 20"/><svg width="20" height="20" viewBox="0 0 52 52" x="20" y="140"><path fill="#fff" d="M48.5 23h-7.2l4.4-4.4c.5-.5.5-1.2 0-1.6L44 15.3c-.5-.5-1.2-.5-1.6 0L34.7 23H29v-5.7l7.7-7.7c.5-.5.5-1.2 0-1.6L35 6.3c-.5-.5-1.2-.5-1.6 0L29 10.7V3.5c0-.8-.7-1.5-1.5-1.5h-3c-.8 0-1.5.7-1.5 1.5v7.2l-4.4-4.4c-.5-.5-1.2-.5-1.6 0L15.3 8c-.5.5-.5 1.2 0 1.6l7.7 7.7V23h-5.7l-7.7-7.7c-.5-.5-1.2-.5-1.6 0L6.3 17c-.5.5-.5 1.2 0 1.6l4.4 4.4H3.5c-.8 0-1.5.7-1.5 1.5v3c0 .8.7 1.5 1.5 1.5h7.2l-4.4 4.4c-.5.5-.5 1.2 0 1.6l1.6 1.6c.5.5 1.2.5 1.6 0l7.7-7.7H23v5.6l-7.7 7.7c-.5.5-.5 1.2 0 1.6l1.6 1.6c.5.5 1.3.5 1.7 0L23 41v7.2c0 .8.6 1.7 1.4 1.7h3c.8 0 1.6-.9 1.6-1.7V41l4.4 4.4c.5.5 1.2.5 1.6 0l1.6-1.6c.5-.5.5-1.2 0-1.6L29 34.7V29h5.7l7.7 7.7c.5.5 1.2.5 1.6 0l1.6-1.6c.5-.5.5-1.2 0-1.6L41.3 29h7.2c.8 0 1.5-.7 1.5-1.5v-3c0-.8-.7-1.5-1.5-1.5z"/></svg><view id="groups" viewBox="40 140 20 20"/><svg width="20" height="20" viewBox="0 0 52 52" x="40" y="140"><path d="M15.9 28c-1.4-2.1-2.1-4.5-2.1-7.2 0-4.6 1.9-8.4 4.9-10.7-1-1.8-3-3.1-5.6-3.1-4.4 0-6.9 3.6-6.9 7.7 0 2.2.7 4.1 2.2 5.4.8.8 1.5 1.8 1.5 2.8s-.4 2-2.9 3.1c-3.6 1.6-6.9 3.8-7 7.1.1 2.2 1.5 3.9 3.6 3.9h3.3c.5 0 1-.3 1.3-.8 1.6-2.9 4.6-4.7 7.1-6 .9-.4 1.1-1.5.6-2.2zm29.2-2c-2.5-1.1-2.9-2-2.9-3.1s.7-2.1 1.5-2.8c1.5-1.4 2.2-3.2 2.2-5.4 0-4.1-2.4-7.7-6.9-7.7-2.6 0-4.6 1.3-5.7 3.1 3 2.3 4.9 6.1 4.9 10.7 0 2.7-.7 5.1-2.1 7.2-.5.8-.2 1.8.6 2.2 2.5 1.2 5.5 3.1 7.1 6 .3.5.8.8 1.3.8h3.3c2.1 0 3.5-1.7 3.5-3.9.1-3.3-3.2-5.5-6.8-7.1zm-12.4 7.3c-2.7-1.2-3.2-2.3-3.2-3.4 0-1.2.8-2.3 1.7-3.1 1.6-1.5 2.5-3.6 2.5-6 0-4.5-2.7-8.4-7.6-8.4s-7.6 3.9-7.6 8.4c0 2.4.9 4.5 2.5 6 .9.9 1.7 2 1.7 3.1 0 1.2-.4 2.2-3.2 3.4-4 1.7-7.8 3.6-7.9 7.2 0 2.4 1.8 4.4 4.1 4.4h20.8c2.3 0 4.1-2 4.1-4.4-.1-3.5-3.9-5.4-7.9-7.2z" fill="#fff"/></svg><view id="help" viewBox="60 140 20 20"/><svg width="20" height="20" viewBox="0 0 52 52" x="60" y="140"><path fill="#fff" d="M28.4 38h-5c-.8 0-1.4-.6-1.4-1.4v-1.5c0-4.2 2.7-8 6.7-9.4 1.2-.4 2.3-1.1 3.2-2.1 5-6 .4-13.2-5.6-13.4-2.2-.1-4.3.7-5.9 2.2-1.3 1.2-2.1 2.7-2.3 4.4-.1.6-.7 1.1-1.5 1.1h-5c-.9 0-1.6-.7-1.5-1.6.4-3.8 2.1-7.2 4.8-9.9 3.2-3 7.3-4.6 11.7-4.5C34.9 2.2 41.7 9 42 17.3c.3 7-4 13.3-10.5 15.7-.9.4-1.5 1.1-1.5 2v1.5c0 .9-.8 1.5-1.6 1.5zM30 48.5c0 .8-.7 1.5-1.5 1.5h-5c-.8 0-1.5-.7-1.5-1.5v-5c0-.8.7-1.5 1.5-1.5h5c.8 0 1.5.7 1.5 1.5v5z"/></svg><view id="home" viewBox="80 140 20 20"/><svg width="20" height="20" viewBox="0 0 52 52" x="80" y="140"><path fill="#fff" d="M49 27h-5v22c0 .6-.4 1-1 1H33c-.6 0-1-.4-1-1V32H20v17c0 .6-.4 1-1 1H9c-.6 0-1-.4-1-1V27H3c-.4 0-.8-.2-.9-.6-.2-.4-.1-.8.2-1.1l23-23c.4-.4 1.1-.4 1.4 0l23 23c.3.3.3.7.2 1.1s-.5.6-.9.6z"/></svg><view id="identity" viewBox="100 140 20 20"/><svg width="20" height="20" viewBox="0 0 52 52" x="100" y="140"><path d="M46 8H34.9s.1.7.1 1c0 3.9-3.1 7-7 7h-6c-3.9 0-7-3.1-7-7 0-.3 0-1 .1-1H6c-2.2 0-4 1.8-4 4v30c0 2.2 1.8 4 4 4h40c2.2 0 4-1.8 4-4V12c0-2.2-1.8-4-4-4zM21.7 38H10.3C9 38 8 36.8 8 35.5c0-2 2.1-3.1 4.3-4 1.5-.6 1.7-1.2 1.7-1.9 0-.6-.4-1.2-.9-1.7-.9-.8-1.4-2-1.4-3.3 0-2.5 1.5-4.6 4.2-4.6s4.2 2.1 4.2 4.6c0 1.3-.5 2.5-1.4 3.3-.5.5-.9 1.1-.9 1.7 0 .6.2 1.2 1.7 1.9 2.2.9 4.3 2 4.3 4 .2 1.3-.8 2.5-2.1 2.5zM44 34c0 .6-.4 1-1 1H29c-.6 0-1-.4-1-1v-2c0-.6.4-1 1-1h14c.6 0 1 .4 1 1v2zm2-8c0 .6-.4 1-1 1H29c-.6 0-1-.4-1-1v-2c0-.6.4-1 1-1h16c.6 0 1 .4 1 1v2zM22 12h6c1.7 0 3-1.3 3-3s-1.3-3-3-3h-6c-1.7 0-3 1.3-3 3s1.3 3 3 3z" fill="#fff"/></svg><view id="image" viewBox="120 140 20 20"/><svg width="20" height="20" viewBox="0 0 52 52" x="120" y="140"><path fill="#fff" d="M50 10c0-2.2-1.8-4-4-4H6c-2.2 0-4 1.8-4 4v32c0 2.2 1.8 4 4 4h40c2.2 0 4-1.8 4-4V10zM39.6 38h-29c-1.2 0-1.9-1.3-1.3-2.3l8.8-15.3c.4-.7 1.3-.7 1.7 0l5.3 9.1c.4.6 1.3.7 1.7.1l4.3-6.2c.4-.6 1.3-.6 1.7 0L40.7 36c.6.9 0 2-1.1 2zM37 20c-2.2 0-4-1.8-4-4s1.8-4 4-4 4 1.8 4 4-1.8 4-4 4z"/></svg><view id="inbox" viewBox="140 140 20 20"/><svg width="20" height="20" viewBox="0 0 52 52" x="140" y="140"><path fill="#fff" d="M50 8c0-2.2-1.8-4-4-4H6C3.8 4 2 5.8 2 8v36c0 2.2 1.8 4 4 4h40c2.2 0 4-1.8 4-4V8zM19 35c0 .6-.4 1-1 1H9c-.6 0-1-.4-1-1v-4c0-.6.4-1 1-1h9c.6 0 1 .4 1 1v4zm0-10c0 .6-.4 1-1 1H9c-.6 0-1-.4-1-1v-4c0-.6.4-1 1-1h9c.6 0 1 .4 1 1v4zm0-10c0 .6-.4 1-1 1H9c-.6 0-1-.4-1-1v-4c0-.6.4-1 1-1h9c.6 0 1 .4 1 1v4zm25 26c0 .6-.4 1-1 1H24c-.6 0-1-.4-1-1V11c0-.6.4-1 1-1h19c.6 0 1 .4 1 1v30z"/></svg><view id="info" viewBox="160 0 20 20"/><svg width="20" height="20" viewBox="0 0 52 52" x="160"><path fill="#fff" d="M26 2C12.7 2 2 12.7 2 26s10.7 24 24 24 24-10.7 24-24S39.3 2 26 2zm0 12.1c1.7 0 3 1.3 3 3s-1.3 3-3 3-3-1.3-3-3 1.3-3 3-3zm5 21c0 .5-.4.9-1 .9h-8c-.5 0-1-.3-1-.9v-2c0-.5.4-1.1 1-1.1.5 0 1-.3 1-.9v-4c0-.5-.4-1.1-1-1.1-.5 0-1-.3-1-.9v-2c0-.5.4-1.1 1-1.1h6c.5 0 1 .5 1 1.1v8c0 .5.4.9 1 .9.5 0 1 .5 1 1.1v2z"/></svg><view id="insert_tag_field" viewBox="160 20 20 20"/><svg width="20" height="20" viewBox="0 0 52 52" x="160" y="20"><path fill="#fff" d="M16.3 12.2L14 10.3c-.7-.5-1.5-.4-2.1.2L.3 25.1c-.4.5-.4 1.3 0 1.9L12 41.5c.5.6 1.4.8 2.1.2l2.3-1.9c.7-.5.8-1.5.2-2.1L7.2 26l9.5-11.7c.4-.6.3-1.5-.4-2.1zm35.4 12.9L40 10.6c-.5-.6-1.4-.8-2.1-.2l-2.3 1.9c-.7.5-.8 1.5-.2 2.1l9.5 11.7-9.5 11.7c-.5.6-.4 1.6.2 2.1l2.3 1.9c.7.5 1.5.4 2.1-.2L51.7 27c.4-.7.4-1.4 0-1.9zM31.6 10.8l-3-.7c-.8-.2-1.7.3-1.9 1.1l-7.4 28.4c-.2.8.3 1.6 1.1 1.8l3 .7c.8.2 1.7-.3 1.9-1.1l7.4-28.4c.2-.9-.3-1.6-1.1-1.8z"/></svg><view id="insert_template" viewBox="160 40 20 20"/><svg width="20" height="20" viewBox="0 0 52 52" x="160" y="40"><path fill="#fff" d="M48.5 38H44v-4.5c0-.8-.7-1.5-1.5-1.5h-3c-.8 0-1.5.7-1.5 1.5V38h-4.5c-.8 0-1.5.7-1.5 1.5v3c0 .8.7 1.5 1.5 1.5H38v4.5c0 .8.7 1.5 1.5 1.5h3c.8 0 1.5-.7 1.5-1.5V44h4.5c.8 0 1.5-.7 1.5-1.5v-3c0-.8-.7-1.5-1.5-1.5zM34 29.5c0-.8.7-1.5 1.5-1.5H38V6c0-2.2-1.8-4-4-4H6C3.8 2 2 3.8 2 6v28c0 2.2 1.8 4 4 4h22v-2.5c0-.8.7-1.5 1.5-1.5H34v-4.5zM16 11c0 .6-.4 1-1 1H9c-.6 0-1-.4-1-1V9c0-.6.4-1 1-1h6c.6 0 1 .4 1 1v2zm12 16c0 .6-.4 1-1 1H9c-.6 0-1-.4-1-1v-2c0-.6.4-1 1-1h18c.6 0 1 .4 1 1v2zm4-8c0 .6-.4 1-1 1H9c-.6 0-1-.4-1-1v-2c0-.6.4-1 1-1h22c.6 0 1 .4 1 1v2z"/></svg><view id="italic" viewBox="160 60 20 20"/><svg width="20" height="20" viewBox="0 0 52 52" x="160" y="60"><path fill="#fff" d="M38 12.3V11c0-1.1-.9-2-2-2H22c-1.1 0-2 .9-2 2v2c0 1.1.9 2 2 2 1.7 0 3 1.6 2.6 3.2L21 35.8c-.3 1.3-1.4 2.2-2.6 2.2H16c-1.1 0-2 .9-2 2v2c0 1.1.9 2 2 2h14c1.1 0 2-.9 2-2v-2c0-1.1-.9-2-2-2-1.7 0-3-1.6-2.6-3.2L31 17.2c.3-1.3 1.4-2.2 2.6-2.2h1.7c1.5 0 2.7-1.2 2.7-2.7z"/></svg><view id="justify_text" viewBox="160 80 20 20"/><svg width="20" height="20" viewBox="0 0 52 52" x="160" y="80"><path fill="#fff" d="M48 6.5c0-.8-.7-1.5-1.5-1.5h-41C4.7 5 4 5.7 4 6.5v3c0 .8.7 1.5 1.5 1.5h41c.8 0 1.5-.7 1.5-1.5v-3zm0 12c0-.8-.7-1.5-1.5-1.5h-41c-.8 0-1.5.7-1.5 1.5v3c0 .8.7 1.5 1.5 1.5h41c.8 0 1.5-.7 1.5-1.5v-3zm0 24c0-.8-.7-1.5-1.5-1.5h-41c-.8 0-1.5.7-1.5 1.5v3c0 .8.7 1.5 1.5 1.5h41c.8 0 1.5-.7 1.5-1.5v-3zm0-12c0-.8-.7-1.5-1.5-1.5h-41c-.8 0-1.5.7-1.5 1.5v3c0 .8.7 1.5 1.5 1.5h41c.8 0 1.5-.7 1.5-1.5v-3z"/></svg><view id="kanban" viewBox="160 100 20 20"/><svg width="20" height="20" viewBox="0 0 52 52" x="160" y="100"><path fill="#fff" d="M32 17.5c0-.8-.7-1.5-1.5-1.5h-9c-.8 0-1.5.7-1.5 1.5v27c0 .8.7 1.5 1.5 1.5h9c.8 0 1.5-.7 1.5-1.5v-27zm-18 0c0-.8-.7-1.5-1.5-1.5h-9c-.8 0-1.5.7-1.5 1.5v31c0 .8.7 1.5 1.5 1.5h9c.8 0 1.5-.7 1.5-1.5v-31zm36 0c0-.8-.7-1.5-1.5-1.5h-9c-.8 0-1.5.7-1.5 1.5v23c0 .8.7 1.5 1.5 1.5h9c.8 0 1.5-.7 1.5-1.5v-23zm0-14c0-.8-.7-1.5-1.5-1.5h-45C2.7 2 2 2.7 2 3.5v5c0 .8.7 1.5 1.5 1.5h45c.8 0 1.5-.7 1.5-1.5v-5z"/></svg><view id="knowledge_base" viewBox="160 120 20 20"/><svg width="20" height="20" viewBox="0 0 52 52" x="160" y="120"><path d="M9.5 35h13c.8 0 1.5-.7 1.5-1.5V10c0-1.7-1.8-3-3.2-3H9.5C8.7 7 8 7.7 8 8.5v25c0 .8.7 1.5 1.5 1.5zm39.7-23.4c-.6-.2-1.2.3-1.2 1v24.9c0 .8-.7 1.5-1.5 1.5h-41c-.8 0-1.5-.7-1.5-1.5V12.7c0-.7-.8-1.2-1.4-.9C1.1 12.5 0 14.1 0 16v23c0 2.2 1.8 4 4 4h16.5c.8 0 1.5.7 1.5 1.5s.7 1.5 1.5 1.5h5c.8 0 1.5-.7 1.5-1.5s.7-1.5 1.5-1.5H48c2.2 0 4-1.8 4-4V16c0-2.1-.7-3.9-2.8-4.4zM29.5 35h13c.8 0 1.5-.7 1.5-1.5v-25c0-.8-.7-1.5-1.5-1.5H31.2C29.7 7 28 8.3 28 10v23.5c0 .8.7 1.5 1.5 1.5z" fill="#fff"/></svg><view id="layout" viewBox="160 140 20 20"/><svg width="20" height="20" viewBox="0 0 52 52" x="160" y="140"><path fill="#fff" d="M48 50H4c-1.1 0-2-.9-2-2V4c0-1.1.9-2 2-2h44c1.1 0 2 .9 2 2v44c0 1.1-.9 2-2 2zM6 46h40V6H6v40zm33-26H13c-.6 0-1-.4-1-1v-6c0-.6.4-1 1-1h26c.6 0 1 .4 1 1v6c0 .6-.4 1-1 1zM19 40h-6c-.6 0-1-.4-1-1V27c0-.6.4-1 1-1h6c.6 0 1 .4 1 1v12c0 .6-.4 1-1 1zm20 0H27c-.6 0-1-.4-1-1V27c0-.6.4-1 1-1h12c.6 0 1 .4 1 1v12c0 .6-.4 1-1 1z"/></svg><view id="left" viewBox="0 160 20 20"/><svg width="20" height="20" viewBox="0 0 52 52" y="160"><path fill="#fff" d="M38 8.3v35.4c0 1-1.3 1.7-2.2.9L14.6 27.3c-.8-.6-.8-1.9 0-2.5L35.8 7.3c.9-.7 2.2-.1 2.2 1z"/></svg><view id="left_align_text" viewBox="20 160 20 20"/><svg width="20" height="20" viewBox="0 0 52 52" x="20" y="160"><path fill="#fff" d="M48 6.5c0-.8-.7-1.5-1.5-1.5h-41C4.7 5 4 5.7 4 6.5v3c0 .8.7 1.5 1.5 1.5h41c.8 0 1.5-.7 1.5-1.5v-3zm-8 12c0-.8-.7-1.5-1.5-1.5h-33c-.8 0-1.5.7-1.5 1.5v3c0 .8.7 1.5 1.5 1.5h33c.8 0 1.5-.7 1.5-1.5v-3zm0 24c0-.8-.7-1.5-1.5-1.5h-33c-.8 0-1.5.7-1.5 1.5v3c0 .8.7 1.5 1.5 1.5h33c.8 0 1.5-.7 1.5-1.5v-3zm8-12c0-.8-.7-1.5-1.5-1.5h-41c-.8 0-1.5.7-1.5 1.5v3c0 .8.7 1.5 1.5 1.5h41c.8 0 1.5-.7 1.5-1.5v-3z"/></svg><view id="like" viewBox="40 160 20 20"/><svg width="20" height="20" viewBox="0 0 52 52" x="40" y="160"><path d="M10.5 21h-5c-.8 0-1.5.7-1.5 1.5v23c0 .8.7 1.5 1.5 1.5H8c2.2 0 4-1.8 4-4V22.5c0-.8-.7-1.5-1.5-1.5zM44 22h-6c-2.2 0-4-1.8-4-4V8c0-2.2-1.8-4-4-4h-2.5c-.8 0-1.5.7-1.5 1.5v6c0 5.3-3.7 10.5-8.5 10.5-.8 0-1.5.7-1.5 1.5v20c0 .8.6 1.5 1.4 1.5 6.8.3 9.1 3 16.2 3 7.5 0 14.4-.8 14.4-9.5V26c0-2.2-1.8-4-4-4z" fill="#fff"/></svg><view id="link" viewBox="60 160 20 20"/><svg width="20" height="20" viewBox="0 0 52 52" x="60" y="160"><path d="M27.2 41.7l-2.1-.3s-1.4-.3-2.1-.6c-.4-.1-.9 0-1.2.3l-.5.5c-2.9 2.9-7.6 3.2-10.6.6-3.4-2.9-3.5-8.1-.4-11.2l7.6-7.6c1-1 2.2-1.6 3.4-2 1.6-.4 3.3-.3 4.8.3.9.4 1.8.9 2.6 1.7.4.4.7.8 1 1.3.4.7 1.3.8 1.8.2l2.8-2.8c.4-.4.4-1 .1-1.5-.4-.6-.9-1.1-1.4-1.6-.7-.7-1.5-1.4-2.4-1.9-1.4-.9-3-1.5-4.7-1.8-3.1-.6-6.5-.1-9.3 1.4-1.1.6-2.2 1.4-3.1 2.3l-7.3 7.3C.9 31.6.5 40.2 5.6 45.6c5.3 5.8 14.3 5.9 19.8.4l2.5-2.5c.7-.5.2-1.7-.7-1.8zM45.6 5.8c-5.5-5.1-14.1-4.7-19.3.6L24 8.6c-.7.7-.2 1.9.7 2 1.4.1 2.8.4 4.2.8.4.1.9 0 1.2-.3l.5-.5c2.9-2.9 7.6-3.2 10.6-.6 3.4 2.9 3.5 8.1.4 11.2L34 28.8c-1 1-2.2 1.6-3.4 2-1.6.4-3.3.3-4.8-.3-.9-.4-1.8-.9-2.6-1.7-.4-.4-.7-.8-1-1.3-.4-.7-1.3-.8-1.8-.2l-2.8 2.8c-.4.4-.4 1-.1 1.5.4.6.9 1.1 1.4 1.6.7.7 1.6 1.4 2.4 1.9 1.4.9 3 1.5 4.6 1.8 3.1.6 6.5.1 9.3-1.4 1.1-.6 2.2-1.4 3.1-2.3l7.6-7.6c5.6-5.5 5.4-14.5-.3-19.8z" fill="#fff"/></svg><view id="list" viewBox="80 160 20 20"/><svg width="20" height="20" viewBox="0 0 52 52" x="80" y="160"><path d="M8 10.5C8 9.7 7.3 9 6.5 9h-3C2.7 9 2 9.7 2 10.5v3c0 .8.7 1.5 1.5 1.5h3c.8 0 1.5-.7 1.5-1.5v-3zm42 0c0-.8-.7-1.5-1.5-1.5h-35c-.8 0-1.5.7-1.5 1.5v3c0 .8.7 1.5 1.5 1.5h35c.8 0 1.5-.7 1.5-1.5v-3zm-42 14c0-.8-.7-1.5-1.5-1.5h-3c-.8 0-1.5.7-1.5 1.5v3c0 .8.7 1.5 1.5 1.5h3c.8 0 1.5-.7 1.5-1.5v-3zm38 0c0-.8-.7-1.5-1.5-1.5h-31c-.8 0-1.5.7-1.5 1.5v3c0 .8.7 1.5 1.5 1.5h31c.8 0 1.5-.7 1.5-1.5v-3zm-38 14c0-.8-.7-1.5-1.5-1.5h-3c-.8 0-1.5.7-1.5 1.5v3c0 .8.7 1.5 1.5 1.5h3c.8 0 1.5-.7 1.5-1.5v-3zm42 0c0-.8-.7-1.5-1.5-1.5h-35c-.8 0-1.5.7-1.5 1.5v3c0 .8.7 1.5 1.5 1.5h35c.8 0 1.5-.7 1.5-1.5v-3z" fill="#fff"/></svg><view id="location" viewBox="100 160 20 20"/><svg width="20" height="20" viewBox="0 0 52 52" x="100" y="160"><path fill="#fff" d="M48.8 9.5L34.4 2.3c-.7-.3-1.5-.3-2.1 0L19 9 5.6 2.3c-.8-.4-1.8-.4-2.5.1-.7.4-1.1 1.2-1.1 2v36c0 .9.5 1.7 1.3 2.1l14.4 7.2c.7.3 1.5.3 2.1 0L33.2 43l13.3 6.7c.3.2.7.3 1.1.3.4 0 .9-.1 1.3-.4.7-.4 1.1-1.2 1.1-2v-36c0-.9-.4-1.7-1.2-2.1zM45 14.1v19c0 1.1-1 1.9-2 1.5-3.7-1.4-.7-7.6-3.4-11-2.5-3.1-5.7.1-8.8-4.8-2.9-4.7 1-8.1 4.6-9.9.5-.2 1-.2 1.4 0l7.4 3.7c.6.3.8.9.8 1.5zM24.9 41.9c-.6.3-1.3.2-1.8-.2-1-.9-1.8-2.3-1.8-3.7 0-2.4-4-1.6-4-6.4 0-3.9-4.6-4.9-8.5-4.5-1 .1-1.7-.6-1.7-1.6V10.9c0-1.2 1.2-2 2.2-1.4l8.6 4.3c.1 0 .2.1.2.1l.3.2c3.6 2.1 2.9 3.8 1.4 6.4-1.7 2.9-2.4 0-4.8-.8s-4.8.8-4 2.4 3.2 0 4.8 1.6 1.6 4 6.4 2.4 5.6-.8 7.2.8c1.6 1.6 2.4 4.8 0 7.2-1.4 1.4-2 4.4-2.6 6.4-.1.4-.4.8-.8 1l-1.1.4z"/></svg><view id="lock" viewBox="120 160 20 20"/><svg width="20" height="20" viewBox="0 0 52 52" x="120" y="160"><path d="M11 19h4c.6 0 1-.3 1-.9V18c0-5.7 4.9-10.4 10.7-10 5.3.4 9.3 5 9.3 10.4v-.3c0 .6.4.9 1 .9h4c.6 0 1-.3 1-.9V18c0-9.1-7.6-16.4-16.8-16-8.5.4-15 7.6-15.2 16.1.1.5.5.9 1 .9zm-1-.9v.4-.4zM46 27c0-2.2-1.8-4-4-4H10c-2.2 0-4 1.8-4 4v19c0 2.2 1.8 4 4 4h32c2.2 0 4-1.8 4-4V27zM30.6 42.7c.2.6-.3 1.3-1 1.3h-7.3c-.7 0-1.1-.6-1-1.3l1.8-6c-1.5-1-2.4-2.8-2.1-4.8.4-1.9 1.9-3.4 3.9-3.8 3.2-.6 6 1.7 6 4.7 0 1.6-.8 3.1-2.1 3.9l1.8 6z" fill="#fff"/></svg><view id="logout" viewBox="140 160 20 20"/><svg width="20" height="20" viewBox="0 0 52 52" x="140" y="160"><path d="M21 48.5v-3c0-.8-.7-1.5-1.5-1.5h-10c-.8 0-1.5-.7-1.5-1.5v-33C8 8.7 8.7 8 9.5 8h10c.8 0 1.5-.7 1.5-1.5v-3c0-.8-.7-1.5-1.5-1.5H6C3.8 2 2 3.8 2 6v40c0 2.2 1.8 4 4 4h13.5c.8 0 1.5-.7 1.5-1.5zM49.6 27c.6-.6.6-1.5 0-2.1L36.1 11.4c-.6-.6-1.5-.6-2.1 0l-2.1 2.1c-.6.6-.6 1.5 0 2.1l5.6 5.6c.6.6.2 1.7-.7 1.7H15.5c-.8 0-1.5.6-1.5 1.4v3c0 .8.7 1.6 1.5 1.6h21.2c.9 0 1.3 1.1.7 1.7l-5.6 5.6c-.6.6-.6 1.5 0 2.1l2.1 2.1c.6.6 1.5.6 2.1 0L49.6 27z" fill="#fff"/></svg><view id="magicwand" viewBox="160 160 20 20"/><svg width="20" height="20" viewBox="0 0 52 52" x="160" y="160"><path d="M28.2 21c-.4-.4-1-.4-1.4 0L2.9 44.9c-1.2 1.2-1.2 3 0 4.2 1.2 1.2 3 1.2 4.2 0L31 25.2c.4-.4.4-1 0-1.4L28.2 21zm7 0l3.2-3.2c.6-.6.6-1.5 0-2.1l-2.1-2.1c-.6-.6-1.5-.6-2.1 0L31 16.8c-.4.4-.4 1 0 1.4l2.8 2.8c.4.4 1 .4 1.4 0zm-24.8-9.4c3.8 1.2 6.8 4.1 8 8 .2.6 1 .6 1.2 0 1.2-3.8 4.1-6.8 8-8 .6-.2.6-1 0-1.2-3.8-1.2-6.8-4.1-8-8-.2-.6-1-.6-1.2 0-1.2 3.8-4.1 6.8-8 8-.5.2-.5 1 0 1.2zm39.2 18.9c-3.4-1.1-6-3.7-7.1-7.1-.2-.5-.9-.5-1.1 0-1.1 3.4-3.7 6-7.1 7.1-.5.2-.5.9 0 1.1 3.4 1.1 6 3.7 7.1 7.1.2.5.9.5 1.1 0 1.1-3.4 3.7-6 7.1-7.1.5-.2.5-1 0-1.1zM38.3 8.4c2.6.8 4.5 2.7 5.3 5.3.1.4.7.4.8 0 .8-2.6 2.7-4.5 5.3-5.3.4-.1.4-.7 0-.8-2.6-.8-4.5-2.7-5.3-5.3-.1-.4-.7-.4-.8 0-.8 2.6-2.7 4.5-5.3 5.3-.4.1-.4.7 0 .8z" fill="#fff"/></svg><view id="matrix" viewBox="180 0 20 20"/><svg width="20" height="20" viewBox="0 0 52 52" x="180"><path fill="#fff" d="M48 3.5c0-.8-.7-1.5-1.5-1.5h-31c-.8 0-1.5.7-1.5 1.5v5c0 .8.7 1.5 1.5 1.5h31c.8 0 1.5-.7 1.5-1.5v-5zm-38 12c0-.8-.7-1.5-1.5-1.5h-3c-.8 0-1.5.7-1.5 1.5v13c0 .8.7 1.5 1.5 1.5h3c.8 0 1.5-.7 1.5-1.5v-13zm0 20c0-.8-.7-1.5-1.5-1.5h-3c-.8 0-1.5.7-1.5 1.5v13c0 .8.7 1.5 1.5 1.5h3c.8 0 1.5-.7 1.5-1.5v-13zm19-20c0-.8-.7-1.5-1.5-1.5h-12c-.8 0-1.5.7-1.5 1.5v3c0 .8.7 1.5 1.5 1.5h12c.8 0 1.5-.7 1.5-1.5v-3zm19 0c0-.8-.7-1.5-1.5-1.5h-12c-.8 0-1.5.7-1.5 1.5v3c0 .8.7 1.5 1.5 1.5h12c.8 0 1.5-.7 1.5-1.5v-3zm-19 10c0-.8-.7-1.5-1.5-1.5h-12c-.8 0-1.5.7-1.5 1.5v3c0 .8.7 1.5 1.5 1.5h12c.8 0 1.5-.7 1.5-1.5v-3zm19 0c0-.8-.7-1.5-1.5-1.5h-12c-.8 0-1.5.7-1.5 1.5v3c0 .8.7 1.5 1.5 1.5h12c.8 0 1.5-.7 1.5-1.5v-3zm-19 10c0-.8-.7-1.5-1.5-1.5h-12c-.8 0-1.5.7-1.5 1.5v3c0 .8.7 1.5 1.5 1.5h12c.8 0 1.5-.7 1.5-1.5v-3zm19 0c0-.8-.7-1.5-1.5-1.5h-12c-.8 0-1.5.7-1.5 1.5v3c0 .8.7 1.5 1.5 1.5h12c.8 0 1.5-.7 1.5-1.5v-3zm-19 10c0-.8-.7-1.5-1.5-1.5h-12c-.8 0-1.5.7-1.5 1.5v3c0 .8.7 1.5 1.5 1.5h12c.8 0 1.5-.7 1.5-1.5v-3zm19 0c0-.8-.7-1.5-1.5-1.5h-12c-.8 0-1.5.7-1.5 1.5v3c0 .8.7 1.5 1.5 1.5h12c.8 0 1.5-.7 1.5-1.5v-3z"/></svg><view id="minimize_window" viewBox="180 20 20 20"/><svg width="20" height="20" viewBox="0 0 52 52" x="180" y="20"><path fill="#fff" d="M50 48.5c0 .8-.7 1.5-1.5 1.5h-45c-.8 0-1.5-.7-1.5-1.5v-3c0-.8.7-1.5 1.5-1.5h45c.8 0 1.5.7 1.5 1.5v3z"/></svg><view id="monthlyview" viewBox="180 40 20 20"/><svg width="20" height="20" viewBox="0 0 52 52" x="180" y="40"><path fill="#fff" d="M44 7h-5V5c0-1.6-1.3-3-3-3-1.6 0-3 1.3-3 3v2H19V5c0-1.6-1.3-3-3-3-1.6 0-3 1.3-3 3v2H8c-2.2 0-4 1.8-4 4v2.5c0 .8.7 1.5 1.5 1.5h41c.8 0 1.5-.7 1.5-1.5V11c0-2.2-1.8-4-4-4zm2.5 13h-41c-.8 0-1.5.7-1.5 1.5V46c0 2.2 1.8 4 4 4h36c2.2 0 4-1.8 4-4V21.5c0-.8-.7-1.5-1.5-1.5zM21.1 44c-2.4 0-5.1-.9-5.9-2.2-.1-.2-.2-.4-.2-.7 0-.9.8-1.6 1.6-1.6.3 0 .6.1.9.2 1.1.6 2.4 1 3.5 1 2 0 3.1-.9 3.1-2.1 0-1.3-1-1.9-3.3-1.9-1.3.2-2.2-.4-2.2-1.6 0-.9.6-1.5 1.6-1.5 2.1.1 3.6-.4 3.6-1.8 0-1.3-1.3-1.9-3-1.9-1.1 0-2.2.3-3.2.9-.2.2-.5.2-.8.2-.8 0-1.5-.6-1.5-1.5 0-.4.2-.8.5-1.1 1.3-1.1 3.1-1.8 5.4-1.8 3.8 0 6.2 1.7 6.2 4.5 0 2.1-1.8 3.4-3.6 3.8 1.7.2 3.8 1.5 3.8 3.9C27.5 42 25 44 21.1 44zM37 42.1c0 .9-.5 1.9-1.5 1.9-.9 0-1.5-.9-1.5-1.9V31.8l-2.1 1.9c-.3.3-.7.4-1.1.4-.8 0-1.5-.6-1.5-1.5 0-.4.1-.7.4-1l3.8-3.8c.4-.4.9-.7 1.5-.7 1.1 0 2 1 2 2.1v12.9z"/></svg><view id="move" viewBox="180 60 20 20"/><svg width="20" height="20" viewBox="0 0 52 52" x="180" y="60"><path fill="#fff" d="M49.7 25.3l-8.3-9c-.6-.6-1.4-.1-1.4.9V23H30c-.6 0-1-.4-1-1V12h5.9c1 0 1.5-.9.9-1.4l-9-8.3c-.4-.3-1-.3-1.4 0l-9 8.3c-.6.6-.1 1.4.9 1.4H23v10c0 .6-.4 1-1 1H12v-5.9c0-1-.9-1.5-1.4-.9l-8.3 9c-.3.4-.3 1 0 1.4l8.3 9c.6.6 1.4.1 1.4-.9V29h10c.6 0 1 .4 1 1v10h-5.9c-1 0-1.5.9-.9 1.4l9 8.3c.4.3 1 .3 1.4 0l9-8.3c.6-.6.1-1.4-.9-1.4H29V30c0-.6.4-1 1-1h10v5.9c0 1 .9 1.5 1.4.9l8.3-9c.4-.5.4-1.1 0-1.5z"/></svg><view id="muted" viewBox="180 80 20 20"/><svg width="20" height="20" viewBox="0 0 52 52" x="180" y="80"><path fill="#fff" d="M48.5 5.6l-2.1-2.1c-.6-.6-1.7-.5-2.4.3l-10 10V9.9C34 5.5 30.5 2 26.1 2h-.2C21.5 2 18 5.5 18 9.9v14.5c0 1.5.4 3 1.2 4.2l-3.5 3.5C14 30 13 27.3 13 24.4v-4c0-1.4-1.1-2.4-2.5-2.4S8 19 8 20.4v4c0 4.3 1.6 8.2 4.2 11.2L3.8 44c-.7.7-.8 1.8-.3 2.4l2.1 2.1c.6.6 1.7.5 2.4-.3L48.2 8c.8-.7.9-1.8.3-2.4zM39 23.2v1.2c0 7-5.8 12.8-13 12.8h-.9l-3.9 4.1c.8.2 1.8.4 2.8.6V45h-4.5c-1.4 0-2.5 1.1-2.5 2.5s1.1 2.5 2.5 2.5h13.1c1.4 0 2.5-1.1 2.5-2.5S33.9 45 32.5 45H28v-3.2c9-1.2 16-8.6 16-17.4v-4c0-.6-.3-1.2-.6-1.6L39 23.2z"/></svg><view id="new" viewBox="180 100 20 20"/><svg width="20" height="20" viewBox="0 0 52 52" x="180" y="100"><path fill="#fff" d="M43 9C33.6-.3 18.4-.3 9 9-.3 18.4-.3 33.6 9 43c9.4 9.4 24.6 9.4 33.9 0 9.4-9.4 9.4-24.6.1-34zm-1 19c0 .6-.4 1-1 1H30c-.5 0-1 .5-1 1v11c0 .5-.5 1-1 1h-4c-.6 0-1-.4-1-1V30c0-.6-.4-1-1-1H11c-.6 0-1-.4-1-1v-4c0-.5.5-1 1-1h11c.6 0 1-.4 1-1V11c0-.5.5-1 1-1h4c.5 0 1 .4 1 1v11c0 .6.4 1 1 1h11c.5 0 1 .5 1 1v4z"/></svg><view id="new_window" viewBox="180 120 20 20"/><svg width="20" height="20" viewBox="0 0 52 52" x="180" y="120"><path d="M48.7 2H29.6c-.8 0-1.6.5-1.6 1.3v3c0 .8.7 1.7 1.6 1.7h7.9c.9 0 1.4 1 .7 1.6l-17 17c-.6.6-.6 1.5 0 2.1l2.1 2.1c.6.6 1.5.6 2.1 0l17-17c.6-.6 1.6-.2 1.6.7v7.9c0 .8.8 1.7 1.6 1.7h2.9c.8 0 1.5-.9 1.5-1.7v-19c0-.9-.5-1.4-1.3-1.4zM36.3 25.5L32.9 29c-.6.6-.9 1.3-.9 2.1v11.4c0 .8-.7 1.5-1.5 1.5h-21c-.8 0-1.5-.7-1.5-1.5v-21c0-.8.7-1.5 1.5-1.5H21c.8 0 1.6-.3 2.1-.9l3.4-3.4c.6-.6.2-1.7-.7-1.7H6c-2.2 0-4 1.8-4 4v28c0 2.2 1.8 4 4 4h28c2.2 0 4-1.8 4-4V26.2c0-.9-1.1-1.3-1.7-.7z" fill="#fff"/></svg><view id="news" viewBox="180 140 20 20"/><svg width="20" height="20" viewBox="0 0 52 52" x="180" y="140"><path fill="#fff" d="M50.5 6h-41C8.7 6 8 6.7 8 7.5V38c0 1.2-1.1 2.2-2.3 2-1-.2-1.7-1.1-1.7-2.1V16c0-.6-.4-1-1-1H1.5c-.8 0-1.5.7-1.5 1.5V42c0 2.2 1.8 4 4 4h44c2.2 0 4-1.8 4-4V7.5c0-.8-.7-1.5-1.5-1.5zM28 35c0 .6-.4 1-1 1H15c-.6 0-1-.4-1-1v-2c0-.6.4-1 1-1h12c.6 0 1 .4 1 1v2zm0-8c0 .6-.4 1-1 1H15c-.6 0-1-.4-1-1v-2c0-.6.4-1 1-1h12c.6 0 1 .4 1 1v2zm18 8c0 .6-.4 1-1 1H33c-.6 0-1-.4-1-1v-2c0-.6.4-1 1-1h12c.6 0 1 .4 1 1v2zm0-8c0 .6-.4 1-1 1H33c-.6 0-1-.4-1-1v-2c0-.6.4-1 1-1h12c.6 0 1 .4 1 1v2zm0-8c0 .6-.4 1-1 1H15c-.6 0-1-.4-1-1v-6c0-.6.4-1 1-1h30c.6 0 1 .4 1 1v6z"/></svg><view id="notebook" viewBox="0 0 20 20"/><svg width="20" height="20" viewBox="0 0 52 52"><path fill="#fff" d="M44 2H14c-2.2 0-4 1.8-4 4v3H7c-1.7 0-3 1.3-3 3s1.3 3 3 3h3v8H7c-1.7 0-3 1.3-3 3s1.3 3 3 3h3v8H7c-1.7 0-3 1.3-3 3s1.3 3 3 3h3v3c0 2.2 1.8 4 4 4h30c2.2 0 4-1.8 4-4V6c0-2.2-1.8-4-4-4zm-7 34c0 .6-.4 1-1 1H22c-.6 0-1-.4-1-1v-2c0-.6.4-1 1-1h14c.6 0 1 .4 1 1v2zm2-8c0 .6-.4 1-1 1H20c-.6 0-1-.4-1-1v-2c0-.6.4-1 1-1h18c.6 0 1 .4 1 1v2zm2-10c0 .6-.4 1-1 1H18c-.6 0-1-.4-1-1v-6c0-.6.4-1 1-1h22c.6 0 1 .4 1 1v6z"/></svg><view id="notification" viewBox="0 180 20 20"/><svg width="20" height="20" viewBox="0 0 52 52" y="180"><path d="M46 33h-.5c-1.9 0-3.5-1.6-3.5-3.5V18c0-9.1-7.6-16.4-16.8-16C16.6 2.4 10 9.8 10 18.5v11.1c0 1.9-1.6 3.4-3.5 3.4H6c-2.2 0-4 1.9-4 4.1v1.5c0 .7.7 1.4 1.5 1.4h45c.8 0 1.5-.7 1.5-1.5V37c0-2.2-1.8-4-4-4zM30.9 44h-9.8c-.6 0-1.1.6-1 1.2.5 2.8 3 4.8 5.9 4.8s5.4-2.1 5.9-4.8c.1-.6-.4-1.2-1-1.2z" fill="#fff"/></svg><view id="office365" viewBox="20 180 20 20"/><svg width="20" height="20" viewBox="0 0 52 52" x="20" y="180"><path d="M30.8 49.5c.6.2 1.3.2 1.9 0l11.9-3.9c.8-.3 1.4-1 1.4-1.9v-36c0-.6-.4-1.2-1-1.4L32.9 2.2c-.7-.2-1.4-.2-2 0L7 11.4c-.6.2-1 .8-1 1.4v27.1c0 .6.4 1.2 1 1.4l23.8 8.2zm1.2-6.7c0 .6-.5 1.1-1 1l-20-2.7c-.5-.1-.9-.5-.9-1v-.4c0-.4.2-.7.7-.9l3.8-1.8c.4-.2.6-.5.6-.9V14.8c0-.5.3-.9.8-1l15-3.4c.6-.1 1.2.3 1.2 1v31.4z" fill="#fff"/></svg><view id="offline" viewBox="40 180 20 20"/><svg width="20" height="20" viewBox="0 0 52 52" x="40" y="180"><path d="M34.7 36.1c.5-.5.5-1.3 0-1.8l-1.8-1.8c-.5-.5-1.3-.5-1.8 0l-4.4 4.4c-.3.3-.9.3-1.2 0l-4.4-4.4c-.5-.5-1.3-.5-1.8 0l-1.8 1.8c-.5.5-.5 1.3 0 1.8l4.4 4.4c.3.3.3.9 0 1.2l-4.4 4.4c-.5.5-.5 1.3 0 1.8l1.8 1.8c.5.5 1.3.5 1.8 0l4.4-4.4c.3-.3.9-.3 1.2 0l4.4 4.4c.5.5 1.3.5 1.8 0l1.8-1.8c.5-.5.5-1.3 0-1.8l-4.4-4.4c-.3-.3-.3-.9 0-1.2l4.4-4.4zm13-24.5c-5.5-6.1-13.3-9.5-21.6-9.5S10 5.5 4.5 11.6c-.4.4-.3 1.1.1 1.4l3 2.6c.4.4 1 .3 1.4-.1 4.4-4.7 10.6-7.4 17.1-7.4s12.7 2.7 17.1 7.4c.4.4 1 .4 1.4.1l3-2.6c.4-.4.5-1 .1-1.4zm-21.6 4.5c-4.2 0-8.2 1.8-11 5-.4.4-.3 1.1.1 1.5l3.2 2.4c.4.3 1 .3 1.3-.1 1.7-1.8 4-2.8 6.4-2.8s4.7 1 6.3 2.7c.3.4.9.4 1.3.1l3.2-2.4c.5-.4.5-1 .1-1.5-2.7-3.1-6.7-4.9-10.9-4.9z" fill="#fff"/></svg><view id="open" viewBox="60 180 20 20"/><svg width="20" height="20" viewBox="0 0 52 52" x="60" y="180"><path fill="#fff" d="M8 35v-.6 1.2-.6zM46 2H6C3.8 2 2 3.8 2 6v36c0 2.2 1.8 4 4 4h12c.6 0 1-.4 1-1v-4c0-.6-.4-1-1-1H9.5c-.8 0-1.5-.7-1.5-1.5v-25c0-.8.7-1.5 1.5-1.5h33c.8 0 1.5.7 1.5 1.5v25c0 .8-.7 1.5-1.5 1.5H34c-.6 0-1 .4-1 1v4c0 .6.4 1 1 1h12c2.2 0 4-1.8 4-4V6c0-2.2-1.8-4-4-4zm-8.5 32.6l2.1-2.1c.6-.6.6-1.5 0-2.1L27 17.8c-.6-.6-1.5-.6-2.1 0L12.4 30.3c-.6.6-.6 1.5 0 2.1l2.1 2.1c.6.6 1.5.6 2.1 0l4.6-4.6c.6-.6 1.8-.2 1.8.7v17.9c0 .8.6 1.5 1.4 1.5h3c.8 0 1.6-.7 1.6-1.5V30.6c0-.9 1-1.3 1.7-.7l4.6 4.7c.6.5 1.6.5 2.2 0z"/></svg><view id="open_folder" viewBox="80 180 20 20"/><svg width="20" height="20" viewBox="0 0 52 52" x="80" y="180"><path d="M46 14H23.3c-1.4 0-2.7-.8-3.5-2l-3.5-6c-.7-1.2-2-2-3.5-2H6C3.8 4 2 5.8 2 8v36c0 2.2 1.8 4 4 4h40c2.2 0 4-1.8 4-4V18c0-2.2-1.8-4-4-4zm0-8H21.9c-.4 0-.6.4-.4.7l1.6 2.7c.2.4.5.6.9.6h22c1.1 0 2.2.2 3.1.6.4.2.9-.1.9-.6 0-2.2-1.8-4-4-4z" fill="#fff"/></svg><view id="opened_folder" viewBox="100 180 20 20"/><svg width="20" height="20" viewBox="0 0 52 52" x="100" y="180"><path d="M44 15c0-2.2-1.8-4-4-4H25.3c-1.8 0-3.5-2-3.5-2l-2.5-3s-1.2-2-3.5-2H12C9.8 4 8 5.8 8 8v9h36v-2zm2.9 6H5.1c-2 0-3.5 1.9-3 3.8l5.7 21c.4 1.3 1.6 2.2 3 2.2h30.5c1.4 0 2.7-.9 3-2.2l5.7-21c.4-1.9-1.1-3.8-3.1-3.8z" fill="#fff"/></svg><view id="package" viewBox="120 180 20 20"/><svg width="20" height="20" viewBox="0 0 52 52" x="120" y="180"><path fill="#fff" d="M44.4 24h-7.9l-3.3 4H44v6H8v-6h10.7l-3.3-4H7.6c-2 0-3.6 1.6-3.6 3.6V47c0 1.7 1.3 3 3 3h38c1.7 0 3-1.3 3-3V27.6c0-2-1.6-3.6-3.6-3.6zM23 3.5V16h-6.9c-1 0-1.5.9-.9 1.4l10 12.3c.4.3 1 .3 1.4 0l10-12.3c.6-.6.1-1.4-.9-1.4H29V3.5c0-.8-.7-1.5-1.5-1.5h-3c-.8 0-1.5.7-1.5 1.5z"/></svg><view id="package_org" viewBox="140 180 20 20"/><svg width="20" height="20" viewBox="0 0 52 52" x="140" y="180"><path fill="#fff" d="M44.4 23H31.9l-4 4H44v6H8v-6h8.1l-4-4H7.6c-2 0-3.6 1.6-3.6 3.6V46c0 1.7 1.3 3 3 3h38c1.7 0 3-1.3 3-3V26.6c0-2-1.6-3.6-3.6-3.6zm-23.8 2.8c.8.8 2 .8 2.8 0l19-19c.4-.4.4-1 0-1.4l-2.8-2.8c-.4-.4-1-.4-1.4 0L22 18.8l-6.7-6.7c-.4-.4-1-.4-1.4 0l-2.8 2.8c-.4.4-.4 1 0 1.4l9.5 9.5z"/></svg><view id="package_org_beta" viewBox="160 180 20 20"/><svg width="20" height="20" viewBox="0 0 52 52" x="160" y="180"><path fill="#fff" d="M44.4 23h-5.8c-.4 1.5-1.1 2.8-2.1 4H44v6H8v-6h6v-4H7.6c-2 0-3.6 1.6-3.6 3.6V46c0 1.7 1.3 3 3 3h38c1.7 0 3-1.3 3-3V26.6c0-2-1.6-3.6-3.6-3.6zM35 9.9C35 6 31.6 3 27.8 3h-8.3c-.8 0-1.5.7-1.5 1.5v21c0 .8.7 1.5 1.5 1.5H28c3.9 0 7-3.2 6.9-7.1 0-1.9-.8-3.6-2.1-4.8 1.4-1.4 2.2-3.2 2.2-5.2zM22 7h6c1.6 0 3 1.3 3 3 0 1.6-1.3 3-3 3h-6V7zm9 13c0 1.6-1.3 3-3 3h-6v-6h6c1.7 0 3 1.3 3 3z"/></svg><view id="page" viewBox="180 180 20 20"/><svg width="20" height="20" viewBox="0 0 52 52" x="180" y="180"><path fill="#fff" d="M44.4 19H33.2c-2.6 0-4.2-1.6-4.2-4.2V3.6c0-.9-.7-1.6-1.6-1.6H10.8C8.2 2 6 4.2 6 6.8v38.4c0 2.6 2.2 4.8 4.8 4.8h30.4c2.6 0 4.8-2.2 4.8-4.8V20.6c0-.9-.7-1.6-1.6-1.6zm1.3-6.1L35.1 2.3c-.2-.2-.6-.3-.9-.3-.6 0-1.2.5-1.2 1.1v8.5c0 1.8 1.6 3.4 3.4 3.4h8.5c.6 0 1.1-.6 1.1-1.2 0-.3-.1-.7-.3-.9z"/></svg><view id="palette" viewBox="200 0 20 20"/><svg width="20" height="20" viewBox="0 0 52 52" x="200"><path fill="#fff" d="M49.5 17.3C47.2 7.8 37.2 2 26.2 2 12.8 2 2 12.7 2 26s10.8 24 24.2 24c18.6 0 17.1-9.4 11.2-13.1-3.5-2.2-5.4-7.3-1.9-10.9 6.5-6.7 17 4 14-8.7zM13 34c-2.8 0-5-2.2-5-5s2.2-5 5-5 5 2.2 5 5-2.2 5-5 5zm1-19c0-2.8 2.2-5 5-5s5 2.2 5 5-2.2 5-5 5-5-2.2-5-5zm11 29c-2.8 0-5-2.2-5-5s2.2-5 5-5 5 2.2 5 5-2.2 5-5 5zm9-26c-2.8 0-5-2.2-5-5s2.2-5 5-5 5 2.2 5 5-2.2 5-5 5z"/></svg><view id="paste" viewBox="200 20 20 20"/><svg width="20" height="20" viewBox="0 0 52 52" x="200" y="20"><path d="M17.5 12h17c.8 0 1.5-.7 1.5-1.5V6c0-2.2-1.8-4-4-4H20c-2.2 0-4 1.8-4 4v4.5c0 .8.7 1.5 1.5 1.5zM44 6h-2.5c-.8 0-1.5.7-1.5 1.5V12c0 2.2-1.8 4-4 4H16c-2.2 0-4-1.8-4-4V7.5c0-.8-.7-1.5-1.5-1.5H8c-2.2 0-4 1.8-4 4v36c0 2.2 1.8 4 4 4h36c2.2 0 4-1.8 4-4V10c0-2.2-1.8-4-4-4zm-6 35c0 .6-.4 1-1 1H15c-.6 0-1-.4-1-1v-2c0-.6.4-1 1-1h22c.6 0 1 .4 1 1v2zm0-8c0 .6-.4 1-1 1H15c-.6 0-1-.4-1-1v-2c0-.6.4-1 1-1h22c.6 0 1 .4 1 1v2zm0-8c0 .6-.4 1-1 1H15c-.6 0-1-.4-1-1v-2c0-.6.4-1 1-1h22c.6 0 1 .4 1 1v2z" fill="#fff"/></svg><view id="people" viewBox="200 40 20 20"/><svg width="20" height="20" viewBox="0 0 52 52" x="200" y="40"><path d="M42 22.3c-2.8-1.1-3.2-2.2-3.2-3.3s.8-2.2 1.8-3c1.7-1.4 2.6-3.5 2.6-5.8 0-4.4-2.9-8.2-8-8.2-4.7 0-7.5 3.2-7.9 7.1 0 .4.2.7.5.9 3.8 2.4 6.1 6.6 6.1 11.7 0 3.8-1.5 7.2-4.2 9.6-.2.2-.2.6 0 .8.7.5 2.3 1.2 3.3 1.7.3.1.5.2.8.2h12.1c2.3 0 4.1-1.9 4.1-4v-.6c0-3.5-3.8-5.4-8-7.1zM28.6 36.2c-3.4-1.4-3.9-2.6-3.9-3.9 0-1.3 1-2.6 2.1-3.6 2-1.7 3.1-4.1 3.1-6.9 0-5.2-3.4-9.7-9.6-9.7-6.1 0-9.6 4.5-9.6 9.7 0 2.8 1.1 5.2 3.1 6.9 1.1 1 2.1 2.3 2.1 3.6 0 1.3-.5 2.6-4 3.9-5 2-9.9 4.3-9.9 8.5V46c0 2.2 1.8 4 4.1 4h27.7c2.3 0 4.2-1.8 4.2-4v-1.4c0-4.1-4.4-6.4-9.4-8.4z" fill="#fff"/></svg><view id="phone_landscape" viewBox="200 60 20 20"/><svg width="20" height="20" viewBox="0 0 52 52" x="200" y="60"><path fill="#fff" d="M52 13c0-2.2-1.8-4-4-4H4c-2.2 0-4 1.8-4 4v26c0 2.2 1.8 4 4 4h44c2.2 0 4-1.8 4-4V13zM5 29c-1.7 0-3-1.3-3-3s1.3-3 3-3 3 1.3 3 3-1.3 3-3 3zm39 6.5c0 .8-.7 1.5-1.5 1.5h-31c-.8 0-1.5-.7-1.5-1.5v-19c0-.8.7-1.5 1.5-1.5h31c.8 0 1.5.7 1.5 1.5v19z"/></svg><view id="phone_portrait" viewBox="200 80 20 20"/><svg width="20" height="20" viewBox="0 0 52 52" x="200" y="80"><path fill="#fff" d="M43 4c0-2.2-1.8-4-4-4H13c-2.2 0-4 1.8-4 4v44c0 2.2 1.8 4 4 4h26c2.2 0 4-1.8 4-4V4zM26 50c-1.7 0-3-1.3-3-3s1.3-3 3-3 3 1.3 3 3-1.3 3-3 3zm11-9.5c0 .8-.7 1.5-1.5 1.5h-19c-.8 0-1.5-.7-1.5-1.5v-31c0-.8.7-1.5 1.5-1.5h19c.8 0 1.5.7 1.5 1.5v31z"/></svg><view id="photo" viewBox="200 100 20 20"/><svg width="20" height="20" viewBox="0 0 52 52" x="200" y="100"><path d="M26 20c-4.4 0-8 3.6-8 8s3.6 8 8 8 8-3.6 8-8-3.6-8-8-8zm20-6h-5.2c-1.4 0-2.6-.7-3.4-1.8l-2.3-3.5C34.4 7 32.7 6 30.9 6h-9.8c-1.8 0-3.5 1-4.3 2.7l-2.3 3.5c-.7 1.1-2 1.8-3.4 1.8H6c-2.2 0-4 1.8-4 4v24c0 2.2 1.8 4 4 4h40c2.2 0 4-1.8 4-4V18c0-2.2-1.8-4-4-4zM26 40c-6.6 0-12-5.4-12-12s5.4-12 12-12 12 5.4 12 12-5.4 12-12 12z" fill="#fff"/></svg><view id="power" viewBox="200 120 20 20"/><svg width="20" height="20" viewBox="0 0 52 52" x="200" y="120"><path d="M34.4 7.7c-.7-.3-1.4.2-1.4.9v3.8c0 .7.4 1.4 1 1.7 5.3 3 8.7 9 7.9 15.7-.8 7.3-6.7 13.3-14.1 14.1C18.2 45 10 37.4 10 28c0-5.9 3.2-11.1 8-13.9.6-.3 1-1 1-1.7V8.6c0-.7-.7-1.2-1.4-.9C9.1 11.2 3.2 20 4.1 30c.9 10.3 9.1 18.7 19.4 19.9C36.7 51.3 48 41 48 28c0-9.2-5.6-17-13.6-20.3zM29 3.5c0-.8-.7-1.5-1.5-1.5h-3c-.8 0-1.5.7-1.5 1.5v17c0 .8.7 1.5 1.5 1.5h3c.8 0 1.5-.7 1.5-1.5v-17z" fill="#fff"/></svg><view id="preview" viewBox="200 140 20 20"/><svg width="20" height="20" viewBox="0 0 52 52" x="200" y="140"><path d="M51.8 25.1C47.1 15.6 37.3 9 26 9S4.9 15.6.2 25.1c-.3.6-.3 1.3 0 1.8C4.9 36.4 14.7 43 26 43s21.1-6.6 25.8-16.1c.3-.6.3-1.2 0-1.8zM26 37c-6.1 0-11-4.9-11-11s4.9-11 11-11 11 4.9 11 11-4.9 11-11 11zm0-18c-3.9 0-7 3.1-7 7s3.1 7 7 7 7-3.1 7-7-3.1-7-7-7z" fill="#fff"/></svg><view id="priority" viewBox="200 160 20 20"/><svg width="20" height="20" viewBox="0 0 52 52" x="200" y="160"><path d="M9 3.5C9 2.7 8.3 2 7.5 2h-3C3.7 2 3 2.7 3 3.5v45c0 .8.7 1.5 1.5 1.5h3c.8 0 1.5-.7 1.5-1.5v-45zm38.5 4.2c-16 8.4-14.2-8.8-33.5-2.1-.6.2-1 .8-1 1.4v23.3c0 .7.7 1.2 1.3.9 19.2-6.4 17.2 11.2 33.9 1.8.5-.3.8-.8.8-1.3V8.5c0-.7-.8-1.2-1.5-.8z" fill="#fff"/></svg><view id="process" viewBox="200 180 20 20"/><svg width="20" height="20" viewBox="0 0 52 52" x="200" y="180"><path fill="#fff" d="M16.2 23.2l8.5-10.6c.6-.8 1.8-.8 2.4 0l8.5 10.7c.3.4.7.7 1.2.7h9.6c.8 0 1.6-.7 1.6-1.5V8c0-2.2-1.9-4-4.1-4H8C5.8 4 4 5.8 4 8v14.5c0 .8.7 1.5 1.5 1.5H15c.5 0 .9-.4 1.2-.8zm19.5 5.6l-8.5 10.6c-.6.8-1.8.8-2.4 0l-8.5-10.7c-.4-.3-.8-.7-1.3-.7H5.5c-.8 0-1.5.7-1.5 1.5V44c0 2.2 1.8 4 4 4h36c2.2 0 4-1.8 4-4V29.5c0-.8-.7-1.5-1.5-1.5h-9.6c-.5 0-.9.4-1.2.8z"/></svg><view id="push" viewBox="0 200 20 20"/><svg width="20" height="20" viewBox="0 0 52 52" y="200"><path d="M44 2H20c-2.2 0-4 1.8-4 4v.1c0 .7.4 1.4 1 1.8.3.2 4.1 4 4.1 4 .3.3.8 0 .8-.4 0-.8.7-1.6 1.5-1.6h17c.8 0 1.6.8 1.6 1.6v27c0 .8-.8 1.4-1.6 1.4h-17c-.8 0-1.4-.6-1.4-1.4v-.1c0-.4-.5-.6-.8-.3 0 0-3.8 3.8-4.2 4-.6.4-1 1-1 1.8v2c0 2.2 1.7 4 3.9 4h24c2.2 0 4.1-1.8 4.1-4V6c0-2.2-1.8-4-4-4zM32 48c-1.7 0-3-1.3-3-3s1.3-3 3-3 3 1.3 3 3-1.3 3-3 3zm-4.4-24.1L15.1 11.4c-.6-.6-1.5-.6-2.1 0l-2.1 2.1c-.6.6-.6 1.5 0 2.1l4.6 4.6c.6.6.2 1.7-.7 1.7H1.5c-.8.1-1.5.8-1.5 1.6v3c0 .8.7 1.5 1.5 1.5h13.2c.9 0 1.3 1.1.7 1.7l-4.6 4.6c-.6.6-.6 1.5 0 2.1l2.1 2.1c.6.6 1.5.6 2.1 0L27.6 26c.5-.5.5-1.5 0-2.1z" fill="#fff"/></svg><view id="puzzle" viewBox="20 200 20 20"/><svg width="20" height="20" viewBox="0 0 52 52" x="20" y="200"><path fill="#fff" d="M45 38.4c-.2 2.7-.5 5.6-1 8.4-.1.8-1 1.7-1.8 1.8-5.4.6-10.7 1-16.1 1-5.3 0-10.7-.3-16-1-.8-.1-1.7-.9-1.8-1.8-.7-4.4-1.1-8.9-1.1-13.4s.4-9 1.1-13.4c.1-.8 1-1.6 1.8-1.8 3.3-.4 6.5-.6 9.7-.8 0 0 2.6-.1 2.4-2.6-.2-2.2-4-3.7-4-7.4 0-3 3-5.4 7.9-5.4 4.8 0 7.8 2.4 7.8 5.4 0 3.8-3.7 5.2-3.9 7.4-.2 2.4 2.4 2.6 2.4 2.6 3.3.1 6.6.4 9.8.8.8.1 1.7.9 1.8 1.8.5 3.1.8 6 1 9.1 0 .9-.7 1.8-1.6 1.8h-.9c-.9 0-2.3-.7-2.9-1.4 0 0-2.1-2.2-4.4-2.3-3.7-.1-6.5 3.1-6.5 6.6s2.8 6.8 6.4 6.7c2.2-.1 4.4-2.3 4.4-2.3.7-.6 2-1.2 2.9-1.2h.9c1.1 0 1.8.6 1.7 1.4z"/></svg><view id="question" viewBox="40 200 20 20"/><svg width="20" height="20" viewBox="0 0 52 52" x="40" y="200"><path fill="#fff" d="M28.4 38h-5c-.8 0-1.4-.6-1.4-1.4v-1.5c0-4.2 2.7-8 6.7-9.4 1.2-.4 2.3-1.1 3.2-2.1 5-6 .4-13.2-5.6-13.4-2.2-.1-4.3.7-5.9 2.2-1.3 1.2-2.1 2.7-2.3 4.4-.1.6-.7 1.1-1.5 1.1h-5c-.9 0-1.6-.7-1.5-1.6.4-3.8 2.1-7.2 4.8-9.9 3.2-3 7.3-4.6 11.7-4.5C34.9 2.2 41.7 9 42 17.3c.3 7-4 13.3-10.5 15.7-.9.4-1.5 1.1-1.5 2v1.5c0 .9-.8 1.5-1.6 1.5zM30 48.5c0 .8-.7 1.5-1.5 1.5h-5c-.8 0-1.5-.7-1.5-1.5v-5c0-.8.7-1.5 1.5-1.5h5c.8 0 1.5.7 1.5 1.5v5z"/></svg><view id="questions_and_answers" viewBox="60 200 20 20"/><svg width="20" height="20" viewBox="0 0 52 52" x="60" y="200"><path fill="#fff" d="M50 28c0-3.9-2.5-7.3-6-8.5C43.7 9.8 35.8 2 26 2S8.3 9.8 8 19.5c-3.5 1.2-6 4.6-6 8.5 0 4.2 2.9 7.7 6.7 8.7C10.9 44.4 17.8 50 26 50s15.1-5.6 17.3-13.3c3.8-1 6.7-4.5 6.7-8.7zm-10-9l-.1-.1.4.1H40zM26 46c-7.7 0-14-6.5-14-14.4 0-2 .4-5 1.2-6.8.1-.3.3-.6.4-.9 3-1.2 5.6-3.3 7.3-6 3.5 4.4 9 7.4 15.1 7.4 2.1 0 2.7.1 2.9 0 .4 1.3.8 2.9.9 4.5-.6 2.5-4.5 4.9-10 5.2-.2-.5-.8-1-1.4-1h-5c-.8 0-1.4.8-1.4 1.6v3c0 .8.6 1.4 1.4 1.4h5c.7 0 1.2-.3 1.4-.9 3.6-.1 6.8-1.1 9.3-2.6C37.2 42 32.1 46 26 46z"/></svg><view id="record" viewBox="80 200 20 20"/><svg width="20" height="20" viewBox="0 0 52 52" x="80" y="200"><path fill="#fff" d="M26 8c9.9 0 18 8.1 18 18s-8.1 18-18 18S8 35.9 8 26 16.1 8 26 8z"/></svg><view id="redo" viewBox="100 200 20 20"/><svg width="20" height="20" viewBox="0 0 52 52" x="100" y="200"><path fill="#fff" d="M46.7 3h-3c-.8 0-1.7.7-1.7 1.5v7c0 .9-.4 1.3-1.1.7-.3-.4-.6-.7-1-1-5-5-12-7.1-19.2-5.7-2.5.5-4.9 1.5-7 2.9-6.1 4-9.6 10.5-9.7 17.5-.1 5.4 2 10.8 5.8 14.7 3.6 3.8 8.4 6.1 13.6 6.5.9.1 1.6-.6 1.6-1.5v-3c0-.8-.6-1.4-1.4-1.5-4.7-.4-9-3-11.6-7.3-.7-1.2-1.3-2.5-1.6-3.8-1.6-6.6 1.1-13.2 6.9-16.7 1.2-.7 2.5-1.3 3.8-1.6 5.4-1.3 10.7.2 14.4 3.9.5.4.9.8 1.2 1.3.3.8-.4 1.1-1.3 1.1h-7c-.8 0-1.5.9-1.5 1.7v3.1c0 .8.6 1.2 1.4 1.2h18.3c.7 0 1.3-.4 1.3-1.1V4.5c.1-.8-.4-1.5-1.2-1.5z"/></svg><view id="refresh" viewBox="120 200 20 20"/><svg width="20" height="20" viewBox="0 0 52 52" x="120" y="200"><path fill="#fff" d="M46.5 4h-3c-.8 0-1.5.7-1.5 1.5v7c0 .9-.5 1.3-1.2.7-.3-.4-.6-.7-1-1-5-5-12-7.1-19.2-5.7-2.5.5-4.9 1.5-7 2.9-6.1 4-9.6 10.5-9.7 17.5-.1 5.4 2 10.8 5.8 14.7 4 4.2 9.4 6.5 15.2 6.5 5.1 0 9.9-1.8 13.7-5 .7-.6.7-1.6.1-2.2l-2.1-2.1c-.5-.5-1.4-.6-2-.1-3.6 3-8.5 4.2-13.4 3-1.3-.3-2.6-.9-3.8-1.6C11.7 36.6 9 30 10.6 23.4c.3-1.3.9-2.6 1.6-3.8C15 14.7 19.9 12 25.1 12c4 0 7.8 1.6 10.6 4.4.5.4.9.9 1.2 1.4.3.8-.4 1.2-1.3 1.2h-7c-.8 0-1.5.7-1.5 1.5v3.1c0 .8.6 1.4 1.4 1.4h18.3c.7 0 1.3-.6 1.3-1.3V5.5C48 4.7 47.3 4 46.5 4z"/></svg><view id="relate" viewBox="140 200 20 20"/><svg width="20" height="20" viewBox="0 0 52 52" x="140" y="200"><path fill="#fff" d="M36 20c0-2.2-1.8-4-4-4H6c-2.2 0-4 1.8-4 4v26c0 2.2 1.8 4 4 4h26c2.2 0 4-1.8 4-4V20zm-8 14c0 .5-.5 1-1 1h-6v6c0 .5-.5 1-1 1h-2c-.5 0-1-.5-1-1v-6h-6c-.5 0-1-.5-1-1v-2c0-.5.5-1 1-1h6v-6c0-.5.5-1 1-1h2c.5 0 1 .5 1 1v6h6c.5 0 1 .5 1 1v2zm15 8h-3v-6h3c.6 0 1-.4 1-1V9c0-.6-.4-1-1-1H17c-.6 0-1 .4-1 1v3h-6V9c0-3.9 3.1-7 7-7h26c3.9 0 7 3.1 7 7v26c0 3.9-3.1 7-7 7z"/></svg><view id="remove_formatting" viewBox="160 200 20 20"/><svg width="20" height="20" viewBox="0 0 52 52" x="160" y="200"><path fill="#fff" d="M45.1 40.9l4.6-4.6c.4-.4.4-1 0-1.4l-2.8-2.8c-.4-.4-1-.4-1.4 0L41 36.8l-4.3-4.3c-.4-.4-1-.4-1.4 0l-2.8 2.8c-.4.4-.4 1 0 1.4l4.3 4.3-4.2 4.2c-.4.4-.4 1 0 1.4l2.8 2.8c.4.4 1 .4 1.4 0l4.2-4.2 4.5 4.5c.4.4 1 .4 1.4 0l2.8-2.8c.4-.4.4-1 0-1.4l-4.6-4.6zM4.8 8h10.8l-4.1 23.2c-.2 1 .5 1.8 1.4 1.8H18c.7 0 1.4-.5 1.5-1.2L23.7 8h11c.7 0 1.4-.5 1.5-1.3l.5-3c.2-.9-.5-1.7-1.5-1.7h-30c-.7 0-1.3.5-1.4 1.3l-.5 3c-.2.9.5 1.7 1.5 1.7zM28 38.5c0-.8-.7-1.5-1.5-1.5h-23c-.8 0-1.5.7-1.5 1.5v3c0 .8.7 1.5 1.5 1.5h23c.8 0 1.5-.7 1.5-1.5v-3z"/></svg><view id="remove_link" viewBox="180 200 20 20"/><svg width="20" height="20" viewBox="0 0 52 52" x="180" y="200"><path fill="#fff" d="M24 36.6c-.6 0-1.2-.1-1.8-.3-.6-.1-1.3-.3-1.9-.5-.4-.1-.8 0-1 .2l-.4.4c-2.5 2.5-6.6 2.8-9.3.5-2.9-2.6-3.1-7.1-.3-9.8l6.6-6.6c.9-.9 1.9-1.4 3-1.7 1.4-.4 2.9-.3 4.2.3.8.3 1.6.8 2.2 1.5.3.3.6.7.9 1.2.3.6 1.1.7 1.6.2l2.5-2.5c.4-.4.4-.9.1-1.3-.4-.5-.8-.9-1.2-1.4-.6-.6-1.4-1.2-2.1-1.7-1.3-.8-2.6-1.3-4.1-1.6-2.7-.5-5.6-.1-8.2 1.3-1 .5-1.9 1.2-2.7 2l-6.4 6.4c-4.6 4.6-5 12.1-.5 16.9 4.7 5 12.6 5.2 17.4.3l2.2-2.2c.5-.5.1-1.5-.8-1.6zm16.5-14.1c4.8-4.8 4.7-12.7-.3-17.4C35.4.7 27.9 1 23.3 5.6l-2 2c-.6.6-.2 1.6.6 1.7 1.2.1 2.5.3 3.7.7.4.1.8 0 1-.2l.4-.4c2.5-2.5 6.6-2.8 9.3-.5 2.9 2.6 3.1 7.1.3 9.8L30 25.3c-.9.9-1.9 1.4-3 1.7-1.4.4-2.9.3-4.2-.3-.8-.3-1.6-.8-2.2-1.5-.3-.3-.6-.7-.8-1.1-.3-.6-1.1-.7-1.6-.2l-2.4 2.4c-.4.4-.4.9-.1 1.3.4.5.7.9 1.2 1.4.7.7 1.4 1.2 2.1 1.7 1.3.8 2.6 1.3 4.1 1.6 2.7.5 5.6.1 8.2-1.3 1-.5 1.9-1.2 2.7-2l6.5-6.5zM45.1 41l4.6-4.6c.4-.4.4-1 0-1.4l-2.8-2.8c-.4-.4-1-.4-1.4 0L41 36.9l-4.3-4.3c-.4-.4-1-.4-1.4 0l-2.8 2.8c-.4.4-.4 1 0 1.4l4.3 4.3-4.2 4.2c-.4.4-.4 1 0 1.4l2.8 2.8c.4.4 1 .4 1.4 0l4.2-4.2 4.5 4.5c.4.4 1 .4 1.4 0l2.8-2.8c.4-.4.4-1 0-1.4L45.1 41z"/></svg><view id="replace" viewBox="200 200 20 20"/><svg width="20" height="20" viewBox="0 0 52 52" x="200" y="200"><path fill="#fff" d="M20 37.5c0-.8-.7-1.5-1.5-1.5h-15c-.8 0-1.5.7-1.5 1.5v11c0 .8.7 1.5 1.5 1.5h15c.8 0 1.5-.7 1.5-1.5v-11zM8.1 22H3.2c-1 0-1.5.9-.9 1.4l8 8.3c.4.3 1 .3 1.4 0l8-8.3c.6-.6.1-1.4-.9-1.4h-4.7c0-5 4.9-10 9.9-10V6C15 6 8.1 13 8.1 22zm33.7-1.7c-.4-.3-1-.3-1.4 0l-8 8.3c-.6.6-.1 1.4.9 1.4h4.8c0 6-4.1 10-10.1 10v6c9 0 16.1-7 16.1-16H49c1 0 1.5-.9.9-1.4l-8.1-8.3zM50 3.5c0-.8-.7-1.5-1.5-1.5h-15c-.8 0-1.5.7-1.5 1.5v11c0 .8.7 1.5 1.5 1.5h15c.8 0 1.5-.7 1.5-1.5v-11z"/></svg><view id="reply" viewBox="220 0 20 20"/><svg width="20" height="20" viewBox="0 0 52 52" x="220"><path fill="#fff" d="M19.2 18.1s-1.1-1.1-.5-1.7l5.6-5.6c.6-.6.6-1.5 0-2.1l-2.1-2.2c-.6-.6-1.5-.6-2.1 0L6.6 20c-.6.6-.6 1.5 0 2.1l13.5 13.5c.6.6 1.5.6 2.1 0l2.1-2.1c.6-.6.6-1.5 0-2.1l-5.5-5.6c-.6-.6-.2-1.5.5-1.7 11.1.4 20.1 9.3 20.8 20.6 0 .8.7 1.4 1.5 1.4h3c.9 0 1.4-.7 1.3-1.6-.7-14.5-11.7-25.9-26.7-26.4z"/></svg><view id="reset_password" viewBox="220 20 20 20"/><svg width="20" height="20" viewBox="0 0 52 52" x="220" y="20"><path d="M42 23H10c-2.2 0-4 1.8-4 4v19c0 2.2 1.8 4 4 4h32c2.2 0 4-1.8 4-4V27c0-2.2-1.8-4-4-4zM31 44.5c-1.5 1-3.2 1.5-5 1.5-.6 0-1.2-.1-1.8-.2-2.4-.5-4.4-1.8-5.7-3.8l3.3-2.2c.7 1.1 1.9 1.9 3.2 2.1 1.3.3 2.6 0 3.8-.8 2.3-1.5 2.9-4.7 1.4-6.9-.7-1.1-1.9-1.9-3.2-2.1-1.3-.3-2.6 0-3.8.8-.3.2-.5.4-.7.6L26 37h-9v-9l2.6 2.6c.4-.4.9-.8 1.3-1.1 2-1.3 4.4-1.8 6.8-1.4 2.4.5 4.4 1.8 5.7 3.8 2.8 4.2 1.7 9.8-2.4 12.6zM10 18.1v.4-.4zm1 .9h4c.6 0 1-.3 1-.9V18c0-5.7 4.9-10.4 10.7-10 5.3.4 9.3 5 9.3 10.4v-.3c0 .6.4.9 1 .9h4c.6 0 1-.3 1-.9V18c0-9.1-7.6-16.4-16.8-16-8.5.4-15 7.6-15.2 16.1.1.5.5.9 1 .9z" fill="#fff"/></svg><view id="retweet" viewBox="220 40 20 20"/><svg width="20" height="20" viewBox="0 0 52 52" x="220" y="40"><path d="M51.6 28.8l-2.1-2.1c-.6-.6-1.5-.6-2.1 0l-2.7 2.7c-.7.7-1.7.2-1.7-.7V12c0-2.2-1.8-4-4-4H24.5c-.8 0-1.5.7-1.5 1.5v3c0 .8.7 1.5 1.5 1.5h11c.8 0 1.5.7 1.5 1.5v13.2c0 .9-1.1 1.3-1.8.7l-2.6-2.6c-.6-.6-1.6-.6-2.1 0L28.4 29c-.6.6-.6 1.5 0 2.1l10.5 10.5c.6.6 1.5.6 2.1 0L51.6 31c.5-.6.5-1.6 0-2.2zM27.5 38h-11c-.8 0-1.5-.7-1.5-1.5V23.3c0-.9 1.1-1.3 1.8-.7l2.6 2.6c.6.6 1.6.6 2.1 0l2.1-2.1c.6-.6.6-1.5 0-2.1L13.2 10.4c-.6-.6-1.5-.6-2.1 0L.4 21c-.6.6-.6 1.5 0 2.1l2.1 2.1c.6.6 1.5.6 2.1 0l2.7-2.7c.6-.6 1.7-.2 1.7.7V40c0 2.2 1.9 4 4.1 4h14.5c.8 0 1.5-.7 1.5-1.5v-3c-.1-.8-.8-1.5-1.6-1.5z" fill="#fff"/></svg><view id="richtextbulletedlist" viewBox="220 60 20 20"/><svg width="20" height="20" viewBox="0 0 52 52" x="220" y="60"><path fill="#fff" d="M8 13.5c0 .8-.7 1.5-1.5 1.5h-3c-.8 0-1.5-.7-1.5-1.5v-3C2 9.7 2.7 9 3.5 9h3c.8 0 1.5.7 1.5 1.5v3zm42-3c0-.8-.7-1.5-1.5-1.5h-35c-.8 0-1.5.7-1.5 1.5v3c0 .8.7 1.5 1.5 1.5h35c.8 0 1.5-.7 1.5-1.5v-3zm-42 14c0-.8-.7-1.5-1.5-1.5h-3c-.8 0-1.5.7-1.5 1.5v3c0 .8.7 1.5 1.5 1.5h3c.8 0 1.5-.7 1.5-1.5v-3zm38 0c0-.8-.7-1.5-1.5-1.5h-31c-.8 0-1.5.7-1.5 1.5v3c0 .8.7 1.5 1.5 1.5h31c.8 0 1.5-.7 1.5-1.5v-3zm-38 14c0-.8-.7-1.5-1.5-1.5h-3c-.8 0-1.5.7-1.5 1.5v3c0 .8.7 1.5 1.5 1.5h3c.8 0 1.5-.7 1.5-1.5v-3zm42 0c0-.8-.7-1.5-1.5-1.5h-35c-.8 0-1.5.7-1.5 1.5v3c0 .8.7 1.5 1.5 1.5h35c.8 0 1.5-.7 1.5-1.5v-3z"/></svg><view id="richtextindent" viewBox="220 80 20 20"/><svg width="20" height="20" viewBox="0 0 52 52" x="220" y="80"><path fill="#fff" d="M52 11.5c0-.8-.7-1.5-1.5-1.5h-17c-.8 0-1.5.7-1.5 1.5v3c0 .8.7 1.5 1.5 1.5h17c.8 0 1.5-.7 1.5-1.5v-3zm-4 24c0-.8-.7-1.5-1.5-1.5h-13c-.8 0-1.5.7-1.5 1.5v3c0 .8.7 1.5 1.5 1.5h13c.8 0 1.5-.7 1.5-1.5v-3zm4-12c0-.8-.7-1.5-1.5-1.5h-17c-.8 0-1.5.7-1.5 1.5v3c0 .8.7 1.5 1.5 1.5h17c.8 0 1.5-.7 1.5-1.5v-3zm-24-18c0-.8-.7-1.5-1.5-1.5h-3c-.8 0-1.5.7-1.5 1.5v41c0 .8.7 1.5 1.5 1.5h3c.8 0 1.5-.7 1.5-1.5v-41zM9.4 15.3c-.6-.6-1.4-.1-1.4.9V22H1.5c-.8 0-1.5.7-1.5 1.5v3c0 .8.7 1.5 1.5 1.5H8v5.9c0 1 .9 1.5 1.4.9l8.3-9c.3-.4.3-1 0-1.4l-8.3-9.1z"/></svg><view id="richtextnumberedlist" viewBox="220 100 20 20"/><svg width="20" height="20" viewBox="0 0 52 52" x="220" y="100"><path fill="#fff" d="M50 6.5v3c0 .8-.7 1.5-1.5 1.5h-27c-.8 0-1.5-.7-1.5-1.5v-3c0-.8.7-1.5 1.5-1.5h27c.8 0 1.5.7 1.5 1.5zM21.5 21h18c.8 0 1.5-.7 1.5-1.5v-3c0-.8-.7-1.5-1.5-1.5h-18c-.8 0-1.5.7-1.5 1.5v3c0 .8.7 1.5 1.5 1.5zm27 9h-27c-.8 0-1.5.7-1.5 1.5v3c0 .8.7 1.5 1.5 1.5h27c.8 0 1.5-.7 1.5-1.5v-3c0-.8-.7-1.5-1.5-1.5zm-9 10h-18c-.8 0-1.5.7-1.5 1.5v3c0 .8.7 1.5 1.5 1.5h18c.8 0 1.5-.7 1.5-1.5v-3c0-.8-.7-1.5-1.5-1.5zM3.5 8H6v12.5c0 .8.7 1.5 1.5 1.5h1c.8 0 1.5-.7 1.5-1.5V6c0-1.1-.9-2-2-2H3.5C2.7 4 2 4.7 2 5.5v1C2 7.3 2.7 8 3.5 8zM12 28H3.5c-.8 0-1.5.7-1.5 1.5v1c0 .8.7 1.5 1.5 1.5H10v4H4c-1.1 0-2 .9-2 2v8c0 1.1.9 2 2 2h8.5c.8 0 1.5-.7 1.5-1.5v-1c0-.8-.7-1.5-1.5-1.5H6v-4h6c1.1 0 2-.9 2-2v-8c0-1.1-.9-2-2-2z"/></svg><view id="richtextoutdent" viewBox="220 120 20 20"/><svg width="20" height="20" viewBox="0 0 52 52" x="220" y="120"><path fill="#fff" d="M16.4 22H10v-5.9c0-1-.9-1.5-1.4-.9l-8.3 9c-.3.4-.3 1 0 1.4l8.3 9c.6.6 1.4.1 1.4-.9V28h6.4c.8 0 1.6-.7 1.6-1.5v-3c0-.8-.8-1.5-1.6-1.5zM52 11.5c0-.8-.7-1.5-1.5-1.5h-17c-.8 0-1.5.7-1.5 1.5v3c0 .8.7 1.5 1.5 1.5h17c.8 0 1.5-.7 1.5-1.5v-3zm-4 24c0-.8-.7-1.5-1.5-1.5h-13c-.8 0-1.5.7-1.5 1.5v3c0 .8.7 1.5 1.5 1.5h13c.8 0 1.5-.7 1.5-1.5v-3zm4-12c0-.8-.7-1.5-1.5-1.5h-17c-.8 0-1.5.7-1.5 1.5v3c0 .8.7 1.5 1.5 1.5h17c.8 0 1.5-.7 1.5-1.5v-3zm-24-18c0-.8-.7-1.5-1.5-1.5h-3c-.8 0-1.5.7-1.5 1.5v41c0 .8.7 1.5 1.5 1.5h3c.8 0 1.5-.7 1.5-1.5v-41z"/></svg><view id="right" viewBox="220 140 20 20"/><svg width="20" height="20" viewBox="0 0 52 52" x="220" y="140"><path fill="#fff" d="M14 43.7V8.3c0-1 1.3-1.7 2.2-.9l21.2 17.3c.8.6.8 1.9 0 2.5L16.2 44.7c-.9.7-2.2.1-2.2-1z"/></svg><view id="right_align_text" viewBox="220 160 20 20"/><svg width="20" height="20" viewBox="0 0 52 52" x="220" y="160"><path fill="#fff" d="M46.5 5h-41C4.7 5 4 5.7 4 6.5v3c0 .8.7 1.5 1.5 1.5h41c.8 0 1.5-.7 1.5-1.5v-3c0-.8-.7-1.5-1.5-1.5zm0 12h-33c-.8 0-1.5.7-1.5 1.5v3c0 .8.7 1.5 1.5 1.5h33c.8 0 1.5-.7 1.5-1.5v-3c0-.8-.7-1.5-1.5-1.5zm0 24h-33c-.8 0-1.5.7-1.5 1.5v3c0 .8.7 1.5 1.5 1.5h33c.8 0 1.5-.7 1.5-1.5v-3c0-.8-.7-1.5-1.5-1.5zm0-12h-41c-.8 0-1.5.7-1.5 1.5v3c0 .8.7 1.5 1.5 1.5h41c.8 0 1.5-.7 1.5-1.5v-3c0-.8-.7-1.5-1.5-1.5z"/></svg><view id="rotate" viewBox="220 180 20 20"/><svg width="20" height="20" viewBox="0 0 52 52" x="220" y="180"><path d="M48.5 2h-3c-.8 0-1.5.7-1.5 1.5v7c0 .9-1 1.5-1.6.8C37.7 6.1 31 3.4 23.7 4.1c-2.6.2-5.1 1-7.4 2.2-1.2.6-2.4 1.3-3.4 2.1-.7.5-.8 1.6-.2 2.3l2.1 2.1c.5.5 1.3.6 1.9.2 1.2-.8 2.5-1.5 3.9-2.1.6-.2 1.3-.4 2-.6 6.3-1.2 12.3 1.3 15.7 5.4 1.2 1.4.3 2.3-.7 2.3h-7c-.8 0-1.6.7-1.6 1.5v3c0 .8.8 1.5 1.6 1.5h18.2c.7 0 1.2-.6 1.2-1.3V3.5c0-.8-.7-1.5-1.5-1.5zm-9.1 35.4c-.6-.6-1.5-.6-2.1 0-1.6 1.6-3.6 2.9-5.8 3.7-.6.2-1.3.4-2 .6-6.3 1.2-12.3-1.3-15.7-5.4-1.2-1.4-.3-2.3.7-2.3h7c.8 0 1.5-.7 1.5-1.5v-3c0-.8-.7-1.5-1.5-1.5H3.3c-.7 0-1.3.6-1.3 1.3v19.2c0 .8.7 1.5 1.5 1.5h3c.8 0 1.5-.7 1.5-1.5v-7c0-.9 1-1.5 1.6-.8 4.6 5.2 11.4 7.9 18.7 7.2 2.6-.2 5.1-1 7.4-2.2 2.2-1.1 4.1-2.5 5.7-4.1.6-.6.6-1.6 0-2.1l-2-2.1z" fill="#fff"/></svg><view id="rows" viewBox="220 200 20 20"/><svg width="20" height="20" viewBox="0 0 52 52" x="220" y="200"><path fill="#fff" d="M46.5 14h-41c-.8 0-1.5-.7-1.5-1.5v-3C4 8.7 4.7 8 5.5 8h41c.8 0 1.5.7 1.5 1.5v3c0 .8-.7 1.5-1.5 1.5zm0 14.9h-41c-.8 0-1.5-.7-1.5-1.5v-3c0-.7.7-1.4 1.5-1.4h41c.8 0 1.5.7 1.5 1.5v3c0 .7-.7 1.4-1.5 1.4zm0 15.1h-41c-.8 0-1.5-.7-1.5-1.5v-3c0-.8.7-1.5 1.5-1.5h41c.8 0 1.5.7 1.5 1.5v3c0 .8-.7 1.5-1.5 1.5z"/></svg><view id="salesforce1" viewBox="0 220 20 20"/><svg width="20" height="20" viewBox="0 0 52 52" y="220"><path fill="#fff" d="M21.7 11.9c1.7-1.7 4-2.8 6.6-2.8 3.4 0 6.4 1.9 8 4.7 1.4-.6 2.9-1 4.5-1C47 12.8 52 17.8 52 24s-5 11.2-11.2 11.2c-.8 0-1.5-.1-2.2-.2-1.4 2.5-4.1 4.2-7.2 4.2-1.3 0-2.5-.3-3.6-.8-1.4 3.3-4.7 5.6-8.6 5.6-4 0-7.5-2.5-8.8-6.1-.6.1-1.2.2-1.8.2-4.8 0-8.7-3.9-8.7-8.7 0-3.2 1.7-6 4.3-7.5-.5-1.2-.8-2.6-.8-4 0-5.5 4.5-10 10.1-10 3.5.1 6.4 1.6 8.2 4"/></svg><view id="search" viewBox="20 220 20 20"/><svg width="20" height="20" viewBox="0 0 52 52" x="20" y="220"><path fill="#fff" d="M49.6 45.3L36.2 32c2.7-3.8 4.1-8.6 3.4-13.7-1.2-8.6-8.2-15.4-16.9-16.2C10.9.9.9 10.9 2.1 22.8c.8 8.6 7.6 15.7 16.2 16.9 5.1.7 9.9-.7 13.7-3.4l13.3 13.3c.6.6 1.5.6 2.1 0l2.1-2.1c.6-.6.6-1.6.1-2.2zM8 20.9C8 13.8 13.8 8 20.9 8s12.9 5.8 12.9 12.9S28 33.8 20.9 33.8 8 28.1 8 20.9z"/></svg><view id="settings" viewBox="40 220 20 20"/><svg width="20" height="20" viewBox="0 0 52 52" x="40" y="220"><path d="M26.1 19.1c-3.9 0-7 3.1-7 7s3.1 7 7 7 7-3.1 7-7-3.1-7-7-7zm21 13.3l-3.7-3.1c.2-1.1.3-2.3.3-3.4s-.1-2.3-.3-3.4l3.7-3.1c1.2-1 1.6-2.8.8-4.2l-1.6-2.8c-.6-1-1.7-1.6-2.9-1.6-.4 0-.8.1-1.1.2l-4.6 1.7c-1.8-1.6-3.8-2.7-5.9-3.4L31 4.6c-.3-1.6-1.7-2.5-3.3-2.5h-3.2c-1.6 0-3 .9-3.3 2.5l-.8 4.6c-2.2.7-4.2 1.9-6 3.4l-4.6-1.7c-.4-.1-.7-.2-1.1-.2-1.2 0-2.3.6-2.9 1.6l-1.6 2.8c-.8 1.4-.5 3.2.8 4.2l3.7 3.1c-.2 1.1-.3 2.3-.3 3.4 0 1.2.1 2.3.3 3.4L5 32.3c-1.2 1-1.6 2.8-.8 4.2l1.6 2.8c.6 1 1.7 1.6 2.9 1.6.4 0 .8-.1 1.1-.2l4.6-1.7c1.8 1.6 3.8 2.7 5.9 3.4l.8 4.8c.3 1.6 1.6 2.7 3.3 2.7h3.2c1.6 0 3-1.2 3.3-2.8l.8-4.8c2.3-.8 4.4-2 6.2-3.7l4.3 1.7c.4.1.8.2 1.2.2 1.2 0 2.3-.6 2.9-1.6l1.5-2.6c.9-1.1.5-2.9-.7-3.9zm-21 4.7c-6.1 0-11-4.9-11-11s4.9-11 11-11 11 4.9 11 11-4.9 11-11 11z" fill="#fff"/></svg><view id="setup" viewBox="60 220 20 20"/><svg width="20" height="20" viewBox="0 0 52 52" x="60" y="220"><path fill="#fff" d="M46.8 32.4l-3.7-3.1c.2-1.1.3-2.3.3-3.4s-.1-2.3-.3-3.4l3.7-3.1c1.2-1 1.6-2.8.8-4.2L46 12.3c-.6-1-1.7-1.6-2.9-1.6-.4 0-.8.1-1.1.2l-4.5 1.7c-1.8-1.6-3.8-2.7-5.8-3.4l-.8-4.7C30.6 2.9 29.2 2 27.6 2h-3.2c-1.6 0-3 .9-3.3 2.5l-.8 4.6c-2.2.7-4.1 1.9-5.9 3.4L10 10.8c-.4-.1-.7-.2-1.1-.2-1.2 0-2.3.6-2.9 1.6L4.4 15c-.8 1.4-.5 3.2.8 4.2l3.7 3.1c-.2 1.1-.3 2.3-.3 3.4 0 1.2.1 2.3.3 3.4l-3.7 3.1c-1.2 1-1.6 2.8-.8 4.2l1.6 3c.6 1 1.7 1.6 2.9 1.6.4 0 .8-.1 1.1-.2l4.5-1.7c1.8 1.6 3.8 2.7 5.8 3.4l.8 4.8c.3 1.6 1.6 2.7 3.3 2.7h3.2c1.6 0 3-1.2 3.3-2.8l.8-4.8c2.3-.8 4.3-2 6.1-3.7l4.2 1.7c.4.1.8.2 1.2.2 1.2 0 2.3-.6 2.9-1.6l1.5-2.6c.8-1.2.4-3-.8-4zm-20.7 4.7c-6 0-10.9-4.9-10.9-11s4.8-11 10.9-11S37 20 37 26.1s-4.9 11-10.9 11zM29 18h-4.6c-.7 0-1.3.4-1.5 1l-2.8 7.2c-.2.5.2 1.1.8 1.1h4.7l-1.7 6c-.2.6.5.9.9.5l7.1-8.3c.5-.5.1-1.3-.6-1.3h-3.5l3.1-4.9c.3-.5-.1-1.2-.7-1.2H29z"/></svg><view id="setup_assistant_guide" viewBox="80 220 20 20"/><svg width="20" height="20" viewBox="0 0 52 52" x="80" y="220"><path d="M11.5 24.9c0-.4-.5-.6-.8-.4l-4.5 3.7c-.2.2-.2.5-.2.8v15.9c0 1 1.4 1.5 2.3.8l7.3-5.7c.2-.2.3-.4.1-.7-1.8-2.7-3.6-7.2-4.2-14.4zm9.7 14.9c.2.1.4.2.6.2h8.3c.2 0 .4-.1.6-.2 1.2-.8 6-4.8 6-18.4 0-6.3-1.8-10.7-3.9-13.7C29.7 3.3 26 2 26 2s-3.8 1.3-6.9 5.8c-2.1 3-3.8 7.3-3.8 13.6C15.3 35 20 39 21.2 39.8zM25.9 13c3.3 0 6 2.7 6 6s-2.7 6-6 6-6-2.7-6-6 2.7-6 6-6zm19.8 15.2l-4.4-3.7c-.3-.3-.8-.1-.8.4-.6 7.2-2.4 11.7-4.1 14.5-.1.2-.1.5.1.7l7.3 5.7c.9.7 2.2.2 2.2-.8V29c0-.3 0-.6-.3-.8zM32.2 44.5c-.2-.3-.5-.5-.8-.5h-11c-.3 0-.7.2-.8.5-.4.6-1 1.7-1.4 3.1-.3 1.2.7 2.4 2 2.4h11.4c1.3 0 2.3-1.2 2-2.4-.4-1.5-1-2.6-1.4-3.1z" fill="#fff"/></svg><view id="share" viewBox="100 220 20 20"/><svg width="20" height="20" viewBox="0 0 52 52" x="100" y="220"><path d="M48.5 30h-3c-.8 0-1.5.7-1.5 1.5v11c0 .8-.7 1.5-1.5 1.5h-33c-.8 0-1.5-.7-1.5-1.5v-21c0-.8.7-1.5 1.5-1.5h4c.8 0 1.5-.7 1.5-1.5v-3c0-.8-.7-1.5-1.5-1.5H6c-2.2 0-4 1.8-4 4v28c0 2.2 1.8 4 4 4h40c2.2 0 4-1.8 4-4V31.5c0-.8-.7-1.5-1.5-1.5zM34 14c-10 0-19.1 8.9-19.9 19.4-.1.8.6 1.6 1.5 1.6h3c.8 0 1.4-.6 1.5-1.3C20.8 26.2 27.2 20 35 20h1.6c.9 0 1.3 1.1.7 1.7l-5.5 5.6c-.6.6-.6 1.5 0 2.1l2.1 2.1c.6.6 1.5.6 2.1 0L49.6 18c.6-.6.6-1.5 0-2.1L36.1 2.4c-.6-.6-1.5-.6-2.1 0l-2.1 2.1c-.6.6-.7 1.5-.1 2.1l5.6 5.6c.6.6.2 1.7-.7 1.7L34 14z" fill="#fff"/></svg><view id="shield" viewBox="120 220 20 20"/><svg width="20" height="20" viewBox="0 0 52 52" x="120" y="220"><path d="M4.8 14h42.4c1 0 1.8-1 1.5-2-1-3.3-2.4-6.3-4.3-9-.6-.8-1.7-.9-2.3-.2-1.9 1.8-4.6 2.8-7.4 2.8-3 0-5.7-1.2-7.7-3.2-.6-.6-1.6-.6-2.2 0-2 2-4.7 3.2-7.7 3.2-2.8 0-5.4-1-7.4-2.8-.7-.6-1.8-.5-2.3.2C5.5 5.6 4 8.7 3.1 12c-.1 1 .7 2 1.7 2zM50 20.4c0-.9-.7-1.4-1.6-1.4H3.6c-.9 0-1.6.5-1.6 1.4v.3c0 15 10.4 27.4 24 29.3 13.6-1.9 24-14.3 24-29.2v-.4z" fill="#fff"/></svg><view id="side_list" viewBox="140 220 20 20"/><svg width="20" height="20" viewBox="0 0 52 52" x="140" y="220"><path fill="#fff" d="M48.5 4h-27c-.8 0-1.5.7-1.5 1.5v41c0 .8.7 1.5 1.5 1.5h27c.8 0 1.5-.7 1.5-1.5v-41c0-.8-.7-1.5-1.5-1.5zm-34 0h-11C2.7 4 2 4.7 2 5.5v5c0 .8.7 1.5 1.5 1.5h11c.8 0 1.5-.7 1.5-1.5v-5c0-.8-.7-1.5-1.5-1.5zm0 12h-11c-.8 0-1.5.7-1.5 1.5v5c0 .8.7 1.5 1.5 1.5h11c.8 0 1.5-.7 1.5-1.5v-5c0-.8-.7-1.5-1.5-1.5zm0 12h-11c-.8 0-1.5.7-1.5 1.5v5c0 .8.7 1.5 1.5 1.5h11c.8 0 1.5-.7 1.5-1.5v-5c0-.8-.7-1.5-1.5-1.5zm0 12h-11c-.8 0-1.5.7-1.5 1.5v5c0 .8.7 1.5 1.5 1.5h11c.8 0 1.5-.7 1.5-1.5v-5c0-.8-.7-1.5-1.5-1.5z"/></svg><view id="signpost" viewBox="160 220 20 20"/><svg width="20" height="20" viewBox="0 0 52 52" x="160" y="220"><path d="M49.5 9l-4.2-3.1c-.6-.4-1.2-.6-1.9-.6H29.2V3.6c0-.9-.7-1.6-1.6-1.6h-3.2c-.9 0-1.6.7-1.6 1.6v1.6h-16c-.9 0-1.6.7-1.6 1.6v6.4c0 .9.7 1.6 1.6 1.6h36.6c.7 0 1.4-.2 1.9-.6l4.2-3.1c.7-.6.7-1.6 0-2.1zm-4.3 13.8h-16v-2.4c0-.5-.3-.8-.8-.8h-4.8c-.5 0-.8.3-.8.8v2.4H8.6c-.7 0-1.4.2-1.9.6l-4.2 3.1c-.7.5-.7 1.5 0 2.1l4.2 3.1c.6.4 1.2.6 1.9.6h36.6c.9 0 1.6-.7 1.6-1.6v-6.4c0-.8-.7-1.5-1.6-1.5zm-16 20.5V38c0-.5-.3-.8-.8-.8h-4.8c-.5 0-.8.3-.8.8v5.3c-3.2.9-5 2.8-5.5 5.2-.2.7.4 1.5 1.2 1.5h15.1c.8 0 1.4-.7 1.2-1.5-.6-2.4-2.4-4.3-5.6-5.2z" fill="#fff"/></svg><view id="sms" viewBox="180 220 20 20"/><svg width="20" height="20" viewBox="0 0 52 52" x="180" y="220"><path fill="#fff" d="M26 4C12.7 4 2.1 13.8 2.1 25.9c0 3.8 1.1 7.4 2.9 10.6.3.5.4 1.1.2 1.7l-3.1 8.5c-.3.8.5 1.5 1.3 1.3l8.6-3.3c.5-.2 1.1-.1 1.7.2 3.6 2 7.9 3.2 12.5 3.2C39.3 48 50 38.2 50 26.1 49.9 13.8 39.2 4 26 4zm-9.6 25.6c-.3.5-.6 1-1 1.3s-.9.6-1.5.8c-.5.2-1.1.2-1.7.2-.8 0-1.5-.1-2.2-.4-.7-.3-1.4-.7-1.9-1.3l-.2-.2c-.1-.1 0-.3.2-.5L9.7 28c.2-.2.4-.2.5-.1s.2.3.2.3c.2.3.5.5.8.7.5.3 1 .3 1.6.2.2 0 .3-.1.5-.2l.3-.3c.1-.1.1-.3.1-.4 0-.4-.1-.5-.2-.6-.2-.2-.5-.4-.9-.5s-.8-.3-1.3-.4c-.5-.2-1-.4-1.4-.6-.5-.3-.8-.7-1.1-1.1-.3-.5-.5-1.1-.5-1.9 0-.7.1-1.3.4-1.8.3-.5.6-.9 1.1-1.2.4-.3.9-.6 1.5-.7 1.2-.3 2.4-.3 3.6.1.6.2 1.2.6 1.5.8l.3.2c.2.1.1.4-.1.6l-1.5 1.5c-.2.2-.5.2-.7 0-.2-.1-.3-.3-.4-.3-.5-.3-1.2-.4-1.8-.3-.2 0-.3.1-.4.2l-.3.3c-.1.1-.1.2-.1.4 0 .3.1.4.2.5.2.2.5.3.9.5.4.1.8.3 1.3.4.5.2 1 .4 1.4.6.5.3.8.7 1.1 1.1.3.5.5 1.1.5 1.9 0 .6-.1 1.2-.4 1.7zM33 31c0 .6-.5 1-1.1 1h-1c-.6 0-.9-.4-.9-1v-5.9c0-.6-.8-.7-1-.2l-1.7 4.5c-.1.4-.5.6-.9.6h-.7c-.4 0-.8-.3-.9-.6L23 24.9c-.2-.5-1-.4-1 .2V31c0 .6-.5 1-1.1 1h-1c-.6 0-.9-.4-.9-1V20c0-.6.4-1 .9-1h2.6c.4 0 .8.3.9.6l2 5.2c.2.4.8.4.9 0l2-5.2c.1-.4.5-.6.9-.6h2.7c.6 0 1.1.4 1.1 1v11zm10.5-1.3c-.3.5-.6 1-1.1 1.3-.4.3-.9.6-1.5.8s-1.1.2-1.7.2c-.8 0-1.5-.1-2.2-.4-.7-.3-1.4-.7-1.9-1.3l-.2-.2c-.1-.1 0-.3.2-.5l1.6-1.5c.2-.2.4-.2.5-.1s.2.3.2.3c.2.3.5.5.8.7.5.3 1.1.3 1.6.2.2-.1.4-.1.5-.2l.3-.3s.1-.3.1-.4c0-.4-.1-.5-.2-.6-.2-.2-.5-.4-.9-.5s-.8-.3-1.3-.4c-.5-.2-1-.4-1.4-.6-.5-.3-.9-.7-1.2-1.1-.3-.5-.5-1.1-.5-1.9 0-.7.1-1.3.4-1.8.3-.5.6-.9 1.1-1.2.4-.3 1-.6 1.5-.7 1.2-.3 2.4-.3 3.6.1.6.2 1.2.6 1.5.9l.3.3c.2.1.1.4-.1.6L42 22.9c-.2.2-.5.2-.7 0-.2-.1-.3-.3-.4-.3-.5-.3-1.2-.4-1.8-.3-.2 0-.3.1-.4.2l-.3.3c-.1.1-.1.3-.1.4 0 .3.1.4.2.5.2.2.5.3.9.5.4.1.8.3 1.3.4.5.2 1 .4 1.4.6.5.3.8.7 1.2 1.1.3.5.5 1.1.5 1.9.1.3 0 1-.3 1.5z"/></svg><view id="snippet" viewBox="200 220 20 20"/><svg width="20" height="20" viewBox="0 0 52 52" x="200" y="220"><path fill="#fff" d="M14.5 6h-11C2.7 6 2 6.7 2 7.5v13c0 .8.7 1.5 1.5 1.5h11c.8 0 1.5-.7 1.5-1.5v-13c0-.8-.7-1.5-1.5-1.5zm34 0h-27c-.8 0-1.5.7-1.5 1.5v3c0 .8.7 1.5 1.5 1.5h27c.8 0 1.5-.7 1.5-1.5v-3c0-.8-.7-1.5-1.5-1.5zm-27 16h17c.8 0 1.5-.7 1.5-1.5v-3c0-.8-.7-1.5-1.5-1.5h-17c-.8 0-1.5.7-1.5 1.5v3c0 .8.7 1.5 1.5 1.5zm-7 8h-11c-.8 0-1.5.7-1.5 1.5v13c0 .8.7 1.5 1.5 1.5h11c.8 0 1.5-.7 1.5-1.5v-13c0-.8-.7-1.5-1.5-1.5zm34 0h-27c-.8 0-1.5.7-1.5 1.5v3c0 .8.7 1.5 1.5 1.5h27c.8 0 1.5-.7 1.5-1.5v-3c0-.8-.7-1.5-1.5-1.5zm-10 10h-17c-.8 0-1.5.7-1.5 1.5v3c0 .8.7 1.5 1.5 1.5h17c.8 0 1.5-.7 1.5-1.5v-3c0-.8-.7-1.5-1.5-1.5z"/></svg><view id="socialshare" viewBox="220 220 20 20"/><svg width="20" height="20" viewBox="0 0 52 52" x="220" y="220"><path fill="#fff" d="M40.9 32c-2.6 0-4.9 1.1-6.5 2.8l-14.6-7.3c.1-.5.1-1 .1-1.6 0-.5-.1-1.1-.1-1.6L34.4 17c1.6 1.8 4 2.9 6.6 2.9 5 0 9-4 9-9s-4-9-9-9-9 4-9 9v.6l-15.1 7.6c-1.7-1.3-3.7-2.1-6-2.1-5 0-9 4-9 9s4 9 9 9c2.3 0 4.3-.8 5.9-2.2l15.1 7.5v.7c0 5 4 9 9 9s9-4 9-9-4-9-9-9z"/></svg><view id="sort" viewBox="240 0 20 20"/><svg width="20" height="20" viewBox="0 0 52 52" x="240"><path d="M27.5 16c.6-.6.6-1.5 0-2.1L16.1 2.4c-.6-.6-1.5-.6-2.1 0L2.5 13.9c-.6.6-.6 1.5 0 2.1l2.1 2.1c.6.6 1.5.6 2.1 0l3.6-3.6c.6-.6 1.7-.2 1.7.7v21.2c0 .8.7 1.5 1.5 1.5h3c.8 0 1.5-.8 1.5-1.5V15.2c0-.9 1.1-1.3 1.7-.7l3.6 3.6c.6.6 1.5.6 2.1 0l2.1-2.1zm22 20l-2.1-2c-.6-.6-1.5-.6-2.1 0l-3.6 3.6c-.6.6-1.7.2-1.7-.7V15.5c0-.8-.7-1.5-1.5-1.5h-3c-.8 0-1.5.8-1.5 1.5v21.2c0 .9-1.1 1.3-1.7.7l-3.6-3.6c-.6-.6-1.5-.6-2.1 0L24.5 36c-.6.6-.6 1.5 0 2.1L36 49.6c.6.6 1.5.6 2.1 0l11.5-11.5c.5-.6.5-1.6-.1-2.1z" fill="#fff"/></svg><view id="spinner" viewBox="240 20 20 20"/><svg width="20" height="20" viewBox="0 0 52 52" x="240" y="20"><path d="M16 27.5v-3c0-.8-.7-1.5-1.5-1.5h-11c-.8 0-1.5.7-1.5 1.5v3c0 .8.7 1.5 1.5 1.5h11c.8 0 1.5-.7 1.5-1.5zm1.9 4.5c-.6-.6-1.5-.6-2.1 0L8 39.8c-.6.6-.6 1.5 0 2.1l2.1 2.1c.6.6 1.5.6 2.1 0l7.8-7.8c.6-.6.6-1.5 0-2.1L17.9 32zm16.2-12c.6.6 1.5.6 2.1 0l7.8-7.8c.6-.6.6-1.5 0-2.1L41.9 8c-.6-.6-1.5-.6-2.1 0L32 15.7c-.6.6-.6 1.5 0 2.1l2.1 2.2zM12.2 8c-.6-.6-1.5-.6-2.1 0L8 10.1c-.6.6-.6 1.5 0 2.1l7.8 7.8c.6.6 1.5.6 2.1 0l2.1-2.1c.6-.6.6-1.5 0-2.1L12.2 8zm24.1 24c-.6-.6-1.5-.6-2.1 0L32 34.1c-.6.6-.6 1.5 0 2.1l7.8 7.8c.6.6 1.5.6 2.1 0l2.1-2.1c.6-.6.6-1.5 0-2.1L36.3 32zm-8.8 4h-3c-.8 0-1.5.7-1.5 1.5v11c0 .8.7 1.5 1.5 1.5h3c.8 0 1.5-.7 1.5-1.5v-11c0-.8-.7-1.5-1.5-1.5zm21-13h-11c-.8 0-1.5.7-1.5 1.5v3c0 .8.7 1.5 1.5 1.5h11c.8 0 1.5-.7 1.5-1.5v-3c0-.8-.7-1.5-1.5-1.5zm-21-21h-3c-.8 0-1.5.7-1.5 1.5v11c0 .8.7 1.5 1.5 1.5h3c.8 0 1.5-.7 1.5-1.5v-11c0-.8-.7-1.5-1.5-1.5z" fill="#fff"/></svg><view id="standard_objects" viewBox="240 40 20 20"/><svg width="20" height="20" viewBox="0 0 52 52" x="240" y="40"><path fill="#fff" d="M46.2 38.9L27.4 49.6c-1 .6-2.3.6-3.3 0L5.4 38.9c-.8-.4-.8-1.4 0-1.8l4.4-2.5c.3-.2.7-.2 1 0l11.4 6.5c1.1.6 2.3.9 3.6.9s2.5-.3 3.6-.9l11.4-6.5c.3-.2.7-.2 1 0l4.4 2.5c.8.4.8 1.4 0 1.8zm0-12L27.4 37.6c-1 .6-2.3.6-3.3 0L5.4 26.9c-.8-.4-.8-1.4 0-1.8l4.4-2.5c.3-.2.7-.2 1 0l11.4 6.5c1.1.6 2.3.9 3.6.9s2.5-.3 3.6-.9l11.4-6.5c.3-.2.7-.2 1 0l4.4 2.5c.8.4.8 1.4 0 1.8zm-21.9-1.3L5.5 14.9c-.8-.4-.8-1.4 0-1.8L24.3 2.4c1-.6 2.3-.6 3.3 0l18.8 10.7c.8.4.8 1.4 0 1.8L27.6 25.6c-1 .5-2.3.5-3.3 0z"/></svg><view id="stop" viewBox="240 60 20 20"/><svg width="20" height="20" viewBox="0 0 52 52" x="240" y="60"><path fill="#fff" d="M8 8h36v36H8V8z"/></svg><view id="strikethrough" viewBox="240 80 20 20"/><svg width="20" height="20" viewBox="0 0 52 52" x="240" y="80"><path fill="#fff" d="M12.1 18.1c-.2-1-.3-2.2-.3-3.4 0-1.3.3-2.8.9-4.2.6-1.5 1.5-2.9 2.8-4.1 1.2-1.2 2.9-2.3 4.8-3.1 2-.8 4.3-1.3 7.1-1.3 2.5 0 4.9.3 7.2 1 1.8.6 3.5 1.6 5 3 .6.6.6 1.6-.1 2.2l-2.7 2.5c-.6.5-1.5.6-2.1 0-.7-.7-1.5-1.3-2.4-1.8-1.4-.7-3-1.1-4.9-1.1-1.7 0-3.2.2-4.3.7s-2.1 1-2.8 1.8-1.2 1.5-1.5 2.3-.4 1.6-.4 2.2c0 1.1.2 2 .5 2.8.3.7-.2 1.4-.9 1.4h-4.9c-.5 0-.9-.5-1-.9zM39.9 33h-5c-.7 0-1.2.7-.9 1.3.3.6.4 1.4.4 2.2 0 1.2-.3 2.3-.8 3.3-.6 1-1.3 1.7-2.2 2.4-.9.6-1.9 1.1-3 1.4-1.1.3-2.1.5-3.2.5-1.9 0-3.7-.4-5.4-1.2-1.3-.6-2.4-1.4-3.4-2.5-.5-.6-1.5-.7-2.1-.2l-2.8 2.4c-.6.5-.7 1.5-.1 2.1 1.4 1.6 3.2 2.8 5.3 3.6 2.6 1 5.4 1.5 8.4 1.5 2.2 0 4.3-.3 6.2-1 1.9-.6 3.6-1.6 5.1-2.8 1.4-1.2 2.6-2.7 3.4-4.5.8-1.8 1.3-3.7 1.3-5.9 0-.8 0-1.3-.1-2-.2-.2-.6-.6-1.1-.6zm10-9.1c-.2-.6-.8-.9-1.4-.9h-45c-.7 0-1.2.3-1.4.9-.1.2-.1.3-.1.5v3c0 .8.7 1.6 1.5 1.6h45c.8 0 1.5-.8 1.5-1.6v-3c0-.2 0-.3-.1-.5z"/></svg><view id="success" viewBox="240 100 20 20"/><svg width="20" height="20" viewBox="0 0 52 52" x="240" y="100"><path fill="#fff" d="M26 2C12.7 2 2 12.7 2 26s10.7 24 24 24 24-10.7 24-24S39.3 2 26 2zm13.4 18L24.1 35.5c-.6.6-1.6.6-2.2 0L13.5 27c-.6-.6-.6-1.6 0-2.2l2.2-2.2c.6-.6 1.6-.6 2.2 0l4.4 4.5c.4.4 1.1.4 1.5 0L35 15.5c.6-.6 1.6-.6 2.2 0l2.2 2.2c.7.6.7 1.6 0 2.3z"/></svg><view id="summary" viewBox="240 120 20 20"/><svg width="20" height="20" viewBox="0 0 52 52" x="240" y="120"><path fill="#fff" d="M48.5 2h-45C2.7 2 2 2.7 2 3.5v5c0 .8.7 1.5 1.5 1.5h45c.8 0 1.5-.7 1.5-1.5v-5c0-.8-.7-1.5-1.5-1.5zm0 12h-35c-.8 0-1.5.7-1.5 1.5v3c0 .8.7 1.5 1.5 1.5h35c.8 0 1.5-.7 1.5-1.5v-3c0-.8-.7-1.5-1.5-1.5zm0 20h-35c-.8 0-1.5.7-1.5 1.5v3c0 .8.7 1.5 1.5 1.5h35c.8 0 1.5-.7 1.5-1.5v-3c0-.8-.7-1.5-1.5-1.5zm0 10h-39c-.8 0-1.5-.7-1.5-1.5v-7c0-.8-.7-1.5-1.5-1.5h-3c-.8 0-1.5.7-1.5 1.5v13c0 .8.7 1.5 1.5 1.5h45c.8 0 1.5-.7 1.5-1.5v-3c0-.8-.7-1.5-1.5-1.5zm0-20h-39c-.8 0-1.5-.7-1.5-1.5v-7c0-.8-.7-1.5-1.5-1.5h-3c-.8 0-1.5.7-1.5 1.5v13c0 .8.7 1.5 1.5 1.5h45c.8 0 1.5-.7 1.5-1.5v-3c0-.8-.7-1.5-1.5-1.5z"/></svg><view id="summarydetail" viewBox="240 140 20 20"/><svg width="20" height="20" viewBox="0 0 52 52" x="240" y="140"><path fill="#fff" d="M48.5 2h-45C2.7 2 2 2.7 2 3.5v5c0 .8.7 1.5 1.5 1.5h45c.8 0 1.5-.7 1.5-1.5v-5c0-.8-.7-1.5-1.5-1.5zm-28 12h-7c-.8 0-1.5.7-1.5 1.5v3c0 .8.7 1.5 1.5 1.5h7c.8 0 1.5-.7 1.5-1.5v-3c0-.8-.7-1.5-1.5-1.5zm14 0h-7c-.8 0-1.5.7-1.5 1.5v3c0 .8.7 1.5 1.5 1.5h7c.8 0 1.5-.7 1.5-1.5v-3c0-.8-.7-1.5-1.5-1.5zm14 0h-7c-.8 0-1.5.7-1.5 1.5v3c0 .8.7 1.5 1.5 1.5h7c.8 0 1.5-.7 1.5-1.5v-3c0-.8-.7-1.5-1.5-1.5zm-28 20h-7c-.8 0-1.5.7-1.5 1.5v3c0 .8.7 1.5 1.5 1.5h7c.8 0 1.5-.7 1.5-1.5v-3c0-.8-.7-1.5-1.5-1.5zm14 0h-7c-.8 0-1.5.7-1.5 1.5v3c0 .8.7 1.5 1.5 1.5h7c.8 0 1.5-.7 1.5-1.5v-3c0-.8-.7-1.5-1.5-1.5zm14 0h-7c-.8 0-1.5.7-1.5 1.5v3c0 .8.7 1.5 1.5 1.5h7c.8 0 1.5-.7 1.5-1.5v-3c0-.8-.7-1.5-1.5-1.5zm0 10h-39c-.8 0-1.5-.7-1.5-1.5v-7c0-.8-.7-1.5-1.5-1.5h-3c-.8 0-1.5.7-1.5 1.5v13c0 .8.7 1.5 1.5 1.5h45c.8 0 1.5-.7 1.5-1.5v-3c0-.8-.7-1.5-1.5-1.5zm0-20h-39c-.8 0-1.5-.7-1.5-1.5v-7c0-.8-.7-1.5-1.5-1.5h-3c-.8 0-1.5.7-1.5 1.5v13c0 .8.7 1.5 1.5 1.5h45c.8 0 1.5-.7 1.5-1.5v-3c0-.8-.7-1.5-1.5-1.5z"/></svg><view id="switch" viewBox="240 160 20 20"/><svg width="20" height="20" viewBox="0 0 52 52" x="240" y="160"><path fill="#fff" d="M47.6 17.8L27.1 38.5c-.6.6-1.6.6-2.2 0L4.4 17.8c-.6-.6-.6-1.6 0-2.2l2.2-2.2c.6-.6 1.6-.6 2.2 0l16.1 16.3c.6.6 1.6.6 2.2 0l16.1-16.3c.6-.6 1.6-.6 2.2 0l2.2 2.2c.5.7.5 1.6 0 2.2z"/></svg><view id="table" viewBox="240 180 20 20"/><svg width="20" height="20" viewBox="0 0 52 52" x="240" y="180"><path fill="#fff" d="M46.5 2h-41C4.7 2 4 2.7 4 3.5v5c0 .8.7 1.5 1.5 1.5h41c.8 0 1.5-.7 1.5-1.5v-5c0-.8-.7-1.5-1.5-1.5zm-32 12h-9c-.8 0-1.5.7-1.5 1.5v3c0 .8.7 1.5 1.5 1.5h9c.8 0 1.5-.7 1.5-1.5v-3c0-.8-.7-1.5-1.5-1.5zm16 0h-9c-.8 0-1.5.7-1.5 1.5v3c0 .8.7 1.5 1.5 1.5h9c.8 0 1.5-.7 1.5-1.5v-3c0-.8-.7-1.5-1.5-1.5zm16 0h-9c-.8 0-1.5.7-1.5 1.5v3c0 .8.7 1.5 1.5 1.5h9c.8 0 1.5-.7 1.5-1.5v-3c0-.8-.7-1.5-1.5-1.5zm-32 10h-9c-.8 0-1.5.7-1.5 1.5v3c0 .8.7 1.5 1.5 1.5h9c.8 0 1.5-.7 1.5-1.5v-3c0-.8-.7-1.5-1.5-1.5zm16 0h-9c-.8 0-1.5.7-1.5 1.5v3c0 .8.7 1.5 1.5 1.5h9c.8 0 1.5-.7 1.5-1.5v-3c0-.8-.7-1.5-1.5-1.5zm16 0h-9c-.8 0-1.5.7-1.5 1.5v3c0 .8.7 1.5 1.5 1.5h9c.8 0 1.5-.7 1.5-1.5v-3c0-.8-.7-1.5-1.5-1.5zm-32 10h-9c-.8 0-1.5.7-1.5 1.5v3c0 .8.7 1.5 1.5 1.5h9c.8 0 1.5-.7 1.5-1.5v-3c0-.8-.7-1.5-1.5-1.5zm16 0h-9c-.8 0-1.5.7-1.5 1.5v3c0 .8.7 1.5 1.5 1.5h9c.8 0 1.5-.7 1.5-1.5v-3c0-.8-.7-1.5-1.5-1.5zm16 0h-9c-.8 0-1.5.7-1.5 1.5v3c0 .8.7 1.5 1.5 1.5h9c.8 0 1.5-.7 1.5-1.5v-3c0-.8-.7-1.5-1.5-1.5zm-32 10h-9c-.8 0-1.5.7-1.5 1.5v3c0 .8.7 1.5 1.5 1.5h9c.8 0 1.5-.7 1.5-1.5v-3c0-.8-.7-1.5-1.5-1.5zm16 0h-9c-.8 0-1.5.7-1.5 1.5v3c0 .8.7 1.5 1.5 1.5h9c.8 0 1.5-.7 1.5-1.5v-3c0-.8-.7-1.5-1.5-1.5zm16 0h-9c-.8 0-1.5.7-1.5 1.5v3c0 .8.7 1.5 1.5 1.5h9c.8 0 1.5-.7 1.5-1.5v-3c0-.8-.7-1.5-1.5-1.5z"/></svg><view id="tablet_landscape" viewBox="240 200 20 20"/><svg width="20" height="20" viewBox="0 0 52 52" x="240" y="200"><path fill="#fff" d="M50 10c0-2.2-1.8-4-4-4H6c-2.2 0-4 1.8-4 4v32c0 2.2 1.8 4 4 4h40c2.2 0 4-1.8 4-4V10zM6.9 29c-1.7 0-3-1.3-3-3s1.3-3 3-3 3 1.3 3 3-1.4 3-3 3zM44 38.5c0 .8-.7 1.5-1.5 1.5h-29c-.8 0-1.5-.7-1.5-1.5v-25c0-.8.7-1.5 1.5-1.5h29c.8 0 1.5.7 1.5 1.5v25z"/></svg><view id="tablet_portrait" viewBox="240 220 20 20"/><svg width="20" height="20" viewBox="0 0 52 52" x="240" y="220"><path fill="#fff" d="M46 6c0-2.2-1.8-4-4-4H10C7.8 2 6 3.8 6 6v40c0 2.2 1.8 4 4 4h32c2.2 0 4-1.8 4-4V6zM25.9 48c-1.7 0-3-1.3-3-3s1.3-3 3-3 3 1.3 3 3-1.4 3-3 3zM40 38.5c0 .8-.7 1.5-1.5 1.5h-25c-.8 0-1.5-.7-1.5-1.5v-29c0-.8.7-1.5 1.5-1.5h25c.8 0 1.5.7 1.5 1.5v29z"/></svg><view id="text_background_color" viewBox="0 240 20 20"/><svg width="20" height="20" viewBox="0 0 52 52" y="240"><path fill="#fff" d="M25.9 16l4.3 10h-9l3.9-10h.8zM48 8v36c0 2.2-1.8 4-4 4H8c-2.2 0-4-1.8-4-4V8c0-2.2 1.8-4 4-4h36c2.2 0 4 1.8 4 4zm-5.5 32.7L30.5 11c-.3-.6-.8-1-1.5-1h-7.1c-.6 0-1.2.4-1.4 1l-11 29.7c-.2.6.2 1.3.9 1.3h4.1c.6 0 1.2-.5 1.4-1.1l3.2-8.9h13.4l3.5 8.9c.2.6.8 1.1 1.4 1.1h4.1c.7 0 1.2-.7 1-1.3z"/></svg><view id="text_color" viewBox="20 240 20 20"/><svg width="20" height="20" viewBox="0 0 52 52" x="20" y="240"><path fill="#fff" d="M10.4 36h4.1c.6 0 1.2-.5 1.4-1.1l3.2-8.9h13.4l3.5 8.9c.2.6.8 1.1 1.4 1.1h4.1c.7 0 1.2-.7.9-1.3L30.4 5c-.2-.6-.7-1-1.3-1H22c-.6 0-1.2.4-1.4 1l-11 29.7c-.3.6.2 1.3.8 1.3zm14.7-26h.9l4.3 10h-9l3.8-10zm23.4 32h-45c-.8 0-1.5.7-1.5 1.5v3c0 .8.7 1.5 1.5 1.5h45c.8 0 1.5-.7 1.5-1.5v-3c0-.8-.7-1.5-1.5-1.5z"/></svg><view id="threedots" viewBox="40 240 20 20"/><svg width="20" height="20" viewBox="0 0 52 52" x="40" y="240"><path fill="#fff" d="M8 20c3.3 0 6 2.7 6 6s-2.7 6-6 6-6-2.7-6-6 2.7-6 6-6zm18 0c3.3 0 6 2.7 6 6s-2.7 6-6 6-6-2.7-6-6 2.7-6 6-6zm18 0c3.3 0 6 2.7 6 6s-2.7 6-6 6-6-2.7-6-6 2.7-6 6-6z"/></svg><view id="tile_card_list" viewBox="60 240 20 20"/><svg width="20" height="20" viewBox="0 0 52 52" x="60" y="240"><path fill="#fff" d="M14.5 4h-9C4.7 4 4 4.7 4 5.5v17c0 .8.7 1.5 1.5 1.5h9c.8 0 1.5-.7 1.5-1.5v-17c0-.8-.7-1.5-1.5-1.5zm16 0h-9c-.8 0-1.5.7-1.5 1.5v17c0 .8.7 1.5 1.5 1.5h9c.8 0 1.5-.7 1.5-1.5v-17c0-.8-.7-1.5-1.5-1.5zm16 0h-9c-.8 0-1.5.7-1.5 1.5v17c0 .8.7 1.5 1.5 1.5h9c.8 0 1.5-.7 1.5-1.5v-17c0-.8-.7-1.5-1.5-1.5zm-32 24h-9c-.8 0-1.5.7-1.5 1.5v17c0 .8.7 1.5 1.5 1.5h9c.8 0 1.5-.7 1.5-1.5v-17c0-.8-.7-1.5-1.5-1.5zm16 0h-9c-.8 0-1.5.7-1.5 1.5v17c0 .8.7 1.5 1.5 1.5h9c.8 0 1.5-.7 1.5-1.5v-17c0-.8-.7-1.5-1.5-1.5zm16 0h-9c-.8 0-1.5.7-1.5 1.5v17c0 .8.7 1.5 1.5 1.5h9c.8 0 1.5-.7 1.5-1.5v-17c0-.8-.7-1.5-1.5-1.5z"/></svg><view id="topic" viewBox="80 240 20 20"/><svg width="20" height="20" viewBox="0 0 52 52" x="80" y="240"><path d="M17.4 35.3c-.1-.3-.4-.6-.7-.7l-2.2-.6c-.4-.1-.9.1-1.1.5L9.6 41c-1 1.8-.4 2.4 1.4 1.4l6.6-3.8c.4-.2.6-.7.5-1.1l-.7-2.2zm17.2-18.6c.1.3.4.6.7.7l2.2.6c.4.1.9-.1 1.1-.5l3.8-6.6c1-1.8.4-2.4-1.4-1.4l-6.6 3.8c-.4.2-.6.7-.5 1.1l.7 2.3zm-21.2.9c.2.4.7.6 1.1.5l2.2-.6c.3-.1.6-.4.7-.7l.6-2.2c.1-.4-.1-.9-.5-1.1L11 9.6c-1.8-1-2.4-.4-1.4 1.4l3.8 6.6zm25.2 16.8c-.2-.4-.7-.6-1.1-.5l-2.2.6c-.3.1-.6.4-.7.7l-.6 2.3c-.1.4.1.9.5 1.1l6.6 3.8c1.8 1 2.4.4 1.4-1.4l-3.9-6.6zm10.1-9.2l-16.4-4.4c-.6-.1-1-.6-1.1-1.1L26.8 3.3c-.5-1.7-1.2-1.7-1.7 0l-4.4 16.4c-.1.6-.6 1-1.1 1.1L3.3 25.2c-1.7.5-1.7 1.2 0 1.7l16.4 4.4c.6.1 1 .6 1.1 1.1l4.4 16.4c.5 1.7 1.2 1.7 1.7 0l4.4-16.4c.1-.6.6-1 1.1-1.1l16.4-4.4c1.6-.5 1.6-1.3-.1-1.7zM26 30c-2.2 0-4-1.8-4-4s1.8-4 4-4 4 1.8 4 4-1.8 4-4 4z" fill="#fff"/></svg><view id="trail" viewBox="100 240 20 20"/><svg width="20" height="20" viewBox="0 0 52 52" x="100" y="240"><path fill="#fff" d="M27.8 2c3.3 0 5.9 2.6 5.9 5.9s-2.7 5.9-5.9 5.9-5.9-2.6-5.9-5.9S24.5 2 27.8 2zM43 18.1c-1.2-.1-2.3.7-2.4 1.8l-.6 5.8c-.2 0-.3.3-.5.3H34l-3.8-6.7c-.3-.6-.9-1.1-1.6-1.2l-5.8-.8c-1-.1-2 .4-2.4 1.4L16 30c-.3.9.1 1.8.9 2.3l10.8 7.4.9 8.4c.1 1.1 1.1 1.9 2.2 1.9 1.3 0 2.3-1 2.2-2.2l-1-10.3c0-.5-.3-1-.8-1.4l-5.9-6.6 2.2-5.4 2.6 4.5c.4.6 1.1 1.3 1.9 1.3h7.6l-2.2 18c-.1 1.1.7 2 1.9 2.1.1 0 .2-.1.2-.1 1.1 0 2-.8 2.2-1.9L45 20.2c.1-1-.8-2-2-2.1zm-30.8 9.6l3.7-9.5c.2-.6.5-1.2.9-1.8l-.5-.1c-3.2-.4-6.2 1.5-7.2 4.4l-2 5.2c-.4 1.1.2 2.4 1.4 2.7l.9.2c1.2.5 2.4-.1 2.8-1.1zm1.4 7.5L9.1 48.6c-.2.7.3 1.3 1 1.3h2.5c.9 0 1.8-.6 2.1-1.4l4.4-9.7-5-3.1c-.1-.2-.3-.4-.5-.5z"/></svg><view id="undelete" viewBox="120 240 20 20"/><svg width="20" height="20" viewBox="0 0 52 52" x="120" y="240"><path d="M41.5 20h-31c-.8 0-1.5.7-1.5 1.5V45c0 2.8 2.2 5 5 5h24c2.8 0 5-2.2 5-5V21.5c0-.8-.7-1.5-1.5-1.5zM26 46v-4c3.3 0 6-2.7 6-6s-2.7-6-6-6c-1.6 0-3.1.7-4.2 1.8l2.4 2.4c.3.3.1.9-.4.9h-7.3c-.3 0-.5-.2-.5-.5v-7.3c0-.4.5-.7.9-.4L19 29c1.9-1.8 4.4-2.9 7.1-2.9 5.5 0 10 4.5 10 10S31.5 46 26 46zm19.5-36H33V6c0-2.2-1.8-4-4-4h-6c-2.2 0-4 1.8-4 4v4H6.5c-.8 0-1.5.7-1.5 1.5v3c0 .8.7 1.5 1.5 1.5h39c.8 0 1.5-.7 1.5-1.5v-3c0-.8-.7-1.5-1.5-1.5zM29 10h-6V7c0-.6.4-1 1-1h4c.6 0 1 .4 1 1v3z" fill="#fff"/></svg><view id="undeprecate" viewBox="140 240 20 20"/><svg width="20" height="20" viewBox="0 0 52 52" x="140" y="240"><path fill="#fff" d="M48 7H4c-1.1 0-2 .9-2 2v26c0 1.1.9 2 2 2h16.2c1 5.7 5.9 10 11.8 10s10.9-4.3 11.8-10H48c1.1 0 2-.9 2-2V9c0-1.1-.9-2-2-2zM30.5 41.3l-5.9-5.9 2.8-2.8 3.1 3.1 7.1-7.1 2.8 2.8-9.9 9.9zM46 33h-2.2c-1-5.7-5.9-10-11.8-10s-10.9 4.3-11.8 10H6V11h40v22z"/></svg><view id="underline" viewBox="160 240 20 20"/><svg width="20" height="20" viewBox="0 0 52 52" x="160" y="240"><path fill="#fff" d="M44.5 42h-37c-.8 0-1.5.7-1.5 1.5v3c0 .8.7 1.5 1.5 1.5h37c.8 0 1.5-.7 1.5-1.5v-3c0-.8-.7-1.5-1.5-1.5zm-19.2-4C17.8 37.6 12 31.1 12 23.6V10c0-1.1.9-2 2-2h2c1.1 0 2 .9 2 2v13.7c0 4.3 3.2 8 7.5 8.3 4.7.3 8.5-3.4 8.5-8V10c0-1.1.9-2 2-2h2c1.1 0 2 .9 2 2v14c0 8-6.7 14.4-14.7 14z"/></svg><view id="undo" viewBox="180 240 20 20"/><svg width="20" height="20" viewBox="0 0 52 52" x="180" y="240"><path fill="#fff" d="M5.5 4h3c.8 0 1.5.7 1.5 1.5v7c0 .9.5 1.3 1.2.7.3-.4.6-.7 1-1 5-5 12-7.1 19.2-5.7 2.5.5 4.9 1.5 7 2.9 6.1 4 9.6 10.5 9.7 17.5.1 5.4-2 10.8-5.8 14.7-3.6 3.8-8.4 6.1-13.5 6.5-1-.1-1.8-.8-1.8-1.7v-3c0-.8.6-1.4 1.4-1.5 4.7-.4 9-3 11.6-7.3.7-1.2 1.3-2.5 1.6-3.8 1.6-6.6-1.1-13.2-6.9-16.7-1.2-.7-2.5-1.3-3.8-1.6-5.4-1.3-10.7.2-14.4 3.9-.5.4-.9.9-1.2 1.4-.3.8.4 1.2 1.3 1.2h7c.8 0 1.4.7 1.4 1.5v3.1c0 .8-.5 1.4-1.3 1.4H5.3c-.7 0-1.3-.6-1.3-1.3V5.5C4 4.7 4.7 4 5.5 4z"/></svg><view id="unlock" viewBox="200 240 20 20"/><svg width="20" height="20" viewBox="0 0 52 52" x="200" y="240"><path d="M10 18.1v.4-.4zM42 23H16v-4.7c0-5.3 4-10 9.3-10.3 4.9-.3 9 2.8 10.3 7.2.1.4.5.8 1 .8h4.1c.6 0 1.1-.6 1-1.2C40.1 7.2 33.3 1.6 25.2 2c-8.5.4-15 7.7-15.2 16.1V23c-2.2 0-4 1.8-4 4v19c0 2.2 1.8 4 4 4h32c2.2 0 4-1.8 4-4V27c0-2.2-1.8-4-4-4zM30.6 42.7c.2.6-.3 1.3-1 1.3h-7.3c-.7 0-1.2-.6-1-1.3l1.8-6c-1.5-1-2.4-2.8-2-4.8.4-1.9 1.9-3.4 3.9-3.8 3.2-.6 6 1.7 6 4.7 0 1.6-.8 3.1-2.1 3.9l1.7 6z" fill="#fff"/></svg><view id="unmuted" viewBox="220 240 20 20"/><svg width="20" height="20" viewBox="0 0 52 52" x="220" y="240"><path d="M41.5 18c-1.4 0-2.5 1-2.5 2.4v4c0 7-5.9 12.8-13.1 12.8s-13.1-5.8-13.1-12.8v-4c0-1.4-1.1-2.4-2.5-2.4S8 19 8 20.4v4c0 8.9 6.8 16.2 15.5 17.4v3.4h-4.1c-1.4 0-2.5 1-2.5 2.4S18 50 19.4 50h13.1c1.4 0 2.5-1 2.5-2.4s-1.1-2.4-2.5-2.4h-4.1v-3.4C37.2 40.6 44 33.3 44 24.4v-4c0-1.4-1.1-2.4-2.5-2.4zM26 32.4c4.4 0 8-3.6 8-8V9.9C34 5.5 30.5 2 26.1 2h-.2C21.5 2 18 5.5 18 9.9v14.5c0 4.4 3.6 8 8 8z" fill="#fff"/></svg><view id="up" viewBox="240 240 20 20"/><svg width="20" height="20" viewBox="0 0 52 52" x="240" y="240"><path fill="#fff" d="M43.7 38H8.3c-1 0-1.7-1.3-.9-2.2l17.3-21.2c.6-.8 1.9-.8 2.5 0l17.5 21.2c.7.9.1 2.2-1 2.2z"/></svg><view id="upload" viewBox="260 0 20 20"/><svg width="20" height="20" viewBox="0 0 52 52" x="260"><path d="M48.5 31h-3c-.8 0-1.5.8-1.5 1.5v10c0 .8-.7 1.5-1.5 1.5h-33c-.8 0-1.5-.7-1.5-1.5v-10c0-.7-.7-1.5-1.5-1.5h-3c-.8 0-1.5.8-1.5 1.5V46c0 2.2 1.8 4 4 4h40c2.2 0 4-1.8 4-4V32.5c0-.7-.7-1.5-1.5-1.5zM27 2.4c-.6-.6-1.5-.6-2.1 0L11.4 15.9c-.6.6-.6 1.5 0 2.1l2.1 2.1c.6.6 1.5.6 2.1 0l5.6-5.6c.6-.6 1.8-.2 1.8.7v21.2c0 .8.6 1.5 1.4 1.5h3c.8 0 1.6-.8 1.6-1.5V15.3c0-.9 1-1.3 1.7-.7l5.6 5.6c.6.6 1.5.6 2.1 0l2.1-2.1c.6-.6.6-1.5 0-2.1L27 2.4z" fill="#fff"/></svg><view id="user" viewBox="260 20 20 20"/><svg width="20" height="20" viewBox="0 0 52 52" x="260" y="20"><path fill="#fff" d="M50 43v2.2c0 2.6-2.2 4.8-4.8 4.8H6.8C4.2 50 2 47.8 2 45.2V43c0-5.8 6.8-9.4 13.2-12.2l.6-.3c.5-.2 1-.2 1.5.1 2.6 1.7 5.5 2.6 8.6 2.6s6.1-1 8.6-2.6c.5-.3 1-.3 1.5-.1l.6.3C43.2 33.6 50 37.1 50 43zM26 2c6.6 0 11.9 5.9 11.9 13.2S32.6 28.4 26 28.4s-11.9-5.9-11.9-13.2S19.4 2 26 2z"/></svg><view id="volume_high" viewBox="260 40 20 20"/><svg width="20" height="20" viewBox="0 0 52 52" x="260" y="40"><path d="M24.6 2.6L12 18H6c-2.2 0-4 1.8-4 4v8c0 2.2 1.8 4 4 4h6l12.6 15.4c1.3 1.3 3.4.4 3.4-1.4V4c0-1.8-2.2-2.7-3.4-1.4zm18 6.1c-.4-.4-1-.4-1.4 0l-1.4 1.4c-.4.4-.4 1.1 0 1.4C43.6 15.2 46 20.3 46 26c0 5.7-2.4 10.8-6.2 14.5-.4.4-.4 1 0 1.4l1.4 1.4c.4.4 1 .4 1.4 0C47.1 39 50 32.8 50 26c0-6.8-2.8-13-7.4-17.3zm-6.3 6.4c-.4-.4-1-.4-1.4 0l-1.4 1.4c-.4.4-.4 1 0 1.4 2.2 2 3.5 4.9 3.5 8.1 0 3.2-1.4 6.1-3.6 8.1-.4.4-.4 1 0 1.4l1.4 1.4c.4.4 1 .4 1.4 0 2.9-2.7 4.8-6.6 4.8-11 0-4.2-1.8-8.1-4.7-10.8z" fill="#fff"/></svg><view id="volume_low" viewBox="260 60 20 20"/><svg width="20" height="20" viewBox="0 0 52 52" x="260" y="60"><path d="M24.6 2.6L12 18H6c-2.2 0-4 1.8-4 4v8c0 2.2 1.8 4 4 4h6l12.6 15.4c1.3 1.3 3.4.4 3.4-1.4V4c0-1.8-2.2-2.7-3.4-1.4zm11.7 12.5c-.4-.4-1-.4-1.4 0l-1.4 1.4c-.4.4-.4 1 0 1.4 2.2 2 3.5 4.9 3.5 8.1s-1.4 6.1-3.6 8.1c-.4.4-.4 1 0 1.4l1.4 1.4c.4.4 1 .4 1.4 0 2.9-2.7 4.8-6.6 4.8-11 0-4.2-1.8-8.1-4.7-10.8z" fill="#fff"/></svg><view id="volume_off" viewBox="260 80 20 20"/><svg width="20" height="20" viewBox="0 0 52 52" x="260" y="80"><path d="M24.6 2.6L12 18H6c-2.2 0-4 1.8-4 4v8c0 2.2 1.8 4 4 4h6l12.6 15.4c1.3 1.3 3.4.4 3.4-1.4V4c0-1.8-2.2-2.7-3.4-1.4zM44.8 26l4.9-4.9c.4-.4.4-1 0-1.4l-1.4-1.4c-.4-.4-1-.4-1.4 0L42 23.2l-4.9-4.9c-.4-.4-1-.4-1.4 0l-1.4 1.4c-.4.4-.4 1 0 1.4l4.9 4.9-4.9 4.9c-.4.4-.4 1 0 1.4l1.4 1.4c.4.4 1 .4 1.4 0l4.9-4.9 4.9 4.9c.4.4 1 .4 1.4 0l1.4-1.4c.4-.4.4-1 0-1.4L44.8 26z" fill="#fff"/></svg><view id="warning" viewBox="260 100 20 20"/><svg width="20" height="20" viewBox="0 0 52 52" x="260" y="100"><path fill="#fff" d="M51.4 42.5l-22.9-37c-1.2-2-3.8-2-5 0L.6 42.5C-.8 44.8.6 48 3.1 48h45.8c2.5 0 4-3.2 2.5-5.5zM26 40c-1.7 0-3-1.3-3-3s1.3-3 3-3 3 1.3 3 3-1.3 3-3 3zm3-9c0 .6-.4 1-1 1h-4c-.6 0-1-.4-1-1V18c0-.6.4-1 1-1h4c.6 0 1 .4 1 1v13z"/></svg><view id="weeklyview" viewBox="260 120 20 20"/><svg width="20" height="20" viewBox="0 0 52 52" x="260" y="120"><path fill="#fff" d="M44 7h-5V5c0-1.6-1.3-3-3-3-1.6 0-3 1.3-3 3v2H19V5c0-1.6-1.3-3-3-3-1.6 0-3 1.3-3 3v2H8c-2.2 0-4 1.8-4 4v2.5c0 .8.7 1.5 1.5 1.5h41c.8 0 1.5-.7 1.5-1.5V11c0-2.2-1.8-4-4-4zm2.5 13h-41c-.8 0-1.5.7-1.5 1.5V46c0 2.2 1.8 4 4 4h36c2.2 0 4-1.8 4-4V21.5c0-.8-.7-1.5-1.5-1.5zm-13.7 9.5l-6.3 13.4c-.3.7-1 1.1-1.8 1.1-1.1 0-1.9-.9-1.9-1.8 0-.2.1-.5.2-.8L28.3 30h-7.6c-.9 0-1.7-.6-1.7-1.5 0-.8.8-1.5 1.7-1.5h10.4c1 0 1.9.8 1.9 1.8 0 .3-.1.5-.2.7z"/></svg><view id="world" viewBox="260 140 20 20"/><svg width="20" height="20" viewBox="0 0 52 52" x="260" y="140"><path fill="#fff" d="M26 2C12.7 2 2 12.7 2 26s10.7 24 24 24 24-10.7 24-24S39.3 2 26 2zm0 5zm2 .1h-.2.2zM26 45C15.5 45 7 36.5 7 26c0-1 .1-2.1.3-3 1.3.2 2.9.7 3.7 1.5 1.7 1.8 3.6 3.9 5.4 4.3 0 0-.2.1-.4.4-.2.3-.4.9-.4 1.9 0 4.7 4.4 1.9 4.4 6.6 0 4.7 5.3 6.6 5.3 2.8s3.5-5.6 3.5-8.5-2.7-2.8-4.4-3.8c-1.8-.9-2.7-2.4-6.1-1.9-1.8-1.7-2.8-3.1-2-4.7.9-1.7 4.6-2 4.6-4.6s-2.5-3.1-4.3-3.1c-.8 0-2.5-.6-3.9-1.3 1.7-1.7 3.8-3.1 6-4.1 1.6.7 4.3 1.8 6.6 1.8 2.7 0 4.1-1.9 3.7-3.1 4.5.7 8.5 3 11.4 6.2-1.5.9-3.5 1.9-7 1.9-4.6 0-4.6 4.7-1.9 5.6 2.8.9 5.6-1.8 6.5 0 .9 1.8-6.5 1.8-4.6 6.4 1.9 4.6 3.7-.1 5.6 4.5 1.9 4.6 5.6-.7 2.8-4.3-1.2-1.6-.9-6.5 1.9-6.5h.9c.4 1.6.7 3.3.7 5C45 36.5 36.5 45 26 45z"/></svg><view id="zoomin" viewBox="260 160 20 20"/><svg width="20" height="20" viewBox="0 0 52 52" x="260" y="160"><path fill="#fff" d="M31 19h-6v-6c0-.6-.4-1-1-1h-4c-.6 0-1 .4-1 1v6h-6c-.6 0-1 .4-1 1v4c0 .6.4 1 1 1h6v6c0 .6.4 1 1 1h4c.6 0 1-.4 1-1v-6h6c.6 0 1-.4 1-1v-4c0-.6-.4-1-1-1zm18.6 26.2L38.1 33.8C40.5 30.5 42 26.4 42 22c0-11-9-20-20-20S2 11 2 22s9 20 20 20c4.4 0 8.5-1.5 11.8-3.9l11.5 11.5c.6.6 1.5.6 2.1 0l2.1-2.1c.6-.6.6-1.6.1-2.3zM22 36c-7.7 0-14-6.3-14-14S14.3 8 22 8s14 6.3 14 14-6.3 14-14 14z"/></svg><view id="zoomout" viewBox="260 180 20 20"/><svg width="20" height="20" viewBox="0 0 52 52" x="260" y="180"><path fill="#fff" d="M19 25h12c.6 0 1-.4 1-1v-4c0-.6-.4-1-1-1H19m0 0h-6c-.6 0-1 .4-1 1v4c0 .6.4 1 1 1h6"/><path fill="#fff" d="M49.6 45.3L38.1 33.8C40.5 30.5 42 26.4 42 22c0-11-9-20-20-20S2 11 2 22s9 20 20 20c4.4 0 8.5-1.5 11.8-3.9l11.5 11.5c.6.6 1.5.6 2.1 0l2.1-2.1c.6-.6.6-1.6.1-2.2zM22 36c-7.7 0-14-6.3-14-14S14.3 8 22 8s14 6.3 14 14-6.3 14-14 14z"/></svg></svg>