<?xml version="1.0" encoding="utf-8"?><svg xmlns="http://www.w3.org/2000/svg" width="20" height="20" viewBox="0 0 52 52"><path fill="#fff" d="M48.5 23h-7.2l4.4-4.4c.5-.5.5-1.2 0-1.6L44 15.3c-.5-.5-1.2-.5-1.6 0L34.7 23H29v-5.7l7.7-7.7c.5-.5.5-1.2 0-1.6L35 6.3c-.5-.5-1.2-.5-1.6 0L29 10.7V3.5c0-.8-.7-1.5-1.5-1.5h-3c-.8 0-1.5.7-1.5 1.5v7.2l-4.4-4.4c-.5-.5-1.2-.5-1.6 0L15.3 8c-.5.5-.5 1.2 0 1.6l7.7 7.7V23h-5.7l-7.7-7.7c-.5-.5-1.2-.5-1.6 0L6.3 17c-.5.5-.5 1.2 0 1.6l4.4 4.4H3.5c-.8 0-1.5.7-1.5 1.5v3c0 .8.7 1.5 1.5 1.5h7.2l-4.4 4.4c-.5.5-.5 1.2 0 1.6l1.6 1.6c.5.5 1.2.5 1.6 0l7.7-7.7H23v5.6l-7.7 7.7c-.5.5-.5 1.2 0 1.6l1.6 1.6c.5.5 1.3.5 1.7 0L23 41v7.2c0 .8.6 1.7 1.4 1.7h3c.8 0 1.6-.9 1.6-1.7V41l4.4 4.4c.5.5 1.2.5 1.6 0l1.6-1.6c.5-.5.5-1.2 0-1.6L29 34.7V29h5.7l7.7 7.7c.5.5 1.2.5 1.6 0l1.6-1.6c.5-.5.5-1.2 0-1.6L41.3 29h7.2c.8 0 1.5-.7 1.5-1.5v-3c0-.8-.7-1.5-1.5-1.5z"/></svg>