<?xml version="1.0" encoding="utf-8"?><svg xmlns="http://www.w3.org/2000/svg" width="20" height="20" viewBox="0 0 52 52"><path fill="#fff" d="M46.7 3h-3c-.8 0-1.7.7-1.7 1.5v7c0 .9-.4 1.3-1.1.7-.3-.4-.6-.7-1-1-5-5-12-7.1-19.2-5.7-2.5.5-4.9 1.5-7 2.9-6.1 4-9.6 10.5-9.7 17.5-.1 5.4 2 10.8 5.8 14.7 3.6 3.8 8.4 6.1 13.6 6.5.9.1 1.6-.6 1.6-1.5v-3c0-.8-.6-1.4-1.4-1.5-4.7-.4-9-3-11.6-7.3-.7-1.2-1.3-2.5-1.6-3.8-1.6-6.6 1.1-13.2 6.9-16.7 1.2-.7 2.5-1.3 3.8-1.6 5.4-1.3 10.7.2 14.4 3.9.5.4.9.8 1.2 1.3.3.8-.4 1.1-1.3 1.1h-7c-.8 0-1.5.9-1.5 1.7v3.1c0 .8.6 1.2 1.4 1.2h18.3c.7 0 1.3-.4 1.3-1.1V4.5c.1-.8-.4-1.5-1.2-1.5z"/></svg>