<?xml version="1.0" encoding="utf-8"?><svg xmlns="http://www.w3.org/2000/svg" width="20" height="20" viewBox="0 0 52 52"><path fill="#fff" d="M5.5 4h3c.8 0 1.5.7 1.5 1.5v7c0 .9.5 1.3 1.2.7.3-.4.6-.7 1-1 5-5 12-7.1 19.2-5.7 2.5.5 4.9 1.5 7 2.9 6.1 4 9.6 10.5 9.7 17.5.1 5.4-2 10.8-5.8 14.7-3.6 3.8-8.4 6.1-13.5 6.5-1-.1-1.8-.8-1.8-1.7v-3c0-.8.6-1.4 1.4-1.5 4.7-.4 9-3 11.6-7.3.7-1.2 1.3-2.5 1.6-3.8 1.6-6.6-1.1-13.2-6.9-16.7-1.2-.7-2.5-1.3-3.8-1.6-5.4-1.3-10.7.2-14.4 3.9-.5.4-.9.9-1.2 1.4-.3.8.4 1.2 1.3 1.2h7c.8 0 1.4.7 1.4 1.5v3.1c0 .8-.5 1.4-1.3 1.4H5.3c-.7 0-1.3-.6-1.3-1.3V5.5C4 4.7 4.7 4 5.5 4z"/></svg>